<svg width="423" height="423" viewBox="0 0 423 423" fill="none" xmlns="http://www.w3.org/2000/svg">
<path d="M243.46 45.0261V202.1C243.46 209.432 240.452 216.106 235.658 220.994C230.864 225.788 224.19 228.796 216.858 228.796H82.8139C68.0559 228.796 56.2119 216.858 56.2119 202.1V45.0261C56.2119 30.2681 68.1499 18.3301 82.8139 18.3301H216.764C224.096 18.3301 230.77 21.3381 235.564 26.1321C240.452 31.0201 243.46 37.6941 243.46 45.0261Z" fill="#E9E5FF"/>
<path d="M216.764 229.172H82.8137C67.8677 229.172 55.7417 217.046 55.7417 202.1V45.0261C55.7417 30.0801 67.8677 17.9541 82.8137 17.9541H216.764C224.002 17.9541 230.77 20.7741 235.846 25.8501C240.922 30.9261 243.742 37.7881 243.742 44.9321V202.1C243.742 209.338 240.922 216.106 235.846 221.182C230.77 226.352 224.002 229.172 216.764 229.172ZM82.8137 18.8001C68.3377 18.8001 56.5877 30.5501 56.5877 45.0261V202.1C56.5877 216.576 68.3377 228.326 82.8137 228.326H216.764C223.814 228.326 230.394 225.6 235.376 220.618C240.358 215.636 243.084 209.056 243.084 202.006V45.0261C243.084 37.9761 240.358 31.3961 235.376 26.4141C230.394 21.4321 223.814 18.7061 216.764 18.7061H82.8137V18.8001Z" fill="#E9E5FF"/>
<path d="M206.894 148.144H110.92C107.254 148.144 104.34 145.23 104.34 141.564V116.278C104.34 112.612 107.254 109.698 110.92 109.698H206.8C210.466 109.698 213.38 112.612 213.38 116.278V141.564C213.474 145.136 210.56 148.144 206.894 148.144Z" fill="#12b981"/>
<path d="M208.022 148.52H109.792C106.596 148.52 103.964 145.888 103.964 142.692V114.962C103.964 111.766 106.596 109.134 109.792 109.134H208.116C211.312 109.134 213.944 111.766 213.944 114.962V142.692C213.85 145.888 211.218 148.52 208.022 148.52ZM109.792 109.98C107.066 109.98 104.81 112.236 104.81 114.962V142.692C104.81 145.418 107.066 147.674 109.792 147.674H208.116C210.842 147.674 213.098 145.418 213.098 142.692V114.962C213.098 112.236 210.842 109.98 208.116 109.98H109.792Z" fill="#12b981"/>
<path d="M139.308 128.874C139.308 136.018 133.574 141.752 126.43 141.752C119.286 141.752 113.552 136.018 113.552 128.874C113.552 121.73 119.286 115.996 126.43 115.996C133.574 115.996 139.308 121.73 139.308 128.874Z" fill="#4534B8"/>
<path d="M159.236 96.2556H104.622C101.238 96.2556 98.418 93.5296 98.418 90.0516V56.3056C98.418 52.9216 101.144 50.1016 104.622 50.1016H159.236C162.62 50.1016 165.44 52.8276 165.44 56.3056V90.0516C165.44 93.4356 162.62 96.2556 159.236 96.2556Z" fill="#4534B8"/>
<path d="M123.798 79.9937C123.892 80.3697 123.986 80.5577 123.986 80.7457C123.986 80.9337 123.986 81.1217 123.892 81.2157C123.798 81.3097 123.61 81.4037 123.328 81.4037C123.046 81.4037 122.67 81.4037 122.294 81.4037C121.824 81.4037 121.448 81.4037 121.166 81.4037C120.884 81.4037 120.696 81.4037 120.602 81.3097C120.508 81.3097 120.32 81.2157 120.32 81.1217C120.226 81.0277 120.226 80.9337 120.226 80.8397L119.004 77.2677H112.236L111.108 80.7457C111.108 80.8397 111.014 81.0277 110.92 81.0277C110.826 81.1217 110.732 81.2157 110.638 81.2157C110.544 81.3097 110.356 81.3097 110.074 81.3097C109.792 81.3097 109.51 81.3097 109.134 81.3097C108.664 81.3097 108.382 81.3097 108.1 81.3097C107.818 81.3097 107.724 81.2157 107.63 81.1217C107.536 81.0277 107.536 80.8397 107.536 80.6517C107.536 80.4637 107.63 80.1817 107.724 79.8997L113.27 63.9197C113.364 63.7317 113.364 63.6377 113.458 63.5437C113.552 63.4497 113.646 63.3557 113.834 63.3557C114.022 63.2617 114.21 63.2617 114.492 63.2617C114.774 63.2617 115.15 63.2617 115.62 63.2617C116.184 63.2617 116.56 63.2617 116.936 63.2617C117.218 63.2617 117.5 63.2617 117.688 63.3557C117.876 63.4497 117.97 63.4497 118.064 63.5437C118.158 63.6377 118.252 63.8257 118.252 63.9197L123.798 79.9937ZM115.526 66.7397L112.988 74.3537H118.064L115.526 66.7397Z" fill="white"/>
<path d="M141.281 72.0984C141.281 73.7904 141.093 75.2004 140.623 76.3284C140.153 77.4564 139.589 78.4904 138.743 79.2424C137.897 79.9944 136.957 80.5584 135.829 80.8404C134.701 81.2164 133.291 81.4044 131.693 81.4044H127.369C127.087 81.4044 126.805 81.3104 126.617 81.1224C126.429 80.9344 126.335 80.6524 126.335 80.2764V64.4844C126.335 64.1084 126.429 63.8264 126.617 63.6384C126.805 63.4504 127.087 63.3564 127.369 63.3564H131.975C133.573 63.3564 134.983 63.5444 136.017 63.9204C137.145 64.2964 138.085 64.8604 138.837 65.6124C139.589 66.3644 140.153 67.3044 140.623 68.3384C141.093 69.3724 141.281 70.5944 141.281 72.0984ZM137.521 72.1924C137.521 71.3464 137.427 70.5004 137.239 69.8424C137.051 69.0904 136.675 68.4324 136.299 67.9624C135.829 67.3984 135.265 67.0224 134.607 66.7404C133.949 66.4584 133.009 66.2704 131.881 66.2704H130.001V78.4904H131.881C132.915 78.4904 133.761 78.3964 134.419 78.1144C135.077 77.8324 135.641 77.4564 136.111 76.8924C136.581 76.3284 136.957 75.6704 137.145 74.9184C137.427 74.1664 137.521 73.2264 137.521 72.1924Z" fill="white"/>
<path d="M155.006 75.952C155.006 76.892 154.818 77.738 154.442 78.49C154.066 79.242 153.596 79.806 153.032 80.276C152.468 80.746 151.716 81.122 150.87 81.31C150.024 81.592 149.178 81.686 148.238 81.686C147.58 81.686 147.016 81.592 146.546 81.498C145.982 81.404 145.512 81.31 145.136 81.122C144.76 80.934 144.384 80.84 144.102 80.652C143.82 80.464 143.632 80.37 143.538 80.276C143.444 80.182 143.35 79.994 143.256 79.712C143.162 79.524 143.162 79.148 143.162 78.772C143.162 78.49 143.162 78.208 143.162 78.02C143.162 77.832 143.256 77.644 143.256 77.55C143.256 77.456 143.35 77.362 143.444 77.268C143.538 77.174 143.632 77.174 143.726 77.174C143.82 77.174 144.008 77.268 144.29 77.362C144.572 77.55 144.854 77.644 145.23 77.832C145.606 78.02 146.076 78.208 146.546 78.302C147.016 78.49 147.674 78.49 148.332 78.49C148.802 78.49 149.178 78.396 149.554 78.302C149.93 78.208 150.212 78.02 150.494 77.832C150.776 77.644 150.964 77.362 151.058 77.08C151.152 76.798 151.246 76.516 151.246 76.14C151.246 75.764 151.152 75.388 150.87 75.106C150.682 74.824 150.4 74.542 150.024 74.354C149.648 74.166 149.272 73.884 148.802 73.696C148.332 73.508 147.862 73.32 147.392 73.038C146.922 72.85 146.452 72.568 145.982 72.286C145.512 72.004 145.136 71.628 144.76 71.252C144.384 70.876 144.102 70.406 143.914 69.842C143.726 69.278 143.538 68.62 143.538 67.868C143.538 67.022 143.726 66.27 144.008 65.612C144.29 64.954 144.76 64.39 145.324 64.014C145.888 63.544 146.546 63.262 147.204 63.074C147.956 62.886 148.708 62.792 149.554 62.792C150.024 62.792 150.4 62.792 150.87 62.886C151.34 62.98 151.716 63.074 152.092 63.168C152.468 63.262 152.75 63.45 153.126 63.544C153.408 63.638 153.596 63.826 153.69 63.92C153.784 64.014 153.878 64.108 153.878 64.202C153.878 64.296 153.972 64.39 153.972 64.484C153.972 64.578 153.972 64.766 154.066 64.86C154.066 65.048 154.066 65.236 154.066 65.424C154.066 65.706 154.066 65.894 154.066 66.082C154.066 66.27 154.066 66.458 153.972 66.552C153.972 66.646 153.878 66.74 153.878 66.834C153.784 66.928 153.69 66.928 153.596 66.928C153.502 66.928 153.314 66.834 153.126 66.74C152.938 66.646 152.656 66.458 152.28 66.27C151.998 66.082 151.622 65.988 151.152 65.894C150.682 65.8 150.212 65.706 149.742 65.706C149.366 65.706 148.99 65.8 148.708 65.894C148.426 65.988 148.144 66.082 147.956 66.27C147.768 66.458 147.58 66.646 147.486 66.928C147.392 67.21 147.298 67.398 147.298 67.68C147.298 68.056 147.392 68.432 147.58 68.714C147.768 68.996 148.05 69.278 148.426 69.466C148.802 69.654 149.178 69.936 149.648 70.124C150.118 70.312 150.588 70.5 151.058 70.782C151.528 70.97 151.998 71.252 152.468 71.534C152.938 71.816 153.314 72.192 153.69 72.568C154.066 72.944 154.348 73.414 154.536 73.978C154.912 74.542 155.006 75.2 155.006 75.952Z" fill="white"/>
<path d="M216.576 52.7344H176.062V64.5784H216.576V52.7344Z" fill="#4534B8"/>
<path d="M195.238 71.4395H176.062V75.6695H195.238V71.4395Z" fill="#4534B8"/>
<path d="M232.18 71.4395H205.202V75.6695H232.18V71.4395Z" fill="#E5E8FF"/>
<path d="M214.038 80.4639H176.062V84.6939H214.038V80.4639Z" fill="#4534B8"/>
<path d="M232.18 80.4639H219.208V84.6939H232.18V80.4639Z" fill="#E5E8FF"/>
<path d="M194.674 89.4883H176.062V93.7183H194.674V89.4883Z" fill="#4534B8"/>
<path d="M207.834 89.4883H198.528V93.7183H207.834V89.4883Z" fill="#E5E8FF"/>
<path d="M84.2237 32.4302C84.2237 34.9682 82.1557 37.0362 79.6177 37.0362C77.0797 37.0362 75.0117 34.9682 75.0117 32.4302C75.0117 29.8922 77.0797 27.8242 79.6177 27.8242C82.1557 27.8242 84.2237 29.8922 84.2237 32.4302Z" fill="#4534B8"/>
<path d="M97.2896 32.4302C97.2896 34.9682 95.2216 37.0362 92.6836 37.0362C90.1456 37.0362 88.0776 34.9682 88.0776 32.4302C88.0776 29.8922 90.1456 27.8242 92.6836 27.8242C95.2216 27.8242 97.2896 29.8922 97.2896 32.4302Z" fill="#4534B8"/>
<path d="M110.356 32.4302C110.356 34.9682 108.288 37.0362 105.75 37.0362C103.212 37.0362 101.144 34.9682 101.144 32.4302C101.144 29.8922 103.212 27.8242 105.75 27.8242C108.288 27.8242 110.356 29.8922 110.356 32.4302Z" fill="#4534B8"/>
<path d="M359.644 102.93C356.072 108.288 346.954 107.348 343.382 112.8C341.126 116.278 342.16 120.978 344.228 124.55C346.296 128.122 349.21 131.224 350.808 134.984C351.466 136.488 351.842 138.274 351.278 139.872C350.244 142.504 346.86 143.068 344.04 143.256C337.93 143.538 331.538 143.35 326.18 140.342C322.044 138.086 318.848 133.762 318.378 129.25C319.318 128.968 320.164 128.686 321.01 128.31C322.232 127.746 323.454 126.994 324.112 125.772C324.77 124.55 324.676 122.858 323.548 122.106C321.762 120.884 319.412 123.046 318.754 125.114C318.378 126.524 318.19 127.84 318.378 129.25C314.336 130.472 309.824 130.472 305.594 130.096C299.202 129.626 292.152 127.84 288.956 122.294C286.888 118.628 287.17 113.74 289.708 110.356C292.246 106.972 296.758 105.28 300.894 106.126C300.518 103.306 297.604 101.52 294.878 100.58C292.152 99.6396 289.05 99.0756 287.264 96.8196C285.008 93.9996 285.572 89.8636 286.794 86.5736C288.11 83.1896 289.99 79.8996 289.896 76.3276C289.802 71.8156 286.794 67.8676 286.136 63.3556C285.196 56.4936 290.46 49.9136 296.852 47.2816C303.244 44.6496 310.482 44.9316 317.344 45.6836L311.704 47.3756C317.532 47.2816 323.454 47.2816 328.812 49.3496C334.264 51.4176 339.058 55.8356 339.904 61.5696C340.468 65.5176 339.152 69.5596 340.092 73.4136C341.032 77.5496 344.416 80.7456 347.894 83.1896C351.372 85.6336 355.226 87.7956 357.952 91.0856C360.772 94.3756 361.994 99.3576 359.644 102.93Z" fill="black"/>
<path d="M222.968 135.36C222.968 135.36 256.432 174.276 269.498 172.49C271.942 172.114 274.386 171.174 276.83 169.764C284.632 165.158 292.058 156.134 296.006 150.588C297.98 147.862 299.202 146.076 299.202 146.076L304.936 111.39C304.936 111.39 289.238 113.74 283.88 117.03C278.522 120.226 264.516 140.436 264.516 140.436L237.256 116.936C234.812 104.622 210.278 130.848 222.968 135.36Z" fill="#E9E5FF"/>
<path d="M276.736 169.764C284.538 165.158 291.964 156.134 295.912 150.588C292.904 142.316 289.52 133.01 289.52 133.01C286.888 146.546 282.752 158.954 276.736 169.764Z" fill="#12b981"/>
<path d="M270.72 406.361L292.716 394.423L296.946 389.817L321.292 393.295L322.608 411.625C322.796 412.565 322.044 413.505 321.104 413.505H269.78C268.934 413.505 268.182 412.847 268.182 411.907V410.027C268.276 408.429 269.216 407.019 270.72 406.361Z" fill="#12b981"/>
<path d="M296.946 389.818L298.074 373.838L320.634 371.3L321.292 393.296C311.61 397.432 302.492 396.21 296.946 389.818Z" fill="#FFCFC5"/>
<path d="M291.776 402.602C290.178 399.688 287.358 399.406 287.264 399.406L287.358 398.654C287.452 398.654 290.742 399.03 292.528 402.32L291.776 402.602Z" fill="white"/>
<path d="M286.888 405.328C285.29 402.414 282.469 402.132 282.375 402.132L282.469 401.38C282.563 401.38 285.853 401.756 287.639 405.046L286.888 405.328Z" fill="white"/>
<path d="M290.46 374.308C290.742 377.128 290.93 378.726 290.93 378.726L329.564 378.068L332.666 181.796L293.468 188.188C293.374 188.188 290.084 371.676 290.46 374.308Z" fill="#242B2B"/>
<path d="M289.426 365.378C289.896 369.89 290.084 371.676 290.366 374.308L316.122 372.522L289.426 365.378Z" fill="black"/>
<path d="M332.665 378.069C332.383 380.513 330.409 382.486 327.871 382.58L292.245 383.99C289.425 384.084 287.169 381.922 286.981 379.196C286.981 378.914 286.981 378.727 286.981 378.445C287.263 376.001 289.237 374.026 291.775 373.932L327.401 372.522C330.221 372.428 332.477 374.59 332.665 377.316C332.759 377.598 332.759 377.787 332.665 378.069Z" fill="#242B2B"/>
<path d="M333.794 406.362L355.79 394.424L360.02 389.818L384.366 393.296L385.682 411.626C385.87 412.566 385.118 413.506 384.178 413.506H332.76C331.914 413.506 331.162 412.848 331.162 411.908V410.028C331.256 408.43 332.29 407.02 333.794 406.362Z" fill="#12b981"/>
<path d="M360.02 389.818L362.276 369.89L382.392 363.498L384.742 393.296C374.402 397.432 364.532 396.21 360.02 389.818Z" fill="#FFCFC5"/>
<path d="M353.346 402.602C351.748 399.688 348.928 399.406 348.834 399.406L348.928 398.654C349.022 398.654 352.312 399.03 354.098 402.32L353.346 402.602Z" fill="white"/>
<path d="M348.458 405.328C346.86 402.414 344.04 402.132 343.946 402.132L344.04 401.38C344.134 401.38 347.424 401.756 349.21 405.046L348.458 405.328Z" fill="white"/>
<path d="M318.753 188.94C327.025 236.974 347.705 360.49 347.705 360.49L351.559 373.65L352.969 378.538L390.287 375.812C390.287 375.812 366.129 222.028 358.327 186.12L318.753 188.94Z" fill="#242B2B"/>
<path d="M330.974 263.67C328.718 251.826 327.402 243.836 325.24 230.488L324.206 224.19L324.958 224.096L325.992 230.394C328.154 243.648 329.47 251.732 331.726 263.482L330.974 263.67Z" fill="white"/>
<path d="M393.296 375.248C393.108 377.692 391.228 379.76 388.69 379.948L353.158 382.862C350.432 383.05 347.988 380.982 347.706 378.256C347.706 377.974 347.706 377.786 347.706 377.504C347.894 375.06 349.774 372.992 352.312 372.804L387.844 369.89C390.57 369.702 393.014 371.77 393.296 374.496C393.296 374.778 393.296 375.06 393.296 375.248Z" fill="#242B2B"/>
<path d="M287.17 198.34C290.836 212.722 361.524 205.296 363.404 200.126C370.078 195.614 368.48 187.718 363.498 186.402C363.404 176.438 362.37 126.994 356.73 118.722C347.894 105.844 298.45 104.904 291.494 120.414C287.64 128.874 289.238 178.506 289.614 187.812C289.426 188.282 289.332 188.658 289.144 189.034C287.828 192.512 286.512 195.614 287.17 198.34Z" fill="#E9E5FF"/>
<path d="M349.773 148.333C351.089 154.255 361.335 169.577 363.215 172.491C363.027 167.509 362.839 161.681 362.463 155.665C357.481 147.393 348.739 133.011 348.739 133.011C348.739 133.011 348.269 141.847 349.773 148.333Z" fill="#12b981"/>
<path d="M287.545 193.641C298.073 194.111 317.813 192.419 317.813 192.419C303.243 192.983 289.613 187.719 289.613 187.719C288.767 190.163 288.015 192.043 287.545 193.641Z" fill="#12b981"/>
<path d="M348.552 363.592L351.466 373.65L374.496 371.3L348.552 363.592Z" fill="black"/>
<path d="M341.689 188.282C352.029 189.786 363.497 186.402 363.497 186.402C363.497 186.402 363.497 184.71 363.403 181.796C356.635 185.838 341.689 188.282 341.689 188.282Z" fill="#12b981"/>
<path d="M353.534 115.526C353.534 115.526 360.96 118.816 370.736 131.13C375.718 137.334 392.732 164.406 391.134 175.498C388.502 194.392 363.498 230.488 363.498 230.488C359.55 234.906 345.262 220.054 349.21 215.542L368.48 175.592C368.48 175.592 351.09 148.52 349.21 138.744C346.766 125.49 353.534 115.526 353.534 115.526Z" fill="#E9E5FF"/>
<path d="M350.62 217.234C350.62 217.234 337.272 221.746 336.708 226.07C336.05 230.394 344.98 226.07 344.98 226.07L350.62 217.234Z" fill="#FFCFC5"/>
<path d="M332.76 219.772L370.078 235.376C372.522 236.41 373.65 239.136 372.616 241.58L363.404 263.482C362.37 265.926 359.644 267.054 357.2 266.02L319.882 250.416C317.438 249.382 316.31 246.656 317.344 244.212L326.556 222.31C327.59 219.866 330.316 218.738 332.76 219.772Z" fill="#E9E5FF"/>
<path d="M359.08 266.772C358.422 266.772 357.764 266.678 357.106 266.396L319.788 250.792C318.566 250.228 317.532 249.288 317.062 247.972C316.498 246.75 316.592 245.34 317.062 244.024L326.274 222.122C326.838 220.9 327.778 219.866 329.094 219.396C330.316 218.832 331.726 218.926 333.042 219.396L370.36 235C371.582 235.564 372.616 236.504 373.086 237.82C373.556 239.042 373.556 240.452 373.086 241.768L363.874 263.67C362.934 265.644 361.054 266.772 359.08 266.772ZM330.88 219.772C330.316 219.772 329.752 219.866 329.188 220.054C328.154 220.524 327.308 221.37 326.838 222.404L317.626 244.306C317.156 245.34 317.156 246.562 317.626 247.596C318.096 248.63 318.942 249.476 319.976 249.946L357.294 265.55C359.456 266.49 362.088 265.456 362.934 263.2L372.146 241.298C372.616 240.264 372.616 239.042 372.146 238.008C371.676 236.974 370.83 236.128 369.796 235.658L332.478 220.054C332.102 219.866 331.444 219.772 330.88 219.772Z" fill="#E9E5FF"/>
<path d="M331.632 222.311L368.95 237.915C371.394 238.949 372.522 241.675 371.488 244.119L362.276 266.021C361.242 268.465 358.516 269.593 356.072 268.559L318.754 252.955C316.31 251.921 315.182 249.195 316.216 246.751L325.428 224.849C326.462 222.405 329.282 221.277 331.632 222.311Z" fill="#12b981"/>
<path d="M357.952 269.311C357.294 269.311 356.636 269.217 355.978 268.935L318.66 253.331C317.438 252.767 316.404 251.827 315.934 250.511C315.37 249.289 315.464 247.879 315.934 246.563L325.146 224.661C326.274 222.029 329.282 220.807 331.82 221.935L369.138 237.539C370.36 238.103 371.394 239.043 371.864 240.359C372.334 241.581 372.334 242.991 371.864 244.307L362.652 266.209C361.9 268.183 359.926 269.311 357.952 269.311ZM329.846 222.311C328.154 222.311 326.556 223.345 325.804 224.943L316.592 246.845C316.122 247.879 316.122 249.101 316.592 250.135C317.062 251.169 317.908 252.015 318.942 252.485L356.26 268.089C358.516 269.029 361.054 267.995 361.9 265.739L371.112 243.837C371.582 242.803 371.582 241.581 371.112 240.547C370.642 239.513 369.796 238.667 368.762 238.197L331.444 222.593C330.974 222.499 330.41 222.311 329.846 222.311Z" fill="#E9E5FF"/>
<path d="M344.98 226.07C344.98 226.07 334.546 236.598 336.52 239.23C338.024 241.298 339.998 238.196 341.69 236.41C339.904 238.76 338.212 244.024 339.246 244.776C341.972 246.844 345.262 240.358 346.39 238.572C345.356 240.358 343.664 246.28 344.792 246.75C346.86 247.596 349.868 242.426 351.372 240.17C350.056 242.144 350.526 246.656 351.56 246.468C355.038 245.904 362.84 227.856 362.84 227.856C365.19 224.754 352.876 214.132 350.526 217.14L344.98 226.07Z" fill="#FFCFC5"/>
<path d="M233.402 118.628C233.402 118.628 226.634 101.708 223.25 101.05C220.712 100.58 221.182 108.288 221.182 108.288C221.182 108.288 202.57 92.0258 200.596 94.3758C198.622 96.7258 209.526 104.81 209.526 104.81C209.526 104.81 206.8 103.776 206.142 105.656C205.484 107.536 207.176 108.476 207.176 108.476C207.176 108.476 205.296 107.724 204.262 109.04C203.228 110.356 205.014 112.142 205.014 112.142C205.014 112.142 203.04 112.33 203.322 114.492C203.792 117.5 216.67 127.182 218.55 128.216C220.43 129.25 222.686 130.66 222.686 130.66C225.506 133.292 236.222 121.26 233.402 118.628Z" fill="#FFCFC5"/>
<path d="M215.448 114.773C213.192 114.773 207.458 109.321 206.706 108.757L207.27 108.193C209.714 110.543 214.132 114.115 215.448 114.021C215.542 114.021 215.636 113.927 215.636 113.927C215.824 113.551 215.918 113.175 215.824 112.799C215.448 110.637 211.688 108.099 211.688 108.099L212.158 107.441C212.346 107.535 216.2 110.167 216.576 112.611C216.67 113.269 216.576 113.833 216.2 114.303C216.012 114.585 215.824 114.679 215.448 114.679C215.542 114.773 215.542 114.773 215.448 114.773Z" fill="#FFB29F"/>
<path d="M213.098 118.063C210.372 118.063 205.39 112.705 204.826 112.047L205.39 111.483C206.894 113.175 211.312 117.499 213.192 117.217C213.474 117.217 213.662 117.029 213.756 116.841C214.414 115.807 213.004 114.021 212.44 113.457L213.004 112.893C213.098 112.987 215.448 115.431 214.414 117.217C214.132 117.687 213.756 117.969 213.192 117.969C213.192 118.063 213.192 118.063 213.098 118.063Z" fill="#FFB29F"/>
<path d="M212.252 121.26C210.09 121.26 206.33 118.816 205.86 118.534L206.33 117.876C207.552 118.722 211.124 120.79 212.534 120.508C212.722 120.414 212.816 120.32 212.91 120.226C213.098 119.85 213.192 119.568 213.098 119.192C212.91 118.346 211.876 117.688 211.5 117.5L211.876 116.842C211.97 116.842 213.474 117.688 213.756 119.004C213.944 119.568 213.85 120.132 213.568 120.602C213.38 120.884 213.098 121.166 212.722 121.26C212.534 121.26 212.346 121.26 212.252 121.26Z" fill="#FFB29F"/>
<path d="M224.378 116.748C220.054 114.774 220.712 108.476 220.806 108.288L221.558 108.382C221.558 108.476 220.9 114.398 224.754 116.09L224.378 116.748Z" fill="#FFB29F"/>
<path d="M304.372 128.404C308.79 130.754 312.268 123.61 312.268 123.61L313.678 110.262L311.986 106.408H309.26L302.868 111.484C302.962 111.484 299.954 125.96 304.372 128.404Z" fill="#12b981"/>
<path d="M312.362 123.61C312.362 123.61 316.592 132.446 320.822 130.848C325.052 129.25 334.17 109.604 334.17 109.604L328.248 104.528L318.942 106.502L316.498 115.056L312.362 123.61Z" fill="#12b981"/>
<path d="M328.342 104.434C323.454 111.108 317.72 119.192 312.268 123.516C310.576 118.252 308.602 114.868 309.166 108.664L328.342 104.434Z" fill="#FFCFC5"/>
<path d="M309.26 108.758L328.342 104.434L327.214 80.4639L325.616 83.0019L325.146 83.9419L324.864 84.3179L324.582 84.4119L309.918 91.8379V92.0259L309.73 103.776V103.87L309.26 108.758Z" fill="#FFCFC5"/>
<path d="M309.73 103.776V103.87C313.302 101.426 322.232 94.4697 324.77 85.5397C324.958 84.9757 325.052 84.4117 325.146 83.9417C325.146 83.7537 325.146 83.6597 325.24 83.4717L324.676 84.4117L324.488 84.6937L309.918 91.9317L309.73 103.776Z" fill="#FC9B88"/>
<path d="M332.102 78.3019C330.786 79.7119 329.094 80.6519 327.59 80.8399C327.59 80.8399 327.59 80.8399 327.496 80.8399C327.308 80.8399 327.214 80.8399 327.214 80.8399C327.026 80.8399 326.932 80.8399 326.744 80.8399C323.172 91.6499 314.336 98.5119 306.44 97.3839C298.638 96.2559 290.366 84.2239 292.622 70.7819C293.28 67.0219 294.408 63.5439 295.912 60.5359C296.476 59.4079 297.134 58.3739 297.792 57.4339C301.834 51.5119 310.2 48.0339 315.746 48.8799C323.266 50.1019 328.248 58.7499 328.436 69.2779C330.128 68.7139 331.726 68.9959 332.854 70.0299C334.922 72.0039 334.546 75.6699 332.102 78.3019Z" fill="#FFCFC5"/>
<path d="M302.022 70.3115L297.792 82.1555L303.714 83.4715L302.022 70.3115Z" fill="#FC9B88"/>
<path d="M338.024 76.8924C337.178 79.9004 329.188 80.6524 327.496 80.8404C329.094 80.6524 330.692 79.8064 332.008 78.3024C334.452 75.5764 334.828 71.9104 332.854 70.1244C331.726 69.0904 330.128 68.8084 328.436 69.3724C328.436 69.3724 326.368 69.5604 326.086 72.5684C325.804 75.5764 324.488 73.6024 324.488 73.6024V65.6124C324.488 65.6124 302.492 65.3304 295.912 60.6304C294.22 59.4084 293.562 57.9984 294.408 56.1184C298.732 47.0004 304.936 44.6504 313.208 44.8384C321.386 45.0264 329.564 51.7004 329.564 51.7004L332.384 64.0144C332.384 64.0144 338.964 73.6024 338.024 76.8924Z" fill="black"/>
<path d="M224.284 193.734H156.416C152.75 193.734 149.836 190.82 149.836 187.154V161.868C149.836 158.202 152.75 155.288 156.416 155.288H224.284C227.95 155.288 230.864 158.202 230.864 161.868V187.154C230.864 190.82 227.856 193.734 224.284 193.734Z" fill="#12b981"/>
<path d="M225.412 194.11H155.194C151.998 194.11 149.366 191.478 149.366 188.282V160.552C149.366 157.356 151.998 154.724 155.194 154.724H225.412C228.608 154.724 231.24 157.356 231.24 160.552V188.282C231.24 191.572 228.608 194.11 225.412 194.11ZM155.194 155.664C152.468 155.664 150.212 157.92 150.212 160.646V188.376C150.212 191.102 152.468 193.358 155.194 193.358H225.412C228.138 193.358 230.394 191.102 230.394 188.376V160.646C230.394 157.92 228.138 155.664 225.412 155.664H155.194Z" fill="#12b981"/>
<path d="M123.798 134.514C123.422 134.514 123.046 134.326 122.67 134.044L119.756 131.13C119.192 130.566 119.192 129.532 119.756 128.968C120.32 128.404 121.354 128.404 121.918 128.968L123.704 130.754L130.754 123.704C131.318 123.14 132.352 123.14 132.916 123.704C133.48 124.268 133.48 125.302 132.916 125.866L124.738 134.044C124.644 134.326 124.268 134.514 123.798 134.514Z" fill="white"/>
<path d="M164.594 119.004H146.734V123.892H164.594V119.004Z" fill="white"/>
<path d="M203.698 128.028H146.734V130.002H203.698V128.028Z" fill="white"/>
<path d="M163.278 134.044H146.734V136.018H163.278V134.044Z" fill="white"/>
<path d="M186.872 134.044H174.182V136.018H186.872V134.044Z" fill="white"/>
<path d="M182.172 175.592C182.172 182.736 176.438 188.47 169.294 188.47C162.15 188.47 156.416 182.736 156.416 175.592C156.416 168.448 162.15 162.714 169.294 162.714C176.438 162.714 182.172 168.448 182.172 175.592Z" fill="#4534B8"/>
<path d="M166.662 181.232C166.286 181.232 165.91 181.044 165.534 180.762L162.62 177.848C162.056 177.284 162.056 176.25 162.62 175.686C163.184 175.122 164.218 175.122 164.782 175.686L166.568 177.472L173.618 170.422C174.182 169.858 175.216 169.858 175.78 170.422C176.344 170.986 176.344 172.02 175.78 172.584L167.602 180.762C167.508 181.044 167.132 181.232 166.662 181.232Z" fill="white"/>
<path d="M207.458 165.816H189.598V170.704H207.458V165.816Z" fill="white"/>
<path d="M216.106 174.746H189.598V176.72H216.106V174.746Z" fill="white"/>
<path d="M199.844 180.762H189.598V182.736H199.844V180.762Z" fill="white"/>
<path d="M79.7121 127.182H20.1161C14.9461 127.182 10.8101 122.952 10.8101 117.876V72.098C10.8101 66.928 15.0401 62.792 20.1161 62.792H79.7121C84.8821 62.792 89.0181 67.022 89.0181 72.098V117.782C89.0181 122.952 84.8821 127.182 79.7121 127.182Z" fill="#12b981"/>
<path d="M81.4038 127.558H18.4238C14.0058 127.558 10.3398 123.986 10.3398 119.474V70.4063C10.3398 65.9883 13.9118 62.3223 18.4238 62.3223H81.4038C85.8218 62.3223 89.4878 65.8943 89.4878 70.4063V119.474C89.3938 123.892 85.8218 127.558 81.4038 127.558ZM18.4238 63.1683C14.3818 63.1683 11.1858 66.4583 11.1858 70.4063V119.474C11.1858 123.516 14.4758 126.712 18.4238 126.712H81.4038C85.4458 126.712 88.6418 123.422 88.6418 119.474V70.4063C88.6418 66.3643 85.3518 63.1683 81.4038 63.1683H18.4238Z" fill="#12b981"/>
<path d="M32.806 91.8379H22.748V116.184H32.806V91.8379Z" fill="white"/>
<path d="M47.5639 77.9258H37.5059V116.184H47.5639V77.9258Z" fill="white"/>
<path d="M62.3217 101.144H52.2637V116.278H62.3217V101.144Z" fill="white"/>
<path d="M77.08 73.6963H67.022V116.184H77.08V73.6963Z" fill="white"/>
<path d="M125.302 243.836H36.096C28.858 243.836 22.936 237.914 22.936 230.676V188.658C22.936 181.42 28.858 175.498 36.096 175.498H125.302C132.54 175.498 138.462 181.42 138.462 188.658V230.676C138.462 238.008 132.54 243.836 125.302 243.836Z" fill="#12b981"/>
<path d="M125.302 244.306H36.0961C28.5761 244.306 22.5601 238.196 22.5601 230.77V188.752C22.5601 181.232 28.6701 175.216 36.0961 175.216H125.302C132.822 175.216 138.838 181.326 138.838 188.752V230.77C138.838 238.196 132.822 244.306 125.302 244.306ZM36.0961 175.874C29.0461 175.874 23.3121 181.608 23.3121 188.658V230.676C23.3121 237.726 29.0461 243.46 36.0961 243.46H125.302C132.352 243.46 138.086 237.726 138.086 230.676V188.658C138.086 181.608 132.352 175.874 125.302 175.874H36.0961Z" fill="#12b981"/>
<path d="M76.1398 198.998C72.4738 190.538 64.0138 184.71 54.2378 184.71C41.0778 184.71 30.3618 195.426 30.3618 208.586C30.3618 217.986 35.7198 226.07 43.6158 230.018C46.8118 231.616 50.4778 232.556 54.2378 232.556C67.3978 232.556 78.1138 221.84 78.1138 208.68C78.1138 205.108 77.4558 201.912 76.1398 198.998ZM54.2378 220.43C52.3578 220.43 50.5718 219.96 48.9738 219.208C45.0258 217.234 42.3938 213.192 42.3938 208.586C42.3938 202.006 47.7518 196.648 54.3318 196.648C59.2198 196.648 63.3558 199.562 65.2358 203.792C65.8938 205.296 66.2698 206.894 66.2698 208.586C66.0818 215.166 60.8178 220.43 54.2378 220.43Z" fill="#4534B8"/>
<path d="M76.1398 198.998L65.1418 203.792C63.2618 199.562 59.1258 196.648 54.2378 196.648V184.616C64.0138 184.616 72.4738 190.538 76.1398 198.998Z" fill="white"/>
<path d="M78.1137 208.586C78.1137 221.746 67.3977 232.462 54.2377 232.462C50.3837 232.462 46.8117 231.522 43.6157 229.924L48.9737 219.208C50.5717 220.054 52.3577 220.43 54.2377 220.43C60.8177 220.43 66.1757 215.072 66.1757 208.492C66.1757 206.8 65.7997 205.202 65.1417 203.698L76.1397 198.904C77.4557 201.912 78.1137 205.108 78.1137 208.586Z" fill="white"/>
<path d="M102.836 187.906H86.5737V199.186H102.836V187.906Z" fill="white"/>
<path d="M121.73 205.766H86.5737V211.5H121.73V205.766Z" fill="white"/>
<path d="M95.7857 217.986H86.5737V223.72H95.7857V217.986Z" fill="white"/>
<path d="M108.946 217.986H101.52V223.72H108.946V217.986Z" fill="white"/>
<path d="M365.66 67.5856C365.942 63.9196 364.814 60.1596 362.652 57.1516C359.174 52.2636 357.67 45.9656 359.174 39.6676C361.806 28.1996 372.992 21.0556 384.554 23.4056C396.21 25.8496 403.73 37.2236 401.286 48.8796C399.97 55.1776 396.116 60.2536 390.946 63.1676C387.75 65.0476 385.4 67.9616 384.272 71.4396L365.66 67.5856Z" fill="#E9E5FF"/>
<path d="M384.554 71.91L365.284 67.962V67.586C365.566 64.014 364.532 60.442 362.276 57.434C358.61 52.264 357.294 45.778 358.704 39.574C361.43 27.918 372.804 20.586 384.554 23.03C396.398 25.474 404.106 37.13 401.662 48.974C400.44 55.084 396.586 60.442 391.134 63.544C388.126 65.33 385.776 68.15 384.648 71.534L384.554 71.91ZM366.036 67.304L383.99 70.97C385.212 67.492 387.656 64.672 390.758 62.792C395.928 59.784 399.688 54.614 400.91 48.786C403.26 37.318 395.834 26.132 384.46 23.782C373.086 21.432 362.182 28.482 359.55 39.762C358.14 45.684 359.456 51.982 363.028 56.964C365.19 60.066 366.224 63.732 366.036 67.304Z" fill="#E9E5FF"/>
<g opacity="0.15">
<path d="M380.136 60.8179C389.117 60.8179 396.398 53.5372 396.398 44.5559C396.398 35.5747 389.117 28.2939 380.136 28.2939C371.155 28.2939 363.874 35.5747 363.874 44.5559C363.874 53.5372 371.155 60.8179 380.136 60.8179Z" fill="#E9E5FF"/>
</g>
<g opacity="0.15">
<path d="M390.57 49.2868C393.186 43.5188 390.632 36.7219 384.864 34.1055C379.096 31.4891 372.299 34.044 369.682 39.812C367.066 45.58 369.621 52.3769 375.389 54.9933C381.157 57.6097 387.954 55.0548 390.57 49.2868Z" fill="#4534B8"/>
</g>
<path d="M385.306 15.7919L384.742 18.4239C384.648 18.9879 384.93 19.4579 385.494 19.5519C386.058 19.6459 386.528 19.3639 386.622 18.7999L387.186 16.1679C387.28 15.6039 386.998 15.1339 386.434 15.0399C386.152 14.9459 385.87 15.0399 385.682 15.1339C385.494 15.3219 385.4 15.5099 385.306 15.7919Z" fill="#E9E5FF"/>
<path d="M399.5 22.3721L397.714 24.3461C397.338 24.7221 397.432 25.3801 397.808 25.7561C398.184 26.1321 398.842 26.0381 399.218 25.6621L401.004 23.6881C401.38 23.3121 401.286 22.6541 400.91 22.2781C400.722 22.0901 400.44 21.9961 400.158 21.9961C399.876 21.9961 399.688 22.1841 399.5 22.3721Z" fill="#E9E5FF"/>
<path d="M408.43 35.0624L405.892 35.9084C405.422 36.0964 405.14 36.6604 405.234 37.1304C405.422 37.6004 405.986 37.8824 406.456 37.7884L408.994 36.9424C409.464 36.7544 409.746 36.1904 409.652 35.7204C409.558 35.4384 409.37 35.2504 409.182 35.1564C408.994 35.0624 408.712 34.9684 408.43 35.0624Z" fill="#E9E5FF"/>
<path d="M409.84 50.572L407.208 50.008C406.644 49.914 406.174 50.196 406.08 50.76C405.986 51.324 406.268 51.794 406.832 51.888L409.464 52.452C410.028 52.546 410.498 52.264 410.592 51.7C410.686 51.418 410.592 51.136 410.498 50.948C410.31 50.854 410.122 50.666 409.84 50.572Z" fill="#E9E5FF"/>
<path d="M350.526 40.3255L353.158 40.8895C353.722 40.9835 354.192 40.7015 354.286 40.1375C354.38 39.5735 354.098 39.1035 353.534 39.0095L350.902 38.4455C350.338 38.3515 349.868 38.6335 349.774 39.1975C349.68 39.4795 349.774 39.7615 349.868 39.9495C350.056 40.1375 350.244 40.3255 350.526 40.3255Z" fill="#E9E5FF"/>
<path d="M357.106 26.2258L359.08 28.0118C359.456 28.3878 360.114 28.2938 360.49 27.9178C360.866 27.5418 360.772 26.8838 360.396 26.5078L358.422 24.7218C358.046 24.3458 357.388 24.4398 357.012 24.8158C356.824 25.0038 356.73 25.2858 356.73 25.5678C356.73 25.7558 356.918 26.0378 357.106 26.2258Z" fill="#E9E5FF"/>
<path d="M369.796 17.2019L370.642 19.7399C370.83 20.2099 371.394 20.4919 371.864 20.3979C372.334 20.2099 372.616 19.6459 372.522 19.1759L371.676 16.6379C371.488 16.1679 370.924 15.8859 370.454 15.9799C370.172 16.0739 369.984 16.2619 369.89 16.4499C369.796 16.7319 369.702 17.0139 369.796 17.2019Z" fill="#E9E5FF"/>
<path d="M378.538 70.7821C378.256 70.6881 378.068 70.5001 378.162 70.3121L381.264 57.058C381.358 56.494 381.64 56.024 382.11 55.648L386.058 51.982C385.682 51.7 385.494 51.324 385.306 51.042C385.024 50.666 384.93 50.2901 384.366 50.1961C383.896 50.1021 383.614 50.29 383.238 50.572C382.862 50.854 382.298 51.2301 381.452 51.1361C380.606 50.9481 380.324 50.384 380.042 50.008C379.76 49.632 379.666 49.256 379.102 49.162C378.632 49.068 378.35 49.256 377.974 49.538C377.598 49.82 377.034 50.196 376.188 50.102C375.342 49.914 375.06 49.35 374.778 48.974C374.496 48.598 374.402 48.222 373.838 48.128C373.368 48.034 373.086 48.222 372.71 48.504C372.428 48.692 372.052 48.974 371.582 49.068L373.744 54.05C373.932 54.614 374.026 55.178 373.932 55.742L371.582 69.184C371.582 69.372 371.3 69.56 371.112 69.466C370.924 69.466 370.736 69.184 370.83 68.996L373.18 55.554C373.274 55.178 373.18 54.708 372.992 54.332L370.548 48.7861C370.454 48.692 370.548 48.504 370.642 48.41C370.736 48.316 370.924 48.2221 371.018 48.3161C371.488 48.4101 371.77 48.222 372.146 47.94C372.522 47.658 373.086 47.2821 373.932 47.3761C374.778 47.5641 375.06 48.128 375.342 48.504C375.624 48.88 375.718 49.256 376.282 49.35C376.752 49.444 377.034 49.256 377.41 48.974C377.786 48.692 378.35 48.316 379.196 48.41C380.042 48.598 380.324 49.162 380.606 49.538C380.888 49.914 380.982 50.29 381.546 50.384C382.016 50.478 382.298 50.29 382.674 50.008C383.05 49.726 383.614 49.35 384.46 49.444C385.306 49.632 385.588 50.196 385.87 50.572C386.152 50.948 386.246 51.324 386.81 51.418C386.998 51.418 387.092 51.512 387.092 51.7C387.092 51.794 387.092 51.982 386.998 52.0761L382.58 56.212C382.298 56.494 382.11 56.87 382.016 57.246L378.914 70.5C378.914 70.594 378.726 70.7821 378.538 70.7821Z" fill="#E9E5FF"/>
<path d="M375.261 81.864C378.569 80.2378 379.932 76.238 378.306 72.9302C376.68 69.6224 372.68 68.2593 369.372 69.8855C366.064 71.5117 364.701 75.5116 366.327 78.8193C367.954 82.1271 371.953 83.4902 375.261 81.864Z" fill="#E9E5FF"/>
<path d="M386.622 71.4396L385.588 76.3276C385.306 77.7376 383.896 78.6776 382.392 78.3956L363.968 74.6356C362.558 74.3536 361.618 72.9436 361.9 71.4396L362.934 66.5516C363.216 65.1416 364.626 64.2016 366.13 64.4836L384.554 68.2436C385.964 68.6196 386.904 70.0296 386.622 71.4396Z" fill="#E9E5FF"/>
<path d="M382.956 78.8655C382.768 78.8655 382.58 78.8655 382.298 78.7715L363.874 75.0115C362.182 74.6355 361.148 73.0375 361.524 71.3455L362.558 66.4574C362.746 65.6114 363.216 64.9534 363.874 64.4834C364.532 64.0134 365.378 63.8254 366.224 64.0134L384.648 67.7734C386.34 68.1494 387.374 69.7474 386.998 71.4394L385.964 76.3274C385.682 77.9254 384.46 78.8655 382.956 78.8655ZM365.566 64.7655C364.532 64.7655 363.498 65.5175 363.31 66.6455L362.276 71.5334C361.994 72.7554 362.84 73.9775 364.062 74.2594L382.486 78.0195C383.708 78.3015 384.93 77.4554 385.212 76.2334L386.246 71.3455C386.528 70.1235 385.682 68.9014 384.46 68.6194L366.036 64.8594C365.942 64.8594 365.754 64.7655 365.566 64.7655Z" fill="#E9E5FF"/>
</svg>
