<svg width="473" height="327" viewBox="0 0 473 327" fill="none" xmlns="http://www.w3.org/2000/svg">
<path d="M454.086 1H37.7935C27.5691 1 19.2806 9.25513 19.2806 19.4383V307.773C19.2806 317.956 27.5691 326.211 37.7935 326.211H454.086C464.31 326.211 472.599 317.956 472.599 307.773V19.4383C472.599 9.25513 464.31 1 454.086 1Z" fill="#0B5243"/>
<path d="M449.766 1H33.4739C23.2495 1 14.961 9.25513 14.961 19.4383V307.773C14.961 317.956 23.2495 326.211 33.4739 326.211H449.766C459.991 326.211 468.279 317.956 468.279 307.773V19.4383C468.279 9.25513 459.991 1 449.766 1Z" fill="white" stroke="#0B5243" stroke-width="0.75" stroke-miterlimit="10"/>
<path d="M444.465 46.754H340.146C333.987 46.754 328.994 51.7269 328.994 57.8612V208.218C328.994 214.353 333.987 219.326 340.146 219.326H444.465C450.624 219.326 455.617 214.353 455.617 208.218V57.8612C455.617 51.7269 450.624 46.754 444.465 46.754Z" fill="#CBEDE1"/>
<path d="M431.57 39.3599H321.2C315.053 39.3599 310.07 44.3233 310.07 50.446V192.283C310.07 198.406 315.053 203.37 321.2 203.37H431.57C437.718 203.37 442.701 198.406 442.701 192.283V50.446C442.701 44.3233 437.718 39.3599 431.57 39.3599Z" fill="white" stroke="#0B5243" stroke-width="0.75" stroke-miterlimit="10"/>
<path d="M138.142 52.0132H33.8231C27.6639 52.0132 22.671 56.986 22.671 63.1204V302.777C22.671 308.911 27.6639 313.884 33.8231 313.884H138.142C144.301 313.884 149.294 308.911 149.294 302.777V63.1204C149.294 56.986 144.301 52.0132 138.142 52.0132Z" fill="#CBEDE1"/>
<path d="M288.019 46.754H183.7C177.541 46.754 172.548 51.7269 172.548 57.8612V152.178C172.548 158.312 177.541 163.285 183.7 163.285H288.019C294.178 163.285 299.171 158.312 299.171 152.178V57.8612C299.171 51.7269 294.178 46.754 288.019 46.754Z" fill="#CBEDE1"/>
<path d="M37.7829 1H454.086C464.298 1 472.599 9.25676 472.599 19.4383V29.4201H19.2806V19.4383C19.2806 9.25676 27.5707 1 37.7829 1Z" fill="#0B5243"/>
<path d="M33.4739 1H449.777C459.989 1 468.29 9.25676 468.29 19.4383V29.4201H14.961V19.4383C14.961 9.25676 23.2617 1 33.4739 1Z" fill="#CBEDE1" stroke="#0B5243" stroke-width="0.75" stroke-miterlimit="10"/>
<path d="M37.3394 21.6892C40.5823 21.6892 43.2111 19.071 43.2111 15.8411C43.2111 12.6113 40.5823 9.99304 37.3394 9.99304C34.0965 9.99304 31.4677 12.6113 31.4677 15.8411C31.4677 19.071 34.0965 21.6892 37.3394 21.6892Z" fill="#FBF9ED" stroke="#0B5243" stroke-width="0.75" stroke-miterlimit="10"/>
<path d="M54.9546 21.6892C58.1975 21.6892 60.8264 19.071 60.8264 15.8411C60.8264 12.6113 58.1975 9.99304 54.9546 9.99304C51.7118 9.99304 49.0829 12.6113 49.0829 15.8411C49.0829 19.071 51.7118 21.6892 54.9546 21.6892Z" fill="#FBF9ED" stroke="#0B5243" stroke-width="0.75" stroke-miterlimit="10"/>
<path d="M72.5699 21.6892C75.8127 21.6892 78.4416 19.071 78.4416 15.8411C78.4416 12.6113 75.8127 9.99304 72.5699 9.99304C69.327 9.99304 66.6981 12.6113 66.6981 15.8411C66.6981 19.071 69.327 21.6892 72.5699 21.6892Z" fill="#FBF9ED" stroke="#0B5243" stroke-width="0.75" stroke-miterlimit="10"/>
<path d="M276.803 40.2644H166.476C160.317 40.2644 155.324 45.2373 155.324 51.3716V138.651C155.324 144.786 160.317 149.758 166.476 149.758H276.803C282.962 149.758 287.955 144.786 287.955 138.651V51.3716C287.955 45.2373 282.962 40.2644 276.803 40.2644Z" fill="white" stroke="#0B5243" stroke-width="0.75" stroke-miterlimit="10"/>
<path d="M272.854 71.5559H170.996C167.601 71.5559 164.85 74.2966 164.85 77.6775V125.377C164.85 128.758 167.601 131.499 170.996 131.499H272.854C276.248 131.499 279 128.758 279 125.377V77.6775C279 74.2966 276.248 71.5559 272.854 71.5559Z" fill="#CBEDE1"/>
<path d="M122.48 40.8113H12.1521C5.99297 40.8113 1 45.7841 1 51.9185V291.575C1 297.709 5.99297 302.682 12.1521 302.682H122.48C128.639 302.682 133.632 297.709 133.632 291.575V51.9185C133.632 45.7841 128.639 40.8113 122.48 40.8113Z" fill="white" stroke="#0B5243" stroke-width="0.75" stroke-miterlimit="10"/>
<path d="M117.632 72.1028H15.7744C12.3799 72.1028 9.62811 74.8435 9.62811 78.2244V125.924C9.62811 129.305 12.3799 132.046 15.7744 132.046H117.632C121.027 132.046 123.779 129.305 123.779 125.924V78.2244C123.779 74.8435 121.027 72.1028 117.632 72.1028Z" fill="#CBEDE1"/>
<path d="M117.632 259.21H15.7744C12.3799 259.21 9.62811 261.951 9.62811 265.332V286.242C9.62811 289.623 12.3799 292.364 15.7744 292.364H117.632C121.027 292.364 123.779 289.623 123.779 286.242V265.332C123.779 261.951 121.027 259.21 117.632 259.21Z" fill="#CBEDE1"/>
<path d="M117.632 141.46H15.7744C12.3799 141.46 9.62811 144.2 9.62811 147.581V242.476C9.62811 245.857 12.3799 248.598 15.7744 248.598H117.632C121.027 248.598 123.779 245.857 123.779 242.476V147.581C123.779 144.2 121.027 141.46 117.632 141.46Z" fill="#CBEDE1"/>
<path d="M15.7639 141.46H117.632C121.022 141.46 123.779 144.205 123.779 147.581V211.826H9.62811V147.581C9.62811 144.205 12.3845 141.46 15.7744 141.46H15.7639Z" fill="#CBEDE1"/>
<path d="M53.6874 52.2866H13.9474C11.5619 52.2866 9.62811 54.2127 9.62811 56.5886C9.62811 58.9644 11.5619 60.8905 13.9474 60.8905H53.6874C56.0729 60.8905 58.0067 58.9644 58.0067 56.5886C58.0067 54.2127 56.0729 52.2866 53.6874 52.2866Z" fill="#0B5243"/>
<path d="M41.2257 80.0967H23.621C21.2355 80.0967 19.3017 82.0227 19.3017 84.3986C19.3017 86.7745 21.2355 88.7005 23.621 88.7005H41.2257C43.6112 88.7005 45.545 86.7745 45.545 84.3986C45.545 82.0227 43.6112 80.0967 41.2257 80.0967Z" fill="#0B5243"/>
<path d="M196.901 79.5497H179.296C176.91 79.5497 174.977 81.4757 174.977 83.8516C174.977 86.2275 176.91 88.1535 179.296 88.1535H196.901C199.286 88.1535 201.22 86.2275 201.22 83.8516C201.22 81.4757 199.286 79.5497 196.901 79.5497Z" fill="#0B5243"/>
<path d="M41.2257 219.315H23.621C21.2355 219.315 19.3017 221.241 19.3017 223.617C19.3017 225.993 21.2355 227.919 23.621 227.919H41.2257C43.6112 227.919 45.545 225.993 45.545 223.617C45.545 221.241 43.6112 219.315 41.2257 219.315Z" fill="#0B5243"/>
<path d="M112.69 95.8318H21.5406C20.3041 95.8318 19.3017 96.8278 19.3017 98.0564C19.3017 99.285 20.3041 100.281 21.5406 100.281H112.69C113.926 100.281 114.929 99.285 114.929 98.0564C114.929 96.8278 113.926 95.8318 112.69 95.8318Z" fill="#83BAA0"/>
<path d="M112.69 106.318H21.5406C20.3041 106.318 19.3017 107.314 19.3017 108.543C19.3017 109.772 20.3041 110.768 21.5406 110.768H112.69C113.926 110.768 114.929 109.772 114.929 108.543C114.929 107.314 113.926 106.318 112.69 106.318Z" fill="#83BAA0"/>
<path d="M112.69 267.699H30.1901C28.9536 267.699 27.9512 268.695 27.9512 269.923C27.9512 271.152 28.9536 272.148 30.1901 272.148H112.69C113.927 272.148 114.929 271.152 114.929 269.923C114.929 268.695 113.927 267.699 112.69 267.699Z" fill="#83BAA0"/>
<path d="M82.5184 278.196H30.1901C28.9536 278.196 27.9512 279.192 27.9512 280.42C27.9512 281.649 28.9536 282.645 30.1901 282.645H82.5184C83.7549 282.645 84.7573 281.649 84.7573 280.42C84.7573 279.192 83.7549 278.196 82.5184 278.196Z" fill="#83BAA0"/>
<path d="M97.2608 233.988H21.5406C20.3041 233.988 19.3017 234.984 19.3017 236.213C19.3017 237.441 20.3041 238.437 21.5406 238.437H97.2608C98.4973 238.437 99.4997 237.441 99.4997 236.213C99.4997 234.984 98.4973 233.988 97.2608 233.988Z" fill="#83BAA0"/>
<path d="M60.3192 116.91H21.5719C20.3354 116.91 19.3331 117.906 19.3331 119.135C19.3331 120.363 20.3354 121.359 21.5719 121.359H60.3192C61.5556 121.359 62.558 120.363 62.558 119.135C62.558 117.906 61.5556 116.91 60.3192 116.91Z" fill="#83BAA0"/>
<path d="M208.909 51.7396H169.169C166.783 51.7396 164.85 53.6657 164.85 56.0416C164.85 58.4174 166.783 60.3435 169.169 60.3435H208.909C211.294 60.3435 213.228 58.4174 213.228 56.0416C213.228 53.6657 211.294 51.7396 208.909 51.7396Z" fill="#0B5243"/>
<path d="M363.042 50.8351H323.302C320.916 50.8351 318.982 52.7611 318.982 55.137C318.982 57.5129 320.916 59.4389 323.302 59.4389H363.042C365.427 59.4389 367.361 57.5129 367.361 55.137C367.361 52.7611 365.427 50.8351 363.042 50.8351Z" fill="#0B5243"/>
<path d="M103.217 197.932C103.217 187.582 94.0714 163.117 80.7861 163.117C68.5779 163.117 59.3584 184.658 59.3584 184.658C59.3584 184.658 55.1764 174.455 47.3826 174.455C37.1598 174.455 31.3937 191.105 31.3937 197.942H103.217V197.932Z" fill="#0CC79F"/>
<path d="M50.2551 166.661C54.612 166.661 58.1439 163.143 58.1439 158.804C58.1439 154.465 54.612 150.947 50.2551 150.947C45.8982 150.947 42.3662 154.465 42.3662 158.804C42.3662 163.143 45.8982 166.661 50.2551 166.661Z" fill="#FBF9ED"/>
<path d="M427.314 69.2944H325.456C322.061 69.2944 319.31 72.0352 319.31 75.416V183.774C319.31 187.155 322.061 189.896 325.456 189.896H427.314C430.708 189.896 433.46 187.155 433.46 183.774V75.416C433.46 72.0352 430.708 69.2944 427.314 69.2944Z" fill="#CBEDE1"/>
<path d="M350.918 147.16H333.314C330.928 147.16 328.994 149.086 328.994 151.462C328.994 153.838 330.928 155.764 333.314 155.764H350.918C353.304 155.764 355.238 153.838 355.238 151.462C355.238 149.086 353.304 147.16 350.918 147.16Z" fill="#0B5243"/>
<path d="M406.953 162.885H331.233C329.997 162.885 328.994 163.881 328.994 165.11C328.994 166.338 329.997 167.334 331.233 167.334H406.953C408.19 167.334 409.192 166.338 409.192 165.11C409.192 163.881 408.19 162.885 406.953 162.885Z" fill="#83BAA0"/>
<path d="M406.953 173.95H331.233C329.997 173.95 328.994 174.946 328.994 176.175C328.994 177.403 329.997 178.399 331.233 178.399H406.953C408.19 178.399 409.192 177.403 409.192 176.175C409.192 174.946 408.19 173.95 406.953 173.95Z" fill="#83BAA0"/>
<path d="M412.909 125.777C412.909 115.427 403.764 90.9619 390.478 90.9619C378.27 90.9619 369.051 112.503 369.051 112.503C369.051 112.503 364.869 102.3 357.075 102.3C346.852 102.3 341.086 118.951 341.086 125.788H412.909V125.777Z" fill="#0CC79F"/>
<path d="M359.937 94.5065C364.294 94.5065 367.826 90.9888 367.826 86.6494C367.826 82.3101 364.294 78.7924 359.937 78.7924C355.58 78.7924 352.048 82.3101 352.048 86.6494C352.048 90.9888 355.58 94.5065 359.937 94.5065Z" fill="#FBF9ED"/>
<path d="M21.5406 272.158C22.7771 272.158 23.7794 271.16 23.7794 269.928C23.7794 268.697 22.7771 267.699 21.5406 267.699C20.3041 267.699 19.3017 268.697 19.3017 269.928C19.3017 271.16 20.3041 272.158 21.5406 272.158Z" fill="#83BAA0"/>
<path d="M21.5406 282.655C22.7771 282.655 23.7794 281.657 23.7794 280.426C23.7794 279.194 22.7771 278.196 21.5406 278.196C20.3041 278.196 19.3017 279.194 19.3017 280.426C19.3017 281.657 20.3041 282.655 21.5406 282.655Z" fill="#83BAA0"/>
<path d="M267.88 94.0542H185.38C184.143 94.0542 183.141 95.0502 183.141 96.2788C183.141 97.5074 184.143 98.5034 185.38 98.5034H267.88C269.116 98.5034 270.119 97.5074 270.119 96.2788C270.119 95.0502 269.116 94.0542 267.88 94.0542Z" fill="#83BAA0"/>
<path d="M237.708 104.551H185.38C184.143 104.551 183.141 105.547 183.141 106.776C183.141 108.005 184.143 109.001 185.38 109.001H237.708C238.944 109.001 239.947 108.005 239.947 106.776C239.947 105.547 238.944 104.551 237.708 104.551Z" fill="#83BAA0"/>
<path d="M176.73 98.5139C177.967 98.5139 178.969 97.5156 178.969 96.2841C178.969 95.0525 177.967 94.0542 176.73 94.0542C175.494 94.0542 174.491 95.0525 174.491 96.2841C174.491 97.5156 175.494 98.5139 176.73 98.5139Z" fill="#83BAA0"/>
<path d="M176.73 109C177.967 109 178.969 108.002 178.969 106.771C178.969 105.539 177.967 104.541 176.73 104.541C175.494 104.541 174.491 105.539 174.491 106.771C174.491 108.002 175.494 109 176.73 109Z" fill="#83BAA0"/>
<path d="M237.708 114.544H185.38C184.143 114.544 183.141 115.54 183.141 116.768C183.141 117.997 184.143 118.993 185.38 118.993H237.708C238.944 118.993 239.947 117.997 239.947 116.768C239.947 115.54 238.944 114.544 237.708 114.544Z" fill="#83BAA0"/>
<path d="M176.73 119.003C177.967 119.003 178.969 118.005 178.969 116.774C178.969 115.542 177.967 114.544 176.73 114.544C175.494 114.544 174.491 115.542 174.491 116.774C174.491 118.005 175.494 119.003 176.73 119.003Z" fill="#83BAA0"/>
</svg>
