<svg width="501" height="461" viewBox="0 0 501 461" fill="none" xmlns="http://www.w3.org/2000/svg">
<g clip-path="url(#clip0_4445_5426)">
<path d="M344.668 402.672V200.9C344.668 192.257 337.662 185.251 329.021 185.251L19.0544 185.251C10.4129 185.251 3.4075 192.257 3.4075 200.9V402.672C3.4075 411.314 10.4129 418.32 19.0544 418.32H329.021C337.662 418.32 344.668 411.314 344.668 402.672Z" fill="#e6f7f1" stroke="#12b981" stroke-width="5" stroke-miterlimit="10"/>
<path opacity="0.9" d="M225.258 445.529H122.817L130.518 418.32H217.557L225.258 445.529Z" fill="#12b981"/>
<path d="M236.611 460.701H111.464C109.45 460.701 107.519 459.901 106.096 458.477C104.672 457.053 103.872 455.122 103.872 453.108C103.876 451.097 104.677 449.169 106.1 447.748C107.524 446.327 109.453 445.529 111.464 445.529H236.611C238.623 445.529 240.551 446.327 241.975 447.748C243.398 449.169 244.2 451.097 244.203 453.108C244.203 455.122 243.403 457.053 241.98 458.477C240.556 459.901 238.625 460.701 236.611 460.701Z" fill="#12b981"/>
<path opacity="0.9" d="M3.40747 376.458V402.699C3.40747 406.849 5.05597 410.83 7.99033 413.764C10.9247 416.699 14.9045 418.348 19.0543 418.348H329.021C333.171 418.348 337.15 416.699 340.085 413.764C343.019 410.83 344.668 406.849 344.668 402.699V376.458H3.40747Z" fill="#12b981"/>
<path d="M328.053 396.496C328.056 397.687 327.705 398.851 327.046 399.841C326.386 400.832 325.448 401.605 324.349 402.061C323.25 402.518 322.04 402.638 320.873 402.407C319.706 402.175 318.634 401.602 317.792 400.761C316.951 399.919 316.378 398.847 316.146 397.679C315.915 396.512 316.035 395.302 316.492 394.203C316.948 393.104 317.721 392.166 318.711 391.506C319.702 390.847 320.866 390.496 322.056 390.499C323.646 390.499 325.172 391.13 326.297 392.255C327.421 393.38 328.053 394.906 328.053 396.496Z" fill="white"/>
<path opacity="0.9" d="M130.518 418.32H217.557L225.258 445.529L130.518 418.32Z" fill="#12b981"/>
<g style="mix-blend-mode:screen">
<path d="M286.714 384.256C285.502 384.252 284.341 383.768 283.485 382.909C282.629 382.051 282.148 380.888 282.148 379.676V330.234C282.148 329.023 282.629 327.862 283.485 327.005C284.342 326.149 285.503 325.668 286.714 325.668C287.925 325.668 289.086 326.149 289.943 327.005C290.799 327.862 291.28 329.023 291.28 330.234V379.676C291.28 380.888 290.799 382.051 289.944 382.909C289.088 383.768 287.926 384.252 286.714 384.256Z" fill="#3D3D3D"/>
</g>
<g style="mix-blend-mode:screen">
<path d="M286.714 384.255C285.502 384.252 284.341 383.767 283.485 382.909C282.629 382.05 282.148 380.887 282.148 379.675V347.832C282.148 346.621 282.629 345.46 283.485 344.603C284.342 343.747 285.503 343.266 286.714 343.266C287.92 343.273 289.075 343.757 289.925 344.613C290.776 345.468 291.253 346.626 291.253 347.832V379.675C291.253 380.883 290.776 382.042 289.926 382.899C289.076 383.757 287.922 384.244 286.714 384.255Z" fill="#3D3D3D"/>
</g>
<g style="mix-blend-mode:screen">
<path d="M286.714 384.256C285.502 384.252 284.341 383.768 283.485 382.909C282.629 382.051 282.148 380.888 282.148 379.675V372.778C282.148 371.566 282.629 370.403 283.485 369.544C284.341 368.685 285.502 368.201 286.714 368.198C287.922 368.209 289.076 368.696 289.926 369.554C290.776 370.411 291.253 371.57 291.253 372.778V379.675C291.253 380.883 290.776 382.042 289.926 382.9C289.076 383.757 287.922 384.245 286.714 384.256Z" fill="#3D3D3D"/>
</g>
<g style="mix-blend-mode:screen">
<path d="M286.714 411.9C285.503 411.9 284.342 411.419 283.486 410.563C282.629 409.706 282.148 408.545 282.148 407.334V400.436C282.146 399.835 282.263 399.24 282.492 398.684C282.72 398.129 283.057 397.624 283.481 397.198C283.905 396.773 284.409 396.435 284.964 396.205C285.519 395.975 286.113 395.856 286.714 395.856C287.315 395.856 287.91 395.975 288.465 396.205C289.019 396.435 289.523 396.773 289.948 397.198C290.372 397.624 290.708 398.129 290.936 398.684C291.165 399.24 291.282 399.835 291.28 400.436V407.334C291.28 408.545 290.799 409.706 289.943 410.563C289.086 411.419 287.925 411.9 286.714 411.9Z" fill="#8F8F8F"/>
</g>
<path d="M494.09 460.973H259.141C257.309 460.973 255.551 460.245 254.255 458.949C252.959 457.653 252.231 455.895 252.231 454.062C252.231 452.229 252.959 450.471 254.255 449.175C255.551 447.879 257.309 447.151 259.141 447.151H494.09C494.997 447.151 495.896 447.33 496.734 447.677C497.573 448.024 498.334 448.533 498.976 449.175C499.618 449.817 500.127 450.579 500.474 451.417C500.821 452.256 501 453.154 501 454.062C501 454.97 500.821 455.868 500.474 456.707C500.127 457.545 499.618 458.307 498.976 458.949C498.334 459.591 497.573 460.1 496.734 460.447C495.896 460.794 494.997 460.973 494.09 460.973Z" fill="#12b981"/>
<mask id="mask0_4445_5426" style="mask-type:luminance" maskUnits="userSpaceOnUse" x="14" y="193" width="319" height="178">
<path d="M21.8348 370.27C20.9363 370.321 20.0364 370.194 19.1873 369.896C18.3381 369.598 17.5564 369.134 16.8873 368.532C16.2183 367.93 15.675 367.202 15.289 366.389C14.903 365.576 14.6818 364.694 14.6383 363.795V200.464C14.6818 199.565 14.903 198.683 15.289 197.87C15.675 197.057 16.2183 196.328 16.8873 195.726C17.5564 195.124 18.3381 194.661 19.1873 194.363C20.0364 194.064 20.9363 193.937 21.8348 193.989H325.777C326.675 193.937 327.575 194.064 328.424 194.363C329.273 194.661 330.055 195.124 330.724 195.726C331.393 196.328 331.937 197.057 332.323 197.87C332.709 198.683 332.93 199.565 332.973 200.464V363.795C332.93 364.694 332.709 365.576 332.323 366.389C331.937 367.202 331.393 367.93 330.724 368.532C330.055 369.134 329.273 369.598 328.424 369.896C327.575 370.194 326.675 370.321 325.777 370.27H21.8348Z" fill="white"/>
</mask>
<g mask="url(#mask0_4445_5426)">
<path d="M333.001 190.635H14.6383V409.883H333.001V190.635Z" fill="#e6f7f1"/>
<path opacity="0.9" d="M333.001 190.635H14.6383V280.371H333.001V190.635Z" fill="#12b981"/>
<path opacity="0.6" d="M127.056 295.352H63.6506V399.795H127.056V295.352Z" fill="#12b981"/>
<path opacity="0.6" d="M283.975 295.352H220.569V399.795H283.975V295.352Z" fill="#12b981"/>
<path opacity="0.6" d="M206.667 295.352H143.262V399.795H206.667V295.352Z" fill="#12b981"/>
<path d="M81.2057 237.241C90.8936 237.241 98.7471 229.386 98.7471 219.697C98.7471 210.008 90.8936 202.154 81.2057 202.154C71.5179 202.154 63.6643 210.008 63.6643 219.697C63.6643 229.386 71.5179 237.241 81.2057 237.241Z" fill="#e6f7f1"/>
<path d="M234.431 210.156H107.743C107.348 210.157 106.958 210.081 106.593 209.931C106.228 209.781 105.897 209.56 105.618 209.281C105.34 209.002 105.119 208.671 104.969 208.306C104.819 207.942 104.742 207.551 104.744 207.157C104.744 206.764 104.822 206.374 104.973 206.011C105.124 205.648 105.345 205.318 105.623 205.041C105.902 204.764 106.233 204.544 106.596 204.395C106.96 204.246 107.35 204.17 107.743 204.171H234.431C235.224 204.171 235.984 204.485 236.546 205.045C237.108 205.604 237.426 206.364 237.429 207.157C237.429 207.952 237.113 208.715 236.551 209.277C235.989 209.84 235.226 210.156 234.431 210.156Z" fill="#e6f7f1"/>
<path d="M193.61 221.06H107.743C107.348 221.062 106.958 220.986 106.593 220.836C106.228 220.686 105.897 220.465 105.618 220.186C105.34 219.907 105.119 219.576 104.969 219.211C104.819 218.846 104.742 218.456 104.744 218.061C104.744 217.266 105.06 216.503 105.622 215.941C106.185 215.378 106.947 215.062 107.743 215.062H193.61C194.404 215.066 195.164 215.383 195.726 215.945C196.288 216.506 196.605 217.267 196.608 218.061C196.608 218.857 196.292 219.62 195.73 220.182C195.168 220.744 194.405 221.06 193.61 221.06Z" fill="#e6f7f1"/>
<g style="mix-blend-mode:screen">
<path d="M102.604 266.249H67.0853C66.1767 266.249 65.3052 265.889 64.6614 265.247C64.0177 264.606 63.6542 263.736 63.6506 262.827C63.6506 261.916 64.0125 261.042 64.6566 260.398C65.3008 259.754 66.1744 259.392 67.0853 259.392H102.604C103.055 259.392 103.501 259.481 103.917 259.654C104.333 259.827 104.71 260.08 105.028 260.399C105.346 260.718 105.598 261.097 105.769 261.514C105.94 261.93 106.027 262.377 106.025 262.827C106.025 263.735 105.665 264.605 105.023 265.247C104.382 265.888 103.512 266.249 102.604 266.249Z" fill="#525252"/>
</g>
<g style="mix-blend-mode:screen">
<path d="M161.021 266.249H125.502C124.595 266.249 123.725 265.888 123.083 265.247C122.442 264.605 122.081 263.735 122.081 262.827C122.079 262.377 122.166 261.93 122.338 261.514C122.509 261.097 122.76 260.718 123.078 260.399C123.396 260.08 123.774 259.827 124.19 259.654C124.606 259.481 125.052 259.392 125.502 259.392H161.021C161.932 259.392 162.806 259.754 163.45 260.398C164.094 261.042 164.456 261.916 164.456 262.827C164.452 263.736 164.089 264.606 163.445 265.247C162.801 265.889 161.93 266.249 161.021 266.249Z" fill="#525252"/>
</g>
<g style="mix-blend-mode:screen">
<path d="M222.123 266.249H186.604C185.696 266.249 184.824 265.889 184.18 265.247C183.536 264.606 183.173 263.736 183.169 262.827C183.169 261.916 183.531 261.042 184.175 260.398C184.82 259.754 185.693 259.392 186.604 259.392H222.123C222.573 259.392 223.019 259.481 223.435 259.654C223.851 259.827 224.229 260.08 224.547 260.399C224.865 260.718 225.116 261.097 225.288 261.514C225.459 261.93 225.546 262.377 225.544 262.827C225.544 263.277 225.456 263.721 225.284 264.137C225.112 264.552 224.86 264.929 224.542 265.247C224.224 265.564 223.847 265.816 223.432 265.988C223.017 266.16 222.572 266.249 222.123 266.249Z" fill="#525252"/>
</g>
<g style="mix-blend-mode:screen">
<path d="M280.554 266.249H245.021C244.114 266.249 243.243 265.888 242.602 265.247C241.96 264.605 241.6 263.735 241.6 262.827C241.598 262.377 241.685 261.93 241.856 261.514C242.027 261.097 242.279 260.718 242.597 260.399C242.915 260.08 243.293 259.827 243.709 259.654C244.125 259.481 244.57 259.392 245.021 259.392H280.554C281.462 259.396 282.332 259.759 282.973 260.403C283.615 261.047 283.975 261.919 283.975 262.827C283.971 263.734 283.609 264.602 282.969 265.243C282.328 265.883 281.46 266.245 280.554 266.249Z" fill="#525252"/>
</g>
<path d="M283.975 241.507L279.3 232.552C280.898 230.598 281.77 228.151 281.767 225.627V225.15C281.767 222.258 280.618 219.484 278.573 217.439C276.528 215.394 273.755 214.245 270.863 214.245H249.805C246.913 214.245 244.14 215.394 242.095 217.439C240.05 219.484 238.901 222.258 238.901 225.15V225.668C238.901 228.56 240.05 231.334 242.095 233.379C244.14 235.424 246.913 236.573 249.805 236.573H270.808C272.324 236.57 273.822 236.254 275.211 235.646L283.975 241.507Z" fill="#e6f7f1"/>
<g style="mix-blend-mode:screen">
<path d="M271.353 224.85H247.27C247.035 224.85 246.809 224.757 246.643 224.591C246.477 224.425 246.384 224.199 246.384 223.964C246.384 223.729 246.477 223.504 246.643 223.338C246.809 223.171 247.035 223.078 247.27 223.078H271.353C271.586 223.082 271.808 223.177 271.971 223.342C272.134 223.508 272.226 223.732 272.226 223.964C272.226 224.197 272.134 224.42 271.971 224.586C271.808 224.752 271.586 224.847 271.353 224.85Z" fill="#e6f7f1"/>
</g>
<g style="mix-blend-mode:screen">
<path d="M271.353 228.122H247.27C247.035 228.122 246.809 228.028 246.643 227.862C246.477 227.696 246.384 227.471 246.384 227.236C246.384 227.001 246.477 226.775 246.643 226.609C246.809 226.443 247.035 226.35 247.27 226.35H271.353C271.586 226.353 271.808 226.448 271.971 226.614C272.134 226.78 272.226 227.003 272.226 227.236C272.226 227.468 272.134 227.692 271.971 227.857C271.808 228.023 271.586 228.118 271.353 228.122Z" fill="#e6f7f1"/>
</g>
<path d="M223.104 248.323L227.193 240.567C225.809 238.88 225.053 236.765 225.053 234.583V234.119C225.071 231.612 226.075 229.213 227.848 227.44C229.62 225.667 232.019 224.663 234.526 224.646H252.722C255.24 224.645 257.657 225.641 259.444 227.416C261.231 229.191 262.244 231.6 262.262 234.119V234.583C262.244 237.102 261.231 239.511 259.444 241.286C257.657 243.061 255.24 244.057 252.722 244.057H234.526C233.217 244.052 231.922 243.779 230.723 243.252L223.104 248.323Z" fill="#e6f7f1"/>
<g style="mix-blend-mode:screen">
<path d="M255.407 232.715H231.282C231.05 232.712 230.828 232.617 230.665 232.451C230.501 232.285 230.41 232.062 230.41 231.829C230.41 231.597 230.501 231.373 230.665 231.208C230.828 231.042 231.05 230.947 231.282 230.943H255.407C255.642 230.943 255.867 231.037 256.033 231.203C256.199 231.369 256.293 231.594 256.293 231.829C256.293 232.064 256.199 232.29 256.033 232.456C255.867 232.622 255.642 232.715 255.407 232.715Z" fill="#e6f7f1"/>
</g>
<g style="mix-blend-mode:screen">
<path d="M253.281 236.055H231.282C231.05 236.051 230.828 235.956 230.665 235.791C230.501 235.625 230.41 235.401 230.41 235.169C230.41 234.936 230.501 234.713 230.665 234.547C230.828 234.381 231.05 234.286 231.282 234.283H253.24C253.475 234.283 253.7 234.376 253.866 234.542C254.032 234.708 254.126 234.934 254.126 235.169C254.126 235.397 254.038 235.616 253.881 235.781C253.723 235.946 253.508 236.044 253.281 236.055Z" fill="#e6f7f1"/>
</g>
<g style="mix-blend-mode:screen">
<path d="M247.052 239.19H231.282C231.05 239.186 230.828 239.092 230.664 238.926C230.501 238.76 230.41 238.537 230.41 238.304C230.408 238.188 230.429 238.073 230.472 237.966C230.515 237.859 230.579 237.761 230.66 237.678C230.742 237.596 230.838 237.53 230.945 237.486C231.052 237.441 231.166 237.418 231.282 237.418H247.011C247.243 237.418 247.467 237.509 247.632 237.673C247.798 237.836 247.893 238.058 247.897 238.29C247.9 238.521 247.814 238.744 247.657 238.912C247.499 239.08 247.282 239.179 247.052 239.19Z" fill="#e6f7f1"/>
</g>
<path opacity="0.9" d="M81.2057 231.257C87.589 231.257 92.7637 226.082 92.7637 219.698C92.7637 213.314 87.589 208.138 81.2057 208.138C74.8224 208.138 69.6477 213.314 69.6477 219.698C69.6477 226.082 74.8224 231.257 81.2057 231.257Z" fill="#12b981"/>
<path d="M95.3533 340.908C106.005 340.908 114.639 332.272 114.639 321.619C114.639 310.967 106.005 302.331 95.3533 302.331C84.7019 302.331 76.0673 310.967 76.0673 321.619C76.0673 332.272 84.7019 340.908 95.3533 340.908Z" fill="#e6f7f1"/>
<path d="M174.964 340.908C185.616 340.908 194.25 332.272 194.25 321.619C194.25 310.967 185.616 302.331 174.964 302.331C164.313 302.331 155.678 310.967 155.678 321.619C155.678 332.272 164.313 340.908 174.964 340.908Z" fill="#e6f7f1"/>
<path d="M254.153 340.908C264.804 340.908 273.439 332.272 273.439 321.619C273.439 310.967 264.804 302.331 254.153 302.331C243.501 302.331 234.867 310.967 234.867 321.619C234.867 332.272 243.501 340.908 254.153 340.908Z" fill="#e6f7f1"/>
<g style="mix-blend-mode:screen">
<path d="M120.309 354.962H73.0688C72.8379 354.962 72.6093 354.916 72.3959 354.828C72.1826 354.739 71.9888 354.61 71.8255 354.447C71.6622 354.283 71.5327 354.089 71.4444 353.876C71.356 353.663 71.3105 353.434 71.3105 353.203C71.3105 352.736 71.4953 352.287 71.8247 351.955C72.154 351.623 72.6012 351.435 73.0688 351.431H120.309C120.542 351.431 120.772 351.477 120.987 351.566C121.202 351.655 121.398 351.786 121.562 351.95C121.727 352.115 121.857 352.31 121.946 352.525C122.035 352.74 122.081 352.971 122.081 353.203C122.078 353.671 121.889 354.118 121.557 354.447C121.225 354.777 120.777 354.962 120.309 354.962Z" fill="#e6f7f1"/>
</g>
<g style="mix-blend-mode:screen">
<path d="M97.1524 354.962H73.0688C72.8379 354.962 72.6093 354.916 72.3959 354.828C72.1826 354.739 71.9888 354.61 71.8255 354.447C71.6622 354.283 71.5327 354.089 71.4444 353.876C71.356 353.663 71.3105 353.434 71.3105 353.203C71.3105 352.736 71.4953 352.287 71.8247 351.955C72.154 351.623 72.6012 351.435 73.0688 351.431H97.1524C97.62 351.435 98.0672 351.623 98.3965 351.955C98.7259 352.287 98.9107 352.736 98.9107 353.203C98.9107 353.434 98.8652 353.663 98.7768 353.876C98.6885 354.089 98.5589 354.283 98.3957 354.447C98.2324 354.61 98.0386 354.739 97.8253 354.828C97.612 354.916 97.3833 354.962 97.1524 354.962Z" fill="#e6f7f1"/>
</g>
<g style="mix-blend-mode:screen">
<path d="M120.309 368.388H73.0688C72.8379 368.388 72.6093 368.343 72.3959 368.255C72.1826 368.166 71.9888 368.037 71.8255 367.873C71.6622 367.71 71.5327 367.516 71.4444 367.303C71.356 367.09 71.3105 366.861 71.3105 366.63C71.3105 366.162 71.4953 365.714 71.8247 365.382C72.154 365.05 72.6012 364.862 73.0688 364.858H120.309C120.542 364.858 120.772 364.904 120.987 364.993C121.202 365.082 121.398 365.212 121.562 365.377C121.727 365.542 121.857 365.737 121.946 365.952C122.035 366.167 122.081 366.397 122.081 366.63C122.078 367.098 121.889 367.545 121.557 367.874C121.225 368.204 120.777 368.388 120.309 368.388Z" fill="#e6f7f1"/>
</g>
<g style="mix-blend-mode:screen">
<path d="M115.021 361.546H78.3707C77.9008 361.546 77.4501 361.359 77.1179 361.027C76.7856 360.694 76.5989 360.244 76.5989 359.774C76.6025 359.306 76.7907 358.859 77.1226 358.529C77.4545 358.2 77.9032 358.015 78.3707 358.015H115.021C115.252 358.015 115.481 358.061 115.694 358.149C115.907 358.237 116.101 358.367 116.264 358.53C116.428 358.693 116.557 358.887 116.645 359.101C116.734 359.314 116.779 359.543 116.779 359.774C116.779 360.241 116.594 360.69 116.265 361.022C115.936 361.354 115.489 361.542 115.021 361.546Z" fill="#e6f7f1"/>
</g>
<g style="mix-blend-mode:screen">
<path d="M197.426 354.962H150.199C149.732 354.962 149.283 354.777 148.951 354.447C148.619 354.118 148.431 353.671 148.427 353.203C148.427 352.971 148.473 352.74 148.562 352.525C148.651 352.31 148.782 352.115 148.946 351.95C149.111 351.786 149.306 351.655 149.521 351.566C149.736 351.477 149.966 351.431 150.199 351.431H197.426C197.896 351.431 198.347 351.618 198.679 351.95C199.011 352.282 199.198 352.733 199.198 353.203C199.194 353.671 199.006 354.118 198.674 354.447C198.342 354.777 197.894 354.962 197.426 354.962Z" fill="#e6f7f1"/>
</g>
<g style="mix-blend-mode:screen">
<path d="M174.269 354.962H150.199C149.732 354.962 149.283 354.777 148.951 354.447C148.619 354.118 148.431 353.671 148.427 353.203C148.427 352.971 148.473 352.74 148.562 352.525C148.651 352.31 148.782 352.115 148.946 351.95C149.111 351.786 149.306 351.655 149.521 351.566C149.736 351.477 149.966 351.431 150.199 351.431H174.269C174.739 351.431 175.19 351.618 175.522 351.95C175.854 352.282 176.041 352.733 176.041 353.203C176.037 353.671 175.849 354.118 175.517 354.447C175.185 354.777 174.737 354.962 174.269 354.962Z" fill="#e6f7f1"/>
</g>
<g style="mix-blend-mode:screen">
<path d="M197.426 368.388H150.199C149.732 368.388 149.283 368.204 148.951 367.874C148.619 367.545 148.431 367.098 148.427 366.63C148.427 366.397 148.473 366.167 148.562 365.952C148.651 365.737 148.782 365.542 148.946 365.377C149.111 365.212 149.306 365.082 149.521 364.993C149.736 364.904 149.966 364.858 150.199 364.858H197.426C197.896 364.858 198.347 365.045 198.679 365.377C199.011 365.709 199.198 366.16 199.198 366.63C199.194 367.098 199.006 367.545 198.674 367.874C198.342 368.204 197.894 368.388 197.426 368.388Z" fill="#e6f7f1"/>
</g>
<g style="mix-blend-mode:screen">
<path d="M192.138 361.546H155.487C155.02 361.542 154.573 361.354 154.243 361.022C153.914 360.69 153.729 360.241 153.729 359.774C153.729 359.543 153.775 359.314 153.863 359.101C153.951 358.887 154.081 358.693 154.244 358.53C154.407 358.367 154.601 358.237 154.815 358.149C155.028 358.061 155.257 358.015 155.487 358.015H192.138C192.369 358.015 192.597 358.061 192.811 358.149C193.024 358.237 193.218 358.367 193.381 358.53C193.544 358.693 193.674 358.887 193.762 359.101C193.85 359.314 193.896 359.543 193.896 359.774C193.898 360.006 193.854 360.236 193.766 360.451C193.678 360.666 193.549 360.861 193.386 361.026C193.222 361.191 193.028 361.321 192.814 361.411C192.599 361.5 192.37 361.546 192.138 361.546Z" fill="#e6f7f1"/>
</g>
<g style="mix-blend-mode:screen">
<path d="M275.892 354.962H228.652C228.184 354.962 227.735 354.777 227.404 354.447C227.072 354.118 226.883 353.671 226.88 353.203C226.88 352.733 227.066 352.282 227.399 351.95C227.731 351.618 228.182 351.431 228.652 351.431H275.892C276.36 351.435 276.807 351.623 277.136 351.955C277.466 352.287 277.65 352.736 277.65 353.203C277.65 353.434 277.605 353.663 277.517 353.876C277.428 354.089 277.299 354.283 277.135 354.447C276.972 354.61 276.778 354.739 276.565 354.828C276.352 354.916 276.123 354.962 275.892 354.962Z" fill="#e6f7f1"/>
</g>
<g style="mix-blend-mode:screen">
<path d="M252.722 354.962H228.652C228.184 354.962 227.735 354.777 227.404 354.447C227.072 354.118 226.883 353.671 226.88 353.203C226.88 352.733 227.066 352.282 227.399 351.95C227.731 351.618 228.182 351.431 228.652 351.431H252.722C253.192 351.431 253.642 351.618 253.975 351.95C254.307 352.282 254.494 352.733 254.494 353.203C254.49 353.671 254.302 354.118 253.97 354.447C253.638 354.777 253.189 354.962 252.722 354.962Z" fill="#e6f7f1"/>
</g>
<g style="mix-blend-mode:screen">
<path d="M275.892 368.388H228.652C228.184 368.388 227.735 368.204 227.404 367.874C227.072 367.545 226.883 367.098 226.88 366.63C226.88 366.16 227.066 365.709 227.399 365.377C227.731 365.045 228.182 364.858 228.652 364.858H275.892C276.36 364.862 276.807 365.05 277.136 365.382C277.466 365.714 277.65 366.162 277.65 366.63C277.65 366.861 277.605 367.09 277.517 367.303C277.428 367.516 277.299 367.71 277.135 367.873C276.972 368.037 276.778 368.166 276.565 368.255C276.352 368.343 276.123 368.388 275.892 368.388Z" fill="#e6f7f1"/>
</g>
<g style="mix-blend-mode:screen">
<path d="M270.59 361.546H234.008C233.538 361.546 233.088 361.359 232.755 361.027C232.423 360.694 232.236 360.244 232.236 359.774C232.24 359.306 232.428 358.859 232.76 358.529C233.092 358.2 233.541 358.015 234.008 358.015H270.645C271.112 358.015 271.561 358.2 271.893 358.529C272.225 358.859 272.413 359.306 272.417 359.774C272.417 360.011 272.369 360.246 272.277 360.465C272.184 360.683 272.049 360.881 271.879 361.046C271.708 361.212 271.506 361.341 271.285 361.427C271.064 361.513 270.827 361.553 270.59 361.546Z" fill="#e6f7f1"/>
</g>
</g>
<path d="M477.557 303.421H275.674C273.751 303.391 271.841 303.74 270.053 304.448C268.265 305.157 266.635 306.211 265.255 307.551C263.875 308.89 262.773 310.489 262.011 312.255C261.25 314.021 260.844 315.92 260.818 317.843V426.336C260.882 430.213 262.483 433.905 265.269 436.602C268.055 439.299 271.798 440.779 275.674 440.717H477.557C481.434 440.779 485.176 439.299 487.962 436.602C490.748 433.905 492.349 430.213 492.413 426.336V317.843C492.387 315.92 491.981 314.021 491.22 312.255C490.458 310.489 489.356 308.89 487.976 307.551C486.596 306.211 484.966 305.157 483.178 304.448C481.39 303.74 479.48 303.391 477.557 303.421Z" fill="#12b981"/>
<mask id="mask1_4445_5426" style="mask-type:luminance" maskUnits="userSpaceOnUse" x="270" y="313" width="213" height="118">
<path d="M275.674 430.602C274.468 430.662 273.287 430.243 272.389 429.436C271.49 428.629 270.947 427.5 270.876 426.295V317.843C270.943 316.635 271.486 315.503 272.384 314.693C273.283 313.884 274.466 313.463 275.674 313.522H477.557C478.764 313.463 479.945 313.884 480.842 314.694C481.738 315.504 482.278 316.637 482.341 317.843V426.336C482.274 427.54 481.733 428.669 480.837 429.476C479.941 430.283 478.762 430.703 477.557 430.643L275.674 430.602Z" fill="white"/>
</mask>
<g mask="url(#mask1_4445_5426)">
<path d="M482.355 311.259H270.876V456.897H482.355V311.259Z" fill="#e6f7f1"/>
<path opacity="0.9" d="M482.355 311.259H270.876V370.869H482.355V311.259Z" fill="#12b981"/>
<path d="M345.567 380.834H303.451V450.218H345.567V380.834Z" fill="#12b981"/>
<path d="M449.793 380.834H407.678V450.218H449.793V380.834Z" fill="#12b981"/>
<path d="M398.45 380.834H356.335V450.218H398.45V380.834Z" fill="#12b981"/>
<path d="M315.105 342.23C321.541 342.23 326.758 337.012 326.758 330.575C326.758 324.138 321.541 318.92 315.105 318.92C308.669 318.92 303.451 324.138 303.451 330.575C303.451 337.012 308.669 342.23 315.105 342.23Z" fill="#e6f7f1"/>
<path d="M416.891 324.236H332.728C332.2 324.236 331.694 324.027 331.321 323.653C330.948 323.28 330.738 322.774 330.738 322.246C330.742 321.719 330.952 321.215 331.325 320.843C331.697 320.47 332.201 320.259 332.728 320.256H416.891C417.419 320.256 417.925 320.466 418.298 320.839C418.672 321.212 418.881 321.718 418.881 322.246C418.881 322.774 418.672 323.28 418.298 323.653C417.925 324.027 417.419 324.236 416.891 324.236Z" fill="#e6f7f1"/>
<path d="M389.768 331.475H332.728C332.201 331.471 331.697 331.26 331.325 330.888C330.952 330.515 330.742 330.011 330.738 329.484C330.738 328.956 330.948 328.45 331.321 328.077C331.694 327.704 332.2 327.494 332.728 327.494H389.768C390.296 327.494 390.802 327.704 391.175 328.077C391.548 328.45 391.758 328.956 391.758 329.484C391.758 329.746 391.707 330.004 391.607 330.246C391.507 330.487 391.36 330.707 391.175 330.892C390.991 331.076 390.771 331.223 390.53 331.323C390.288 331.423 390.03 331.475 389.768 331.475Z" fill="#e6f7f1"/>
<g style="mix-blend-mode:screen">
<path d="M329.321 361.464H305.714C305.416 361.464 305.12 361.405 304.845 361.29C304.57 361.175 304.32 361.007 304.109 360.796C303.899 360.584 303.733 360.333 303.62 360.057C303.507 359.781 303.45 359.485 303.451 359.187C303.45 358.889 303.507 358.593 303.62 358.317C303.733 358.041 303.899 357.79 304.109 357.578C304.32 357.367 304.57 357.199 304.845 357.084C305.12 356.97 305.416 356.911 305.714 356.911H329.321C329.619 356.911 329.915 356.97 330.192 357.084C330.468 357.198 330.719 357.366 330.93 357.577C331.141 357.789 331.309 358.04 331.423 358.316C331.538 358.592 331.597 358.888 331.597 359.187C331.597 359.486 331.538 359.782 331.423 360.058C331.309 360.334 331.141 360.585 330.93 360.797C330.719 361.008 330.468 361.176 330.192 361.29C329.915 361.405 329.619 361.464 329.321 361.464Z" fill="#525252"/>
</g>
<g style="mix-blend-mode:screen">
<path d="M368.124 361.464H344.531C344.232 361.464 343.936 361.405 343.66 361.29C343.384 361.176 343.133 361.008 342.922 360.797C342.71 360.585 342.543 360.334 342.428 360.058C342.314 359.782 342.255 359.486 342.255 359.187C342.255 358.583 342.495 358.004 342.922 357.577C343.349 357.15 343.928 356.911 344.531 356.911H368.124C368.728 356.911 369.307 357.15 369.734 357.577C370.161 358.004 370.4 358.583 370.4 359.187C370.4 359.486 370.342 359.782 370.227 360.058C370.113 360.334 369.945 360.585 369.734 360.797C369.522 361.008 369.271 361.176 368.995 361.29C368.719 361.405 368.423 361.464 368.124 361.464Z" fill="#525252"/>
</g>
<g style="mix-blend-mode:screen">
<path d="M408.713 361.464H385.12C384.822 361.464 384.526 361.405 384.249 361.29C383.973 361.176 383.722 361.008 383.511 360.797C383.3 360.585 383.132 360.334 383.018 360.058C382.903 359.782 382.844 359.486 382.844 359.187C382.844 358.583 383.084 358.004 383.511 357.577C383.938 357.15 384.517 356.911 385.12 356.911H408.713C409.317 356.911 409.896 357.15 410.323 357.577C410.75 358.004 410.99 358.583 410.99 359.187C410.99 359.486 410.931 359.782 410.816 360.058C410.702 360.334 410.534 360.585 410.323 360.797C410.112 361.008 409.861 361.176 409.585 361.29C409.308 361.405 409.012 361.464 408.713 361.464Z" fill="#525252"/>
</g>
<g style="mix-blend-mode:screen">
<path d="M447.531 361.464H423.924C423.625 361.464 423.329 361.405 423.053 361.29C422.777 361.176 422.526 361.008 422.315 360.797C422.103 360.585 421.936 360.334 421.821 360.058C421.707 359.782 421.648 359.486 421.648 359.187C421.648 358.583 421.888 358.004 422.315 357.577C422.742 357.15 423.321 356.911 423.924 356.911H447.531C447.829 356.911 448.124 356.97 448.4 357.084C448.675 357.199 448.925 357.367 449.136 357.578C449.346 357.79 449.512 358.041 449.625 358.317C449.738 358.593 449.795 358.889 449.793 359.187C449.795 359.485 449.738 359.781 449.625 360.057C449.512 360.333 449.346 360.584 449.136 360.796C448.925 361.007 448.675 361.175 448.4 361.29C448.124 361.405 447.829 361.464 447.531 361.464Z" fill="#525252"/>
</g>
<path d="M449.793 345.106L446.699 339.149C447.759 337.853 448.337 336.23 448.335 334.556V334.201C448.335 332.274 447.57 330.426 446.207 329.064C444.845 327.701 442.997 326.936 441.07 326.936H427.114C426.158 326.934 425.212 327.12 424.329 327.485C423.446 327.849 422.644 328.384 421.968 329.059C421.292 329.734 420.756 330.535 420.39 331.418C420.024 332.3 419.835 333.246 419.835 334.201V334.542C419.835 335.497 420.024 336.443 420.39 337.325C420.756 338.208 421.292 339.009 421.968 339.684C422.644 340.359 423.446 340.894 424.329 341.258C425.212 341.623 426.158 341.809 427.114 341.807H441.07C442.075 341.81 443.069 341.601 443.987 341.194L449.793 345.106Z" fill="#e6f7f1"/>
<g style="mix-blend-mode:screen">
<path d="M441.411 333.983H425.423C425.268 333.983 425.119 333.921 425.009 333.811C424.899 333.701 424.837 333.552 424.837 333.397C424.837 333.241 424.899 333.092 425.009 332.982C425.119 332.872 425.268 332.811 425.423 332.811H441.411C441.567 332.811 441.716 332.872 441.826 332.982C441.935 333.092 441.997 333.241 441.997 333.397C441.997 333.552 441.935 333.701 441.826 333.811C441.716 333.921 441.567 333.983 441.411 333.983Z" fill="#e6f7f1"/>
</g>
<g style="mix-blend-mode:screen">
<path d="M441.411 336.164H425.423C425.344 336.166 425.265 336.152 425.192 336.122C425.118 336.093 425.051 336.049 424.995 335.992C424.939 335.936 424.895 335.869 424.866 335.796C424.836 335.722 424.822 335.643 424.824 335.564C424.824 335.409 424.886 335.26 424.995 335.15C425.105 335.04 425.254 334.978 425.41 334.978H441.397C441.553 334.978 441.702 335.04 441.812 335.15C441.922 335.26 441.984 335.409 441.984 335.564C441.985 335.641 441.972 335.718 441.944 335.79C441.916 335.861 441.875 335.927 441.822 335.983C441.768 336.038 441.705 336.083 441.634 336.114C441.564 336.145 441.488 336.162 441.411 336.164Z" fill="#e6f7f1"/>
</g>
<path d="M409.395 349.577L412.121 344.411C411.22 343.282 410.738 341.875 410.758 340.431V340.131C410.758 339.304 410.921 338.486 411.238 337.723C411.554 336.959 412.018 336.266 412.603 335.682C413.188 335.099 413.882 334.636 414.646 334.321C415.41 334.006 416.229 333.845 417.055 333.847H429.144C429.97 333.845 430.788 334.006 431.551 334.321C432.314 334.637 433.008 335.099 433.591 335.683C434.175 336.267 434.638 336.961 434.953 337.724C435.268 338.487 435.43 339.305 435.428 340.131V340.431C435.43 341.257 435.268 342.076 434.953 342.84C434.638 343.604 434.176 344.298 433.592 344.883C433.009 345.468 432.315 345.932 431.552 346.249C430.789 346.565 429.971 346.728 429.144 346.728H417.055C416.182 346.729 415.319 346.548 414.52 346.197L409.395 349.577Z" fill="#e6f7f1"/>
<g style="mix-blend-mode:screen">
<path d="M430.821 339.217H414.833C414.678 339.217 414.529 339.155 414.419 339.046C414.309 338.936 414.247 338.787 414.247 338.631C414.247 338.476 414.309 338.327 414.419 338.217C414.529 338.107 414.678 338.045 414.833 338.045H430.821C430.976 338.045 431.125 338.107 431.235 338.217C431.345 338.327 431.407 338.476 431.407 338.631C431.407 338.787 431.345 338.936 431.235 339.046C431.125 339.155 430.976 339.217 430.821 339.217Z" fill="#e6f7f1"/>
</g>
<g style="mix-blend-mode:screen">
<path d="M429.403 341.385H414.833C414.678 341.385 414.529 341.323 414.419 341.213C414.309 341.103 414.247 340.954 414.247 340.799C414.247 340.643 414.309 340.494 414.419 340.384C414.529 340.274 414.678 340.212 414.833 340.212H429.403C429.559 340.212 429.708 340.274 429.818 340.384C429.928 340.494 429.989 340.643 429.989 340.799C429.989 340.954 429.928 341.103 429.818 341.213C429.708 341.323 429.559 341.385 429.403 341.385Z" fill="#e6f7f1"/>
</g>
<g style="mix-blend-mode:screen">
<path d="M425.273 343.525H414.833C414.678 343.525 414.529 343.463 414.419 343.353C414.309 343.243 414.247 343.094 414.247 342.939C414.247 342.783 414.309 342.634 414.419 342.524C414.529 342.414 414.678 342.353 414.833 342.353H425.273C425.35 342.353 425.427 342.368 425.498 342.397C425.569 342.427 425.634 342.47 425.688 342.524C425.742 342.579 425.786 342.643 425.815 342.714C425.844 342.786 425.86 342.862 425.86 342.939C425.86 343.016 425.844 343.092 425.815 343.163C425.786 343.234 425.742 343.299 425.688 343.353C425.634 343.408 425.569 343.451 425.498 343.48C425.427 343.51 425.35 343.525 425.273 343.525Z" fill="#e6f7f1"/>
</g>
<path opacity="0.9" d="M315.105 338.249C319.343 338.249 322.778 334.813 322.778 330.575C322.778 326.336 319.343 322.9 315.105 322.9C310.867 322.9 307.431 326.336 307.431 330.575C307.431 334.813 310.867 338.249 315.105 338.249Z" fill="#12b981"/>
<path d="M324.509 411.096C331.585 411.096 337.321 405.359 337.321 398.282C337.321 391.206 331.585 385.469 324.509 385.469C317.433 385.469 311.697 391.206 311.697 398.282C311.697 405.359 317.433 411.096 324.509 411.096Z" fill="#e6f7f1"/>
<path d="M377.393 411.096C384.468 411.096 390.204 405.359 390.204 398.282C390.204 391.206 384.468 385.469 377.393 385.469C370.317 385.469 364.581 391.206 364.581 398.282C364.581 405.359 370.317 411.096 377.393 411.096Z" fill="#e6f7f1"/>
<path d="M429.989 411.096C437.065 411.096 442.801 405.359 442.801 398.282C442.801 391.206 437.065 385.469 429.989 385.469C422.914 385.469 417.177 391.206 417.177 398.282C417.177 405.359 422.914 411.096 429.989 411.096Z" fill="#e6f7f1"/>
<g style="mix-blend-mode:screen">
<path d="M341.083 420.419H309.735C309.58 420.421 309.427 420.392 309.284 420.334C309.141 420.276 309.011 420.189 308.902 420.08C308.793 419.971 308.706 419.841 308.648 419.698C308.59 419.555 308.561 419.401 308.563 419.247C308.563 418.936 308.686 418.638 308.906 418.418C309.126 418.198 309.424 418.075 309.735 418.075H341.083C341.394 418.075 341.692 418.198 341.912 418.418C342.132 418.638 342.255 418.936 342.255 419.247C342.257 419.401 342.228 419.555 342.17 419.698C342.111 419.841 342.025 419.971 341.916 420.08C341.807 420.189 341.677 420.276 341.534 420.334C341.391 420.392 341.237 420.421 341.083 420.419Z" fill="#e6f7f1"/>
</g>
<g style="mix-blend-mode:screen">
<path d="M325.695 420.419H309.707C309.553 420.421 309.4 420.392 309.257 420.334C309.114 420.276 308.984 420.189 308.874 420.08C308.765 419.971 308.679 419.841 308.621 419.698C308.562 419.555 308.533 419.401 308.535 419.247C308.535 418.936 308.659 418.638 308.879 418.418C309.098 418.198 309.397 418.075 309.707 418.075H325.695C326.006 418.075 326.304 418.198 326.524 418.418C326.744 418.638 326.867 418.936 326.867 419.247C326.869 419.401 326.84 419.555 326.782 419.698C326.723 419.841 326.637 419.971 326.528 420.08C326.419 420.189 326.289 420.276 326.146 420.334C326.003 420.392 325.849 420.421 325.695 420.419Z" fill="#e6f7f1"/>
</g>
<g style="mix-blend-mode:screen">
<path d="M341.083 429.348H309.735C309.424 429.348 309.126 429.225 308.906 429.005C308.686 428.785 308.563 428.487 308.563 428.176C308.561 428.021 308.59 427.868 308.648 427.725C308.706 427.582 308.793 427.452 308.902 427.343C309.011 427.234 309.141 427.147 309.284 427.089C309.427 427.031 309.58 427.002 309.735 427.003H341.083C341.237 427.002 341.391 427.031 341.534 427.089C341.677 427.147 341.807 427.234 341.916 427.343C342.025 427.452 342.111 427.582 342.17 427.725C342.228 427.868 342.257 428.021 342.255 428.176C342.255 428.487 342.132 428.785 341.912 429.005C341.692 429.225 341.394 429.348 341.083 429.348Z" fill="#e6f7f1"/>
</g>
<g style="mix-blend-mode:screen">
<path d="M334.05 429.348H316.74C316.586 429.348 316.434 429.318 316.292 429.259C316.15 429.2 316.02 429.114 315.912 429.005C315.803 428.896 315.716 428.767 315.657 428.624C315.599 428.482 315.568 428.33 315.568 428.176C315.566 428.021 315.595 427.868 315.654 427.725C315.712 427.582 315.798 427.452 315.907 427.343C316.017 427.234 316.147 427.147 316.29 427.089C316.433 427.031 316.586 427.002 316.74 427.003H334.05C334.204 427.003 334.356 427.034 334.499 427.093C334.641 427.152 334.77 427.238 334.879 427.347C334.988 427.456 335.074 427.585 335.133 427.727C335.192 427.869 335.222 428.022 335.222 428.176C335.219 428.486 335.094 428.782 334.875 429.001C334.656 429.22 334.36 429.345 334.05 429.348Z" fill="#e6f7f1"/>
</g>
<g style="mix-blend-mode:screen">
<path d="M337.594 424.795H313.224C313.069 424.797 312.916 424.768 312.773 424.71C312.63 424.652 312.5 424.565 312.391 424.456C312.282 424.347 312.195 424.217 312.137 424.074C312.079 423.931 312.05 423.777 312.052 423.623C312.052 423.312 312.175 423.014 312.395 422.794C312.615 422.574 312.913 422.451 313.224 422.451H337.594C337.904 422.454 338.2 422.579 338.419 422.798C338.638 423.017 338.762 423.313 338.766 423.623C338.766 423.934 338.642 424.232 338.423 424.452C338.203 424.672 337.905 424.795 337.594 424.795Z" fill="#e6f7f1"/>
</g>
<g style="mix-blend-mode:screen">
<path d="M332.483 424.795H318.308C318.153 424.797 318 424.768 317.857 424.71C317.714 424.652 317.584 424.565 317.475 424.456C317.366 424.347 317.279 424.217 317.221 424.074C317.163 423.931 317.134 423.777 317.136 423.623C317.136 423.469 317.166 423.317 317.225 423.174C317.284 423.032 317.37 422.903 317.479 422.794C317.588 422.685 317.717 422.599 317.859 422.54C318.001 422.481 318.154 422.451 318.308 422.451H332.483C332.793 422.451 333.092 422.574 333.311 422.794C333.531 423.014 333.655 423.312 333.655 423.623C333.657 423.777 333.628 423.931 333.569 424.074C333.511 424.217 333.425 424.347 333.316 424.456C333.206 424.565 333.076 424.652 332.933 424.71C332.79 424.768 332.637 424.797 332.483 424.795Z" fill="#e6f7f1"/>
</g>
<g style="mix-blend-mode:screen">
<path d="M392.317 420.419H360.969C360.658 420.419 360.36 420.296 360.14 420.076C359.92 419.856 359.797 419.558 359.797 419.247C359.8 418.937 359.925 418.641 360.144 418.422C360.363 418.203 360.659 418.078 360.969 418.075H392.317C392.627 418.078 392.923 418.203 393.142 418.422C393.361 418.641 393.486 418.937 393.489 419.247C393.489 419.558 393.366 419.856 393.146 420.076C392.926 420.296 392.628 420.419 392.317 420.419Z" fill="#e6f7f1"/>
</g>
<g style="mix-blend-mode:screen">
<path d="M376.929 420.419H360.928C360.617 420.419 360.319 420.296 360.099 420.076C359.879 419.856 359.756 419.558 359.756 419.247C359.759 418.937 359.884 418.641 360.103 418.422C360.322 418.203 360.618 418.078 360.928 418.075H376.929C377.239 418.078 377.535 418.203 377.754 418.422C377.973 418.641 378.098 418.937 378.101 419.247C378.101 419.558 377.978 419.856 377.758 420.076C377.538 420.296 377.24 420.419 376.929 420.419Z" fill="#e6f7f1"/>
</g>
<g style="mix-blend-mode:screen">
<path d="M392.317 429.348H360.969C360.659 429.344 360.363 429.22 360.144 429.001C359.925 428.782 359.8 428.486 359.797 428.176C359.797 427.865 359.92 427.567 360.14 427.347C360.36 427.127 360.658 427.003 360.969 427.003H392.317C392.628 427.003 392.926 427.127 393.146 427.347C393.366 427.567 393.489 427.865 393.489 428.176C393.486 428.486 393.361 428.782 393.142 429.001C392.923 429.22 392.627 429.344 392.317 429.348Z" fill="#e6f7f1"/>
</g>
<g style="mix-blend-mode:screen">
<path d="M385.298 429.348H367.988C367.676 429.348 367.376 429.225 367.154 429.006C366.932 428.786 366.806 428.488 366.802 428.176C366.802 428.021 366.833 427.867 366.893 427.724C366.953 427.581 367.04 427.451 367.15 427.342C367.261 427.233 367.392 427.147 367.535 427.089C367.679 427.031 367.833 427.002 367.988 427.003H385.298C385.609 427.003 385.907 427.127 386.127 427.347C386.346 427.567 386.47 427.865 386.47 428.176C386.466 428.486 386.342 428.782 386.123 429.001C385.904 429.22 385.608 429.345 385.298 429.348Z" fill="#e6f7f1"/>
</g>
<g style="mix-blend-mode:screen">
<path d="M388.801 424.795H364.444C364.133 424.795 363.835 424.672 363.615 424.452C363.396 424.232 363.272 423.934 363.272 423.623C363.276 423.313 363.4 423.017 363.619 422.798C363.838 422.579 364.134 422.454 364.444 422.451H388.801C389.11 422.454 389.406 422.579 389.625 422.798C389.844 423.017 389.969 423.313 389.973 423.623C389.973 423.934 389.849 424.232 389.629 424.452C389.41 424.672 389.111 424.795 388.801 424.795Z" fill="#e6f7f1"/>
</g>
<g style="mix-blend-mode:screen">
<path d="M383.717 424.795H369.528C369.374 424.795 369.222 424.765 369.08 424.706C368.937 424.647 368.808 424.561 368.699 424.452C368.59 424.343 368.504 424.214 368.445 424.072C368.386 423.929 368.356 423.777 368.356 423.623C368.359 423.313 368.484 423.017 368.703 422.798C368.922 422.579 369.218 422.454 369.528 422.451H383.717C384.026 422.454 384.322 422.579 384.542 422.798C384.761 423.017 384.885 423.313 384.889 423.623C384.889 423.777 384.858 423.929 384.8 424.072C384.741 424.214 384.654 424.343 384.545 424.452C384.437 424.561 384.307 424.647 384.165 424.706C384.023 424.765 383.871 424.795 383.717 424.795Z" fill="#e6f7f1"/>
</g>
<g style="mix-blend-mode:screen">
<path d="M444.437 420.419H413.089C412.778 420.419 412.48 420.296 412.26 420.076C412.04 419.856 411.917 419.558 411.917 419.247C411.92 418.937 412.045 418.641 412.264 418.422C412.483 418.203 412.779 418.078 413.089 418.075H444.437C444.747 418.078 445.043 418.203 445.262 418.422C445.481 418.641 445.606 418.937 445.609 419.247C445.609 419.558 445.486 419.856 445.266 420.076C445.046 420.296 444.748 420.419 444.437 420.419Z" fill="#e6f7f1"/>
</g>
<g style="mix-blend-mode:screen">
<path d="M429.049 420.419H413.048C412.737 420.419 412.439 420.296 412.219 420.076C411.999 419.856 411.876 419.558 411.876 419.247C411.879 418.937 412.004 418.641 412.223 418.422C412.442 418.203 412.738 418.078 413.048 418.075H429.049C429.359 418.078 429.655 418.203 429.874 418.422C430.093 418.641 430.218 418.937 430.221 419.247C430.221 419.558 430.098 419.856 429.878 420.076C429.658 420.296 429.36 420.419 429.049 420.419Z" fill="#e6f7f1"/>
</g>
<g style="mix-blend-mode:screen">
<path d="M444.437 429.348H413.089C412.779 429.344 412.483 429.22 412.264 429.001C412.045 428.782 411.92 428.486 411.917 428.176C411.917 427.865 412.04 427.567 412.26 427.347C412.48 427.127 412.778 427.003 413.089 427.003H444.437C444.748 427.003 445.046 427.127 445.266 427.347C445.486 427.567 445.609 427.865 445.609 428.176C445.606 428.486 445.481 428.782 445.262 429.001C445.043 429.22 444.747 429.344 444.437 429.348Z" fill="#e6f7f1"/>
</g>
<g style="mix-blend-mode:screen">
<path d="M440.92 424.795H416.564C416.253 424.795 415.955 424.672 415.735 424.452C415.515 424.232 415.392 423.934 415.392 423.623C415.396 423.313 415.52 423.017 415.739 422.798C415.958 422.579 416.254 422.454 416.564 422.451H440.92C441.23 422.454 441.526 422.579 441.745 422.798C441.964 423.017 442.089 423.313 442.093 423.623C442.093 423.934 441.969 424.232 441.749 424.452C441.529 424.672 441.231 424.795 440.92 424.795Z" fill="#e6f7f1"/>
</g>
</g>
<path d="M357.18 105.044V280.657C357.18 288.14 363.245 294.207 370.728 294.207H478.866C486.348 294.207 492.413 288.14 492.413 280.657V105.044C492.413 97.5605 486.348 91.4941 478.866 91.4941H370.728C363.245 91.4941 357.18 97.5605 357.18 105.044Z" fill="#12b981"/>
<mask id="mask2_4445_5426" style="mask-type:luminance" maskUnits="userSpaceOnUse" x="367" y="103" width="115" height="180">
<path d="M480.078 103.558H369.515C368.528 103.558 367.729 104.358 367.729 105.344V280.344C367.729 281.33 368.528 282.129 369.515 282.129H480.078C481.065 282.129 481.864 281.33 481.864 280.344V105.344C481.864 104.358 481.065 103.558 480.078 103.558Z" fill="white"/>
</mask>
<g mask="url(#mask2_4445_5426)">
<path d="M497.811 101.363H351.782V284.637H497.811V101.363Z" fill="#e6f7f1"/>
<path opacity="0.7" d="M497.811 101.363H351.782V142.53H497.811V101.363Z" fill="#12b981"/>
<path d="M403.357 149.4H374.271V197.301H403.357V149.4Z" fill="#12b981"/>
<path d="M475.322 149.4H446.236V197.301H475.322V149.4Z" fill="#12b981"/>
<path d="M439.871 149.4H410.785V197.301H439.871V149.4Z" fill="#12b981"/>
<path d="M390.368 114.736C390.368 116.329 389.896 117.887 389.01 119.212C388.125 120.536 386.867 121.569 385.395 122.179C383.924 122.789 382.304 122.948 380.741 122.637C379.179 122.326 377.744 121.559 376.617 120.432C375.49 119.306 374.723 117.87 374.412 116.308C374.102 114.745 374.261 113.125 374.871 111.653C375.481 110.181 376.513 108.923 377.838 108.037C379.162 107.152 380.72 106.68 382.313 106.68C383.371 106.678 384.419 106.885 385.398 107.289C386.376 107.694 387.264 108.287 388.013 109.035C388.761 109.784 389.354 110.673 389.758 111.651C390.163 112.629 390.37 113.677 390.368 114.736Z" fill="white"/>
<g style="mix-blend-mode:screen">
<path d="M452.601 110.319H394.498C394.136 110.319 393.79 110.175 393.534 109.92C393.278 109.664 393.135 109.317 393.135 108.956C393.135 108.594 393.278 108.248 393.534 107.992C393.79 107.736 394.136 107.593 394.498 107.593H452.601C452.963 107.593 453.309 107.736 453.565 107.992C453.82 108.248 453.964 108.594 453.964 108.956C453.964 109.317 453.82 109.664 453.565 109.92C453.309 110.175 452.963 110.319 452.601 110.319Z" fill="#262626"/>
</g>
<g style="mix-blend-mode:screen">
<path d="M433.874 115.308H394.498C394.136 115.308 393.79 115.165 393.534 114.909C393.278 114.653 393.135 114.307 393.135 113.945C393.135 113.584 393.278 113.237 393.534 112.981C393.79 112.726 394.136 112.582 394.498 112.582H433.874C434.235 112.582 434.582 112.726 434.838 112.981C435.093 113.237 435.237 113.584 435.237 113.945C435.237 114.307 435.093 114.653 434.838 114.909C434.582 115.165 434.235 115.308 433.874 115.308Z" fill="#262626"/>
</g>
<g style="mix-blend-mode:screen">
<path d="M392.113 136.041H375.757C375.342 136.038 374.946 135.872 374.653 135.578C374.359 135.285 374.193 134.889 374.19 134.474C374.19 134.058 374.355 133.659 374.649 133.365C374.943 133.071 375.341 132.906 375.757 132.906H392.113C392.528 132.906 392.927 133.071 393.221 133.365C393.515 133.659 393.68 134.058 393.68 134.474C393.676 134.889 393.51 135.285 393.217 135.578C392.924 135.872 392.527 136.038 392.113 136.041Z" fill="#525252"/>
</g>
<g style="mix-blend-mode:screen">
<path d="M418.936 136.041H402.58C402.166 136.038 401.769 135.872 401.476 135.578C401.183 135.285 401.016 134.889 401.013 134.474C401.013 134.058 401.178 133.659 401.472 133.365C401.766 133.071 402.165 132.906 402.58 132.906H418.936C419.352 132.906 419.75 133.071 420.044 133.365C420.338 133.659 420.503 134.058 420.503 134.474C420.5 134.889 420.333 135.285 420.04 135.578C419.747 135.872 419.35 136.038 418.936 136.041Z" fill="#525252"/>
</g>
<g style="mix-blend-mode:screen">
<path d="M446.958 136.041H430.603C430.188 136.038 429.792 135.872 429.498 135.578C429.205 135.285 429.039 134.889 429.035 134.474C429.035 134.058 429.201 133.659 429.494 133.365C429.788 133.071 430.187 132.906 430.603 132.906H446.958C447.374 132.906 447.773 133.071 448.067 133.365C448.361 133.659 448.526 134.058 448.526 134.474C448.522 134.889 448.356 135.285 448.063 135.578C447.77 135.872 447.373 136.038 446.958 136.041Z" fill="#525252"/>
</g>
<g style="mix-blend-mode:screen">
<path d="M473.754 136.042H457.399C456.984 136.038 456.588 135.872 456.294 135.578C456.001 135.285 455.835 134.889 455.831 134.474C455.831 134.058 455.997 133.659 456.29 133.365C456.584 133.071 456.983 132.906 457.399 132.906H473.754C473.961 132.904 474.165 132.944 474.356 133.022C474.547 133.1 474.721 133.215 474.867 133.361C475.013 133.507 475.128 133.681 475.206 133.872C475.284 134.063 475.324 134.268 475.322 134.474C475.322 134.89 475.157 135.288 474.863 135.582C474.569 135.876 474.17 136.042 473.754 136.042Z" fill="#525252"/>
</g>
<path d="M475.322 124.714L473.182 120.624C473.916 119.729 474.316 118.606 474.313 117.448V117.189C474.313 115.859 473.785 114.583 472.844 113.642C471.904 112.701 470.628 112.173 469.298 112.173H459.661C459.001 112.171 458.348 112.3 457.738 112.551C457.128 112.802 456.573 113.171 456.106 113.637C455.639 114.103 455.268 114.657 455.015 115.266C454.762 115.876 454.632 116.529 454.632 117.189V117.462C454.636 118.794 455.167 120.069 456.11 121.01C457.053 121.95 458.33 122.478 459.661 122.478H469.298C469.992 122.479 470.679 122.335 471.315 122.056L475.322 124.714Z" fill="#e6f7f1"/>
<g style="mix-blend-mode:screen">
<path d="M469.529 117.053H458.489C458.381 117.053 458.277 117.01 458.2 116.933C458.123 116.857 458.08 116.753 458.08 116.644C458.084 116.537 458.128 116.435 458.204 116.359C458.28 116.283 458.382 116.239 458.489 116.235H469.529C469.638 116.235 469.742 116.278 469.818 116.355C469.895 116.432 469.938 116.536 469.938 116.644C469.94 116.699 469.931 116.753 469.911 116.803C469.891 116.853 469.861 116.899 469.823 116.938C469.784 116.976 469.738 117.006 469.688 117.026C469.638 117.046 469.583 117.055 469.529 117.053Z" fill="#e6f7f1"/>
</g>
<g style="mix-blend-mode:screen">
<path d="M469.529 118.553H458.489C458.381 118.553 458.277 118.509 458.2 118.433C458.123 118.356 458.08 118.252 458.08 118.144C458.084 118.038 458.129 117.937 458.205 117.863C458.281 117.789 458.383 117.748 458.489 117.748H469.529C469.582 117.746 469.635 117.755 469.685 117.774C469.734 117.793 469.779 117.822 469.818 117.859C469.856 117.896 469.886 117.94 469.907 117.989C469.928 118.038 469.938 118.091 469.938 118.144C469.94 118.198 469.931 118.252 469.911 118.302C469.891 118.353 469.861 118.399 469.823 118.437C469.784 118.475 469.738 118.505 469.688 118.525C469.638 118.545 469.583 118.554 469.529 118.553Z" fill="#e6f7f1"/>
</g>
<path d="M447.422 127.808L449.276 124.278C448.644 123.509 448.298 122.546 448.294 121.551V121.347C448.294 120.194 448.752 119.088 449.568 118.272C450.383 117.457 451.489 116.999 452.642 116.999H460.997C461.568 116.999 462.133 117.111 462.661 117.33C463.188 117.548 463.668 117.868 464.071 118.272C464.475 118.676 464.795 119.155 465.014 119.683C465.232 120.21 465.345 120.776 465.345 121.347V121.551C465.345 122.705 464.887 123.811 464.071 124.626C463.256 125.442 462.15 125.9 460.997 125.9H452.642C452.041 125.898 451.448 125.773 450.897 125.532L447.422 127.808Z" fill="#e6f7f1"/>
<g style="mix-blend-mode:screen">
<path d="M462.224 120.652H451.184C451.131 120.653 451.078 120.645 451.028 120.626C450.979 120.607 450.933 120.578 450.895 120.541C450.857 120.504 450.827 120.46 450.806 120.411C450.785 120.362 450.775 120.309 450.775 120.256C450.773 120.202 450.782 120.148 450.802 120.098C450.822 120.047 450.852 120.001 450.89 119.963C450.929 119.925 450.975 119.895 451.025 119.875C451.075 119.855 451.129 119.846 451.184 119.847H462.224C462.277 119.847 462.329 119.858 462.378 119.879C462.427 119.899 462.471 119.93 462.508 119.968C462.545 120.006 462.574 120.051 462.593 120.101C462.612 120.15 462.621 120.203 462.619 120.256C462.619 120.308 462.609 120.36 462.589 120.408C462.569 120.456 462.54 120.499 462.503 120.536C462.466 120.573 462.423 120.602 462.375 120.622C462.327 120.641 462.276 120.652 462.224 120.652Z" fill="#e6f7f1"/>
</g>
<g style="mix-blend-mode:screen">
<path d="M461.242 122.165H451.184C451.075 122.165 450.971 122.122 450.895 122.045C450.818 121.968 450.775 121.864 450.775 121.756C450.773 121.702 450.782 121.648 450.802 121.597C450.822 121.547 450.852 121.501 450.89 121.462C450.929 121.424 450.975 121.394 451.025 121.374C451.075 121.354 451.129 121.345 451.184 121.347H461.242C461.297 121.345 461.351 121.354 461.401 121.374C461.452 121.394 461.497 121.424 461.536 121.462C461.574 121.501 461.604 121.547 461.624 121.597C461.644 121.648 461.653 121.702 461.651 121.756C461.651 121.864 461.608 121.968 461.531 122.045C461.455 122.122 461.351 122.165 461.242 122.165Z" fill="#e6f7f1"/>
</g>
<g style="mix-blend-mode:screen">
<path d="M458.394 123.637H451.184C451.075 123.637 450.971 123.594 450.895 123.517C450.818 123.441 450.775 123.336 450.775 123.228C450.773 123.174 450.782 123.12 450.802 123.069C450.822 123.019 450.852 122.973 450.89 122.935C450.929 122.896 450.975 122.866 451.025 122.846C451.075 122.826 451.129 122.817 451.184 122.819H458.394C458.502 122.819 458.606 122.862 458.683 122.939C458.76 123.016 458.803 123.12 458.803 123.228C458.799 123.335 458.755 123.437 458.679 123.513C458.603 123.589 458.501 123.634 458.394 123.637Z" fill="#e6f7f1"/>
</g>
<path opacity="0.9" d="M387.615 114.736C387.615 115.784 387.304 116.81 386.721 117.682C386.139 118.554 385.311 119.233 384.342 119.635C383.373 120.036 382.307 120.141 381.278 119.936C380.25 119.732 379.305 119.227 378.564 118.485C377.822 117.744 377.317 116.799 377.113 115.77C376.908 114.742 377.013 113.675 377.414 112.706C377.816 111.738 378.495 110.909 379.367 110.327C380.239 109.744 381.264 109.433 382.313 109.433C383.719 109.433 385.068 109.992 386.062 110.986C387.056 111.981 387.615 113.329 387.615 114.736Z" fill="#12b981"/>
<path d="M397.66 161.437C397.66 163.186 397.141 164.897 396.169 166.352C395.197 167.806 393.816 168.94 392.199 169.61C390.583 170.28 388.804 170.455 387.089 170.113C385.373 169.772 383.796 168.929 382.559 167.692C381.322 166.455 380.48 164.879 380.138 163.163C379.797 161.446 379.972 159.668 380.642 158.051C381.311 156.435 382.445 155.053 383.9 154.081C385.354 153.109 387.065 152.59 388.814 152.59C391.16 152.59 393.41 153.522 395.069 155.181C396.728 156.84 397.66 159.09 397.66 161.437Z" fill="#e6f7f1"/>
<path d="M434.174 161.437C434.174 163.186 433.655 164.897 432.683 166.352C431.711 167.806 430.33 168.94 428.713 169.61C427.097 170.28 425.318 170.455 423.602 170.113C421.886 169.772 420.31 168.929 419.073 167.692C417.836 166.455 416.994 164.879 416.652 163.163C416.311 161.446 416.486 159.668 417.156 158.051C417.825 156.435 418.959 155.053 420.414 154.081C421.868 153.109 423.579 152.59 425.328 152.59C427.674 152.59 429.924 153.522 431.583 155.181C433.242 156.84 434.174 159.09 434.174 161.437Z" fill="#e6f7f1"/>
<path d="M470.497 161.437C470.497 163.186 469.978 164.897 469.006 166.352C468.034 167.806 466.653 168.94 465.036 169.61C463.42 170.28 461.641 170.455 459.926 170.113C458.21 169.772 456.633 168.929 455.396 167.692C454.159 166.455 453.317 164.879 452.976 163.163C452.634 161.446 452.809 159.668 453.479 158.051C454.148 156.435 455.282 155.053 456.737 154.081C458.191 153.109 459.902 152.59 461.651 152.59C463.997 152.59 466.247 153.522 467.906 155.181C469.565 156.84 470.497 159.09 470.497 161.437Z" fill="#e6f7f1"/>
<g style="mix-blend-mode:screen">
<path d="M400.29 176.731H378.619C378.405 176.731 378.199 176.647 378.046 176.496C377.893 176.346 377.805 176.141 377.801 175.927C377.801 175.71 377.888 175.502 378.041 175.348C378.194 175.195 378.402 175.109 378.619 175.109H400.29C400.505 175.112 400.709 175.2 400.86 175.353C401.01 175.506 401.095 175.712 401.095 175.927C401.091 176.139 401.005 176.342 400.855 176.492C400.705 176.642 400.503 176.728 400.29 176.731Z" fill="#e6f7f1"/>
</g>
<g style="mix-blend-mode:screen">
<path d="M400.29 182.893H378.619C378.405 182.893 378.199 182.808 378.046 182.658C377.893 182.507 377.805 182.303 377.801 182.088C377.801 181.871 377.888 181.663 378.041 181.51C378.194 181.357 378.402 181.271 378.619 181.271H400.29C400.505 181.274 400.709 181.362 400.86 181.515C401.01 181.668 401.095 181.874 401.095 182.088C401.091 182.301 401.005 182.503 400.855 182.653C400.705 182.803 400.503 182.889 400.29 182.893Z" fill="#e6f7f1"/>
</g>
<g style="mix-blend-mode:screen">
<path d="M400.29 186.151H378.619C378.512 186.152 378.406 186.133 378.307 186.093C378.208 186.054 378.118 185.995 378.042 185.92C377.966 185.845 377.905 185.756 377.864 185.657C377.823 185.559 377.801 185.453 377.801 185.346C377.801 185.24 377.823 185.134 377.864 185.035C377.905 184.937 377.966 184.848 378.042 184.773C378.118 184.698 378.208 184.639 378.307 184.599C378.406 184.56 378.512 184.54 378.619 184.542H400.29C400.504 184.542 400.708 184.627 400.859 184.778C401.01 184.928 401.095 185.133 401.095 185.346C401.095 185.56 401.01 185.764 400.859 185.915C400.708 186.066 400.504 186.151 400.29 186.151Z" fill="#e6f7f1"/>
</g>
<g style="mix-blend-mode:screen">
<path d="M397.823 179.758H381.018C380.911 179.758 380.806 179.736 380.707 179.695C380.609 179.654 380.519 179.593 380.445 179.517C380.37 179.441 380.311 179.351 380.271 179.252C380.232 179.152 380.212 179.046 380.214 178.94C380.212 178.834 380.232 178.728 380.271 178.63C380.311 178.531 380.37 178.442 380.445 178.367C380.52 178.292 380.61 178.233 380.708 178.193C380.807 178.153 380.912 178.134 381.018 178.135H397.823C397.93 178.134 398.036 178.153 398.135 178.193C398.234 178.232 398.325 178.291 398.401 178.366C398.477 178.441 398.537 178.53 398.579 178.629C398.62 178.727 398.641 178.833 398.641 178.94C398.641 179.047 398.62 179.153 398.579 179.253C398.538 179.352 398.478 179.442 398.402 179.518C398.326 179.594 398.236 179.654 398.136 179.695C398.037 179.736 397.931 179.758 397.823 179.758Z" fill="#e6f7f1"/>
</g>
<g style="mix-blend-mode:screen">
<path d="M435.632 176.731H413.92C413.707 176.731 413.502 176.646 413.351 176.495C413.201 176.345 413.116 176.14 413.116 175.927C413.114 175.82 413.134 175.714 413.173 175.615C413.213 175.516 413.272 175.425 413.347 175.349C413.421 175.273 413.511 175.213 413.609 175.171C413.708 175.13 413.813 175.109 413.92 175.109H435.591C435.698 175.109 435.804 175.13 435.902 175.171C436.001 175.213 436.09 175.273 436.165 175.349C436.24 175.425 436.299 175.516 436.338 175.615C436.378 175.714 436.397 175.82 436.395 175.927C436.396 176.133 436.317 176.332 436.175 176.481C436.033 176.631 435.838 176.721 435.632 176.731Z" fill="#e6f7f1"/>
</g>
<g style="mix-blend-mode:screen">
<path d="M435.632 182.893H413.92C413.707 182.893 413.502 182.808 413.351 182.657C413.201 182.506 413.116 182.302 413.116 182.088C413.114 181.982 413.134 181.876 413.173 181.776C413.213 181.677 413.272 181.587 413.347 181.511C413.421 181.435 413.511 181.374 413.609 181.333C413.708 181.292 413.813 181.27 413.92 181.271H435.591C435.698 181.27 435.804 181.292 435.902 181.333C436.001 181.374 436.09 181.435 436.165 181.511C436.24 181.587 436.299 181.677 436.338 181.776C436.378 181.876 436.397 181.982 436.395 182.088C436.396 182.295 436.317 182.493 436.175 182.643C436.033 182.793 435.838 182.882 435.632 182.893Z" fill="#e6f7f1"/>
</g>
<g style="mix-blend-mode:screen">
<path d="M435.632 186.151H413.92C413.814 186.152 413.709 186.133 413.61 186.093C413.512 186.053 413.422 185.994 413.347 185.919C413.272 185.844 413.213 185.755 413.173 185.656C413.134 185.558 413.114 185.452 413.116 185.346C413.114 185.24 413.134 185.135 413.173 185.036C413.213 184.938 413.272 184.849 413.347 184.774C413.422 184.698 413.512 184.639 413.61 184.6C413.709 184.56 413.814 184.54 413.92 184.542H435.591C435.697 184.54 435.803 184.56 435.901 184.6C436 184.639 436.089 184.698 436.164 184.774C436.239 184.849 436.298 184.938 436.338 185.036C436.378 185.135 436.397 185.24 436.395 185.346C436.399 185.554 436.321 185.754 436.178 185.905C436.036 186.055 435.839 186.143 435.632 186.151Z" fill="#e6f7f1"/>
</g>
<g style="mix-blend-mode:screen">
<path d="M433.206 179.758H416.387C416.173 179.754 415.968 179.666 415.818 179.513C415.667 179.36 415.583 179.154 415.583 178.94C415.583 178.726 415.668 178.522 415.818 178.371C415.969 178.22 416.174 178.135 416.387 178.135H433.206C433.312 178.134 433.418 178.153 433.516 178.193C433.614 178.233 433.704 178.292 433.779 178.367C433.854 178.442 433.913 178.531 433.953 178.63C433.993 178.728 434.012 178.834 434.01 178.94C434.012 179.046 433.993 179.152 433.953 179.252C433.913 179.351 433.854 179.441 433.78 179.517C433.705 179.593 433.615 179.654 433.517 179.695C433.419 179.736 433.313 179.758 433.206 179.758Z" fill="#e6f7f1"/>
</g>
<g style="mix-blend-mode:screen">
<path d="M471.615 176.731H449.943C449.731 176.728 449.529 176.642 449.379 176.492C449.229 176.342 449.143 176.139 449.139 175.927C449.139 175.712 449.223 175.506 449.374 175.353C449.524 175.2 449.729 175.112 449.943 175.109H471.615C471.831 175.109 472.039 175.195 472.193 175.348C472.346 175.502 472.432 175.71 472.432 175.927C472.429 176.141 472.341 176.346 472.188 176.496C472.035 176.647 471.829 176.731 471.615 176.731Z" fill="#e6f7f1"/>
</g>
<g style="mix-blend-mode:screen">
<path d="M471.615 182.893H449.943C449.731 182.889 449.529 182.803 449.379 182.653C449.229 182.503 449.143 182.301 449.139 182.088C449.139 181.874 449.223 181.668 449.374 181.515C449.524 181.362 449.729 181.274 449.943 181.271H471.615C471.831 181.271 472.039 181.357 472.193 181.51C472.346 181.663 472.432 181.871 472.432 182.088C472.429 182.303 472.341 182.507 472.188 182.658C472.035 182.808 471.829 182.893 471.615 182.893Z" fill="#e6f7f1"/>
</g>
<g style="mix-blend-mode:screen">
<path d="M471.615 186.151H449.943C449.73 186.151 449.526 186.066 449.375 185.915C449.224 185.764 449.139 185.56 449.139 185.346C449.139 185.133 449.224 184.928 449.375 184.778C449.526 184.627 449.73 184.542 449.943 184.542H471.615C471.721 184.54 471.827 184.56 471.926 184.599C472.026 184.639 472.116 184.698 472.192 184.773C472.268 184.848 472.329 184.937 472.37 185.035C472.411 185.134 472.432 185.24 472.432 185.346C472.432 185.453 472.411 185.559 472.37 185.657C472.329 185.756 472.268 185.845 472.192 185.92C472.116 185.995 472.026 186.054 471.926 186.093C471.827 186.133 471.721 186.152 471.615 186.151Z" fill="#e6f7f1"/>
</g>
<g style="mix-blend-mode:screen">
<path d="M469.188 179.758H452.383C452.166 179.758 451.958 179.671 451.805 179.518C451.651 179.365 451.565 179.157 451.565 178.94C451.565 178.833 451.587 178.727 451.628 178.629C451.669 178.53 451.73 178.441 451.806 178.366C451.882 178.291 451.972 178.232 452.071 178.193C452.17 178.153 452.276 178.134 452.383 178.135H469.188C469.295 178.134 469.4 178.153 469.498 178.193C469.597 178.233 469.686 178.292 469.761 178.367C469.836 178.442 469.895 178.531 469.935 178.63C469.975 178.728 469.995 178.834 469.993 178.94C469.994 179.046 469.975 179.152 469.935 179.252C469.896 179.351 469.837 179.441 469.762 179.517C469.687 179.593 469.598 179.654 469.499 179.695C469.401 179.736 469.295 179.758 469.188 179.758Z" fill="#e6f7f1"/>
</g>
<path d="M497.811 202.876H351.782V206.625H497.811V202.876Z" fill="#12b981"/>
<path d="M416.483 220.297H374.271V261.491H416.483V220.297Z" fill="#12b981"/>
<path d="M473.686 223.555H424.456C424.241 223.557 424.027 223.516 423.828 223.434C423.628 223.353 423.447 223.232 423.295 223.08C423.143 222.928 423.023 222.747 422.941 222.548C422.859 222.348 422.818 222.135 422.82 221.919C422.82 221.486 422.993 221.07 423.299 220.763C423.606 220.456 424.022 220.284 424.456 220.284H473.686C474.12 220.284 474.536 220.456 474.843 220.763C475.15 221.07 475.322 221.486 475.322 221.919C475.322 222.353 475.15 222.769 474.843 223.076C474.536 223.383 474.12 223.555 473.686 223.555Z" fill="#12b981"/>
<path d="M473.686 229.239H424.456C424.022 229.239 423.606 229.067 423.299 228.76C422.993 228.453 422.82 228.037 422.82 227.604C422.82 227.17 422.993 226.754 423.299 226.447C423.606 226.14 424.022 225.968 424.456 225.968H473.686C474.12 225.968 474.536 226.14 474.843 226.447C475.15 226.754 475.322 227.17 475.322 227.604C475.322 228.037 475.15 228.453 474.843 228.76C474.536 229.067 474.12 229.239 473.686 229.239Z" fill="#12b981"/>
<path d="M473.686 240.88H424.456C424.022 240.88 423.606 240.708 423.299 240.401C422.993 240.095 422.82 239.678 422.82 239.245C422.82 238.811 422.993 238.395 423.299 238.088C423.606 237.781 424.022 237.609 424.456 237.609H473.686C474.12 237.609 474.536 237.781 474.843 238.088C475.15 238.395 475.322 238.811 475.322 239.245C475.322 239.678 475.15 240.095 474.843 240.401C474.536 240.708 474.12 240.88 473.686 240.88Z" fill="#12b981"/>
<path d="M463.791 246.088H424.374C423.516 246.088 422.82 246.784 422.82 247.642V247.805C422.82 248.664 423.516 249.359 424.374 249.359H463.791C464.649 249.359 465.345 248.664 465.345 247.805V247.642C465.345 246.784 464.649 246.088 463.791 246.088Z" fill="#12b981"/>
<path d="M473.686 234.91H424.456C424.241 234.912 424.027 234.871 423.828 234.789C423.628 234.708 423.447 234.587 423.295 234.435C423.143 234.283 423.023 234.102 422.941 233.903C422.859 233.703 422.818 233.49 422.82 233.274C422.82 232.841 422.993 232.425 423.299 232.118C423.606 231.811 424.022 231.639 424.456 231.639H473.686C474.12 231.639 474.536 231.811 474.843 232.118C475.15 232.425 475.322 232.841 475.322 233.274C475.322 233.708 475.15 234.124 474.843 234.431C474.536 234.738 474.12 234.91 473.686 234.91Z" fill="#12b981"/>
<path d="M472.978 254.525H425.165C423.87 254.525 422.82 255.575 422.82 256.87V259.133C422.82 260.428 423.87 261.477 425.165 261.477H472.978C474.272 261.477 475.322 260.428 475.322 259.133V256.87C475.322 255.575 474.272 254.525 472.978 254.525Z" fill="#12b981"/>
</g>
<path d="M265.07 140.281C265.432 140.281 265.778 140.137 266.034 139.882C266.29 139.626 266.433 139.279 266.433 138.918V129.376C266.433 129.014 266.29 128.668 266.034 128.412C265.778 128.156 265.432 128.013 265.07 128.013C264.709 128.013 264.362 128.156 264.106 128.412C263.851 128.668 263.707 129.014 263.707 129.376V138.918C263.707 139.279 263.851 139.626 264.106 139.882C264.362 140.137 264.709 140.281 265.07 140.281Z" fill="#12b981"/>
<path d="M264.934 154.498C265.295 154.498 265.642 154.355 265.898 154.099C266.153 153.844 266.297 153.497 266.297 153.135V146.947C266.297 146.585 266.153 146.238 265.898 145.983C265.642 145.727 265.295 145.583 264.934 145.583C264.572 145.583 264.226 145.727 263.97 145.983C263.714 146.238 263.571 146.585 263.571 146.947V153.135C263.571 153.497 263.714 153.844 263.97 154.099C264.226 154.355 264.572 154.498 264.934 154.498Z" fill="#12b981"/>
<path d="M271.817 222.41H326.99C330.799 222.41 333.886 219.322 333.886 215.513V98.3782C333.886 94.5688 330.799 91.4807 326.99 91.4807H271.817C268.008 91.4807 264.92 94.5688 264.92 98.3782V215.513C264.92 219.322 268.008 222.41 271.817 222.41Z" fill="#12b981"/>
<g style="mix-blend-mode:multiply">
<path d="M305.891 98.2824H292.943C292.581 98.2824 292.235 98.1388 291.979 97.8832C291.724 97.6275 291.58 97.2808 291.58 96.9193C291.58 96.5578 291.724 96.211 291.979 95.9554C292.235 95.6998 292.581 95.5562 292.943 95.5562H305.891C306.253 95.5562 306.599 95.6998 306.855 95.9554C307.111 96.211 307.254 96.5578 307.254 96.9193C307.254 97.2808 307.111 97.6275 306.855 97.8832C306.599 98.1388 306.253 98.2824 305.891 98.2824Z" fill="#BFBFBF"/>
</g>
<g style="mix-blend-mode:screen">
<path d="M324.945 215.581H271.367C270.268 215.581 269.377 216.472 269.377 217.571V217.734C269.377 218.833 270.268 219.725 271.367 219.725H324.945C326.044 219.725 326.935 218.833 326.935 217.734V217.571C326.935 216.472 326.044 215.581 324.945 215.581Z" fill="#0D0D0D"/>
</g>
<g style="mix-blend-mode:screen">
<path d="M308.181 215.581H271.367C270.268 215.581 269.377 216.472 269.377 217.571V217.734C269.377 218.833 270.268 219.725 271.367 219.725H308.181C309.28 219.725 310.171 218.833 310.171 217.734V217.571C310.171 216.472 309.28 215.581 308.181 215.581Z" fill="#0D0D0D"/>
</g>
<g style="mix-blend-mode:screen">
<path d="M287.845 98.7187H271.49C270.945 98.7115 270.425 98.49 270.042 98.1022C269.66 97.7144 269.445 97.1915 269.445 96.6467C269.445 96.0972 269.664 95.5701 270.052 95.1816C270.441 94.793 270.968 94.5747 271.517 94.5747H287.873C288.413 94.5889 288.926 94.8135 289.302 95.2005C289.679 95.5876 289.89 96.1065 289.89 96.6467C289.89 97.1915 289.675 97.7144 289.293 98.1022C288.91 98.49 288.39 98.7115 287.845 98.7187Z" fill="#0D0D0D"/>
</g>
<g style="mix-blend-mode:screen">
<path d="M330.288 145.87C329.955 145.865 329.635 145.739 329.389 145.515C321.797 138.209 327.958 131.134 328.026 131.066C328.263 130.821 328.584 130.673 328.925 130.653C329.265 130.633 329.601 130.741 329.866 130.957C330.115 131.195 330.265 131.519 330.285 131.862C330.305 132.206 330.194 132.545 329.975 132.811C329.498 133.342 325.559 138.195 331.202 143.621C331.435 143.873 331.565 144.204 331.565 144.547C331.565 144.891 331.435 145.222 331.202 145.474C331.083 145.598 330.942 145.696 330.785 145.764C330.628 145.832 330.459 145.868 330.288 145.87Z" fill="#333333"/>
</g>
<g style="mix-blend-mode:screen">
<path d="M299.403 107.32C314.36 107.32 326.486 106.411 326.486 105.289C326.486 104.167 314.36 103.258 299.403 103.258C284.446 103.258 272.321 104.167 272.321 105.289C272.321 106.411 284.446 107.32 299.403 107.32Z" fill="#4D4D4D"/>
</g>
<mask id="mask3_4445_5426" style="mask-type:luminance" maskUnits="userSpaceOnUse" x="267" y="101" width="65" height="113">
<path d="M327.876 101.05H270.931C269.117 101.05 267.646 102.521 267.646 104.335V210.646C267.646 212.461 269.117 213.931 270.931 213.931H327.876C329.69 213.931 331.161 212.461 331.161 210.646V104.335C331.161 102.521 329.69 101.05 327.876 101.05Z" fill="white"/>
</mask>
<g mask="url(#mask3_4445_5426)">
<path d="M338.63 100.941H260.191V214.041H338.63V100.941Z" fill="white"/>
<path d="M293.706 193.539H270.999V211.955H293.706V193.539Z" fill="#12b981"/>
<path d="M338.63 100.941H260.191V123.051H338.63V100.941Z" fill="#12b981"/>
<path d="M280.922 108.111C280.932 108.97 280.687 109.814 280.218 110.534C279.748 111.254 279.075 111.818 278.284 112.154C277.493 112.491 276.62 112.584 275.776 112.423C274.931 112.262 274.154 111.854 273.542 111.25C272.931 110.646 272.512 109.874 272.341 109.031C272.169 108.189 272.252 107.315 272.578 106.519C272.904 105.724 273.46 105.044 274.174 104.565C274.888 104.086 275.728 103.831 276.587 103.831C277.728 103.827 278.825 104.275 279.637 105.077C280.449 105.879 280.911 106.97 280.922 108.111Z" fill="#e6f7f1"/>
<g style="mix-blend-mode:screen">
<path d="M314.342 105.753H283.075C282.88 105.753 282.693 105.675 282.555 105.537C282.417 105.399 282.339 105.212 282.339 105.017C282.339 104.92 282.358 104.824 282.395 104.735C282.432 104.646 282.486 104.565 282.555 104.496C282.623 104.428 282.704 104.374 282.793 104.337C282.883 104.3 282.978 104.281 283.075 104.281H314.287C314.384 104.281 314.479 104.3 314.569 104.337C314.658 104.374 314.739 104.428 314.807 104.496C314.876 104.565 314.93 104.646 314.967 104.735C315.004 104.824 315.023 104.92 315.023 105.017C315.024 105.203 314.953 105.382 314.827 105.519C314.701 105.656 314.527 105.739 314.342 105.753Z" fill="#e6f7f1"/>
</g>
<g style="mix-blend-mode:screen">
<path d="M304.283 108.438H283.075C282.88 108.438 282.693 108.36 282.555 108.222C282.417 108.084 282.339 107.897 282.339 107.702C282.339 107.505 282.416 107.317 282.554 107.176C282.691 107.036 282.879 106.956 283.075 106.952H304.228C304.427 106.952 304.618 107.031 304.758 107.172C304.899 107.312 304.978 107.503 304.978 107.702C304.975 107.889 304.902 108.069 304.773 108.205C304.645 108.341 304.47 108.424 304.283 108.438Z" fill="#e6f7f1"/>
</g>
<g style="mix-blend-mode:screen">
<g style="mix-blend-mode:screen">
<path d="M281.862 119.575H273.112C272.888 119.575 272.673 119.486 272.514 119.328C272.356 119.169 272.267 118.954 272.267 118.73C272.267 118.506 272.356 118.291 272.514 118.132C272.673 117.974 272.888 117.885 273.112 117.885H281.862C282.086 117.885 282.301 117.974 282.46 118.132C282.618 118.291 282.707 118.506 282.707 118.73C282.707 118.954 282.618 119.169 282.46 119.328C282.301 119.486 282.086 119.575 281.862 119.575Z" fill="#e6f7f1"/>
</g>
<g style="mix-blend-mode:screen">
<path d="M296.255 119.575H287.505C287.281 119.575 287.066 119.486 286.907 119.328C286.749 119.169 286.66 118.954 286.66 118.73C286.66 118.506 286.749 118.291 286.907 118.132C287.066 117.974 287.281 117.885 287.505 117.885H296.255C296.479 117.885 296.694 117.974 296.852 118.132C297.011 118.291 297.1 118.506 297.1 118.73C297.1 118.954 297.011 119.169 296.852 119.328C296.694 119.486 296.479 119.575 296.255 119.575Z" fill="#e6f7f1"/>
</g>
<g style="mix-blend-mode:screen">
<path d="M311.316 119.575H302.565C302.341 119.575 302.126 119.486 301.968 119.328C301.81 119.169 301.72 118.954 301.72 118.73C301.72 118.506 301.81 118.291 301.968 118.132C302.126 117.974 302.341 117.885 302.565 117.885H311.316C311.54 117.885 311.755 117.974 311.913 118.132C312.072 118.291 312.161 118.506 312.161 118.73C312.161 118.954 312.072 119.169 311.913 119.328C311.755 119.486 311.54 119.575 311.316 119.575Z" fill="#e6f7f1"/>
</g>
<g style="mix-blend-mode:screen">
<path d="M325.709 119.575H316.958C316.734 119.575 316.519 119.486 316.361 119.328C316.202 119.169 316.113 118.954 316.113 118.73C316.113 118.506 316.202 118.291 316.361 118.132C316.519 117.974 316.734 117.885 316.958 117.885H325.709C325.933 117.885 326.148 117.974 326.306 118.132C326.465 118.291 326.554 118.506 326.554 118.73C326.554 118.954 326.465 119.169 326.306 119.328C326.148 119.486 325.933 119.575 325.709 119.575Z" fill="#e6f7f1"/>
</g>
</g>
<path d="M326.554 113.482L325.395 111.274C325.788 110.792 326.004 110.191 326.009 109.57V109.447C326.009 108.724 325.721 108.03 325.21 107.519C324.699 107.008 324.006 106.721 323.283 106.721H318.103C317.38 106.721 316.687 107.008 316.176 107.519C315.665 108.03 315.377 108.724 315.377 109.447V109.57C315.377 110.293 315.665 110.986 316.176 111.497C316.687 112.009 317.38 112.296 318.103 112.296H323.283C323.658 112.297 324.03 112.218 324.373 112.064L326.554 113.482Z" fill="#e6f7f1"/>
<g style="mix-blend-mode:screen">
<path d="M323.446 109.379H317.504C317.447 109.375 317.393 109.351 317.353 109.311C317.313 109.271 317.289 109.217 317.286 109.16C317.286 109.103 317.308 109.047 317.349 109.006C317.39 108.965 317.446 108.942 317.504 108.942H323.446C323.504 108.942 323.559 108.965 323.6 109.006C323.641 109.047 323.664 109.103 323.664 109.16C323.661 109.217 323.637 109.271 323.597 109.311C323.557 109.351 323.503 109.375 323.446 109.379Z" fill="#e6f7f1"/>
</g>
<g style="mix-blend-mode:screen">
<path d="M323.446 110.183H317.504C317.446 110.183 317.39 110.16 317.349 110.119C317.308 110.078 317.286 110.023 317.286 109.965C317.286 109.907 317.308 109.851 317.349 109.81C317.39 109.77 317.446 109.747 317.504 109.747H323.446C323.504 109.747 323.559 109.77 323.6 109.81C323.641 109.851 323.664 109.907 323.664 109.965C323.664 110.023 323.641 110.078 323.6 110.119C323.559 110.16 323.504 110.183 323.446 110.183Z" fill="#e6f7f1"/>
</g>
<path d="M311.561 115.158L312.556 113.236C312.217 112.821 312.034 112.3 312.038 111.764V111.655C312.032 111.341 312.09 111.029 312.208 110.738C312.327 110.447 312.502 110.182 312.725 109.961C312.948 109.739 313.213 109.565 313.505 109.449C313.797 109.332 314.109 109.276 314.423 109.283H318.907C319.218 109.281 319.525 109.342 319.811 109.461C320.097 109.58 320.357 109.755 320.574 109.976C320.792 110.198 320.962 110.46 321.076 110.748C321.19 111.037 321.245 111.345 321.238 111.655V111.764C321.24 112.071 321.181 112.375 321.064 112.658C320.948 112.942 320.776 113.2 320.56 113.417C320.343 113.633 320.085 113.805 319.801 113.921C319.518 114.038 319.214 114.097 318.907 114.095H314.423C314.1 114.095 313.78 114.03 313.483 113.904L311.561 115.158Z" fill="#e6f7f1"/>
<g style="mix-blend-mode:screen">
<path d="M319.507 111.315H313.578C313.52 111.315 313.465 111.292 313.424 111.251C313.383 111.21 313.36 111.154 313.36 111.097C313.36 111.039 313.383 110.983 313.424 110.942C313.465 110.901 313.52 110.878 313.578 110.878H319.507C319.565 110.878 319.621 110.901 319.661 110.942C319.702 110.983 319.725 111.039 319.725 111.097C319.725 111.154 319.702 111.21 319.661 111.251C319.621 111.292 319.565 111.315 319.507 111.315Z" fill="#e6f7f1"/>
</g>
<g style="mix-blend-mode:screen">
<path d="M318.989 112.119H313.537C313.48 112.119 313.424 112.096 313.383 112.055C313.342 112.014 313.319 111.959 313.319 111.901C313.319 111.843 313.342 111.787 313.383 111.746C313.424 111.706 313.48 111.683 313.537 111.683H318.989C319.047 111.683 319.103 111.706 319.143 111.746C319.184 111.787 319.207 111.843 319.207 111.901C319.207 111.959 319.184 112.014 319.143 112.055C319.103 112.096 319.047 112.119 318.989 112.119Z" fill="#e6f7f1"/>
</g>
<g style="mix-blend-mode:screen">
<path d="M317.463 112.909H313.578C313.52 112.909 313.465 112.886 313.424 112.845C313.383 112.805 313.36 112.749 313.36 112.691C313.36 112.633 313.383 112.578 313.424 112.537C313.465 112.496 313.52 112.473 313.578 112.473H317.463C317.521 112.473 317.576 112.496 317.617 112.537C317.658 112.578 317.681 112.633 317.681 112.691C317.681 112.749 317.658 112.805 317.617 112.845C317.576 112.886 317.521 112.909 317.463 112.909Z" fill="#e6f7f1"/>
</g>
<g style="mix-blend-mode:screen">
<path d="M276.587 110.96C278.16 110.96 279.436 109.685 279.436 108.111C279.436 106.538 278.16 105.262 276.587 105.262C275.014 105.262 273.739 106.538 273.739 108.111C273.739 109.685 275.014 110.96 276.587 110.96Z" fill="#595959"/>
</g>
<path d="M279.586 143.757C277.515 143.757 275.528 142.934 274.063 141.47C272.599 140.005 271.776 138.018 271.776 135.947C271.774 134.92 271.975 133.904 272.367 132.955C272.759 132.007 273.334 131.145 274.059 130.419C274.785 129.694 275.647 129.119 276.595 128.727C277.543 128.335 278.56 128.134 279.586 128.136C280.611 128.136 281.626 128.338 282.572 128.731C283.519 129.123 284.379 129.699 285.103 130.424C285.828 131.15 286.402 132.011 286.793 132.959C287.183 133.906 287.384 134.921 287.382 135.947C287.382 138.016 286.561 140 285.099 141.465C283.638 142.929 281.655 143.754 279.586 143.757Z" fill="#12b981"/>
<g style="mix-blend-mode:screen">
<path d="M279.586 141.181C282.476 141.181 284.82 138.837 284.82 135.946C284.82 133.055 282.476 130.712 279.586 130.712C276.695 130.712 274.352 133.055 274.352 135.946C274.352 138.837 276.695 141.181 279.586 141.181Z" fill="#12b981"/>
</g>
<g style="mix-blend-mode:multiply">
<path d="M326.404 131.298H293.979C293.809 131.298 293.646 131.23 293.526 131.11C293.406 130.99 293.338 130.827 293.338 130.657C293.338 130.487 293.406 130.324 293.526 130.204C293.646 130.084 293.809 130.017 293.979 130.017H326.417C326.502 130.017 326.585 130.033 326.663 130.065C326.74 130.098 326.811 130.145 326.87 130.204C326.93 130.264 326.977 130.334 327.009 130.412C327.042 130.49 327.058 130.573 327.058 130.657C327.058 130.743 327.041 130.827 327.008 130.906C326.975 130.984 326.927 131.056 326.866 131.115C326.805 131.175 326.733 131.222 326.653 131.253C326.574 131.285 326.489 131.3 326.404 131.298Z" fill="#12b981"/>
</g>
<g style="mix-blend-mode:multiply">
<path d="M326.404 136.546H293.979C293.809 136.546 293.646 136.479 293.526 136.358C293.406 136.238 293.338 136.075 293.338 135.905C293.338 135.735 293.406 135.572 293.526 135.452C293.646 135.332 293.809 135.265 293.979 135.265H326.417C326.502 135.265 326.585 135.281 326.663 135.313C326.74 135.346 326.811 135.393 326.87 135.452C326.93 135.512 326.977 135.582 327.009 135.66C327.042 135.738 327.058 135.821 327.058 135.905C327.058 135.991 327.041 136.075 327.008 136.154C326.975 136.232 326.927 136.304 326.866 136.363C326.805 136.423 326.733 136.47 326.653 136.501C326.574 136.533 326.489 136.548 326.404 136.546Z" fill="#12b981"/>
</g>
<g style="mix-blend-mode:multiply">
<path d="M326.404 139.273H293.979C293.809 139.273 293.646 139.205 293.526 139.085C293.406 138.965 293.338 138.802 293.338 138.632C293.338 138.462 293.406 138.299 293.526 138.179C293.646 138.059 293.809 137.991 293.979 137.991H326.417C326.502 137.991 326.585 138.008 326.663 138.04C326.74 138.072 326.811 138.119 326.87 138.179C326.93 138.238 326.977 138.309 327.009 138.387C327.042 138.464 327.058 138.548 327.058 138.632C327.058 138.717 327.041 138.802 327.008 138.88C326.975 138.959 326.927 139.03 326.866 139.09C326.805 139.149 326.733 139.196 326.653 139.228C326.574 139.259 326.489 139.274 326.404 139.273Z" fill="#12b981"/>
</g>
<g style="mix-blend-mode:multiply">
<path d="M326.404 141.863H293.979C293.809 141.863 293.646 141.795 293.526 141.675C293.406 141.555 293.338 141.392 293.338 141.222C293.352 141.062 293.425 140.912 293.544 140.804C293.663 140.695 293.818 140.635 293.979 140.636H326.417C326.502 140.636 326.585 140.652 326.663 140.685C326.74 140.717 326.811 140.764 326.87 140.823C326.93 140.883 326.977 140.954 327.009 141.031C327.042 141.109 327.058 141.192 327.058 141.276C327.044 141.439 326.969 141.59 326.847 141.699C326.726 141.808 326.567 141.867 326.404 141.863Z" fill="#12b981"/>
</g>
<g style="mix-blend-mode:multiply">
<path d="M326.404 133.82H293.979C293.809 133.82 293.646 133.752 293.526 133.632C293.406 133.512 293.338 133.349 293.338 133.179C293.338 133.009 293.406 132.846 293.526 132.726C293.646 132.606 293.809 132.539 293.979 132.539H326.417C326.502 132.539 326.585 132.555 326.663 132.587C326.74 132.62 326.811 132.667 326.87 132.726C326.93 132.786 326.977 132.856 327.009 132.934C327.042 133.012 327.058 133.095 327.058 133.179C327.058 133.265 327.041 133.349 327.008 133.428C326.975 133.506 326.927 133.577 326.866 133.637C326.805 133.697 326.733 133.744 326.653 133.775C326.574 133.807 326.489 133.822 326.404 133.82Z" fill="#12b981"/>
</g>
<path d="M279.586 162.814C278.561 162.816 277.546 162.615 276.598 162.224C275.651 161.833 274.79 161.259 274.064 160.535C273.339 159.811 272.763 158.951 272.371 158.004C271.978 157.057 271.776 156.042 271.776 155.017C271.774 153.991 271.975 152.974 272.367 152.026C272.759 151.077 273.334 150.215 274.059 149.49C274.785 148.764 275.647 148.189 276.595 147.797C277.543 147.405 278.56 147.204 279.586 147.206C280.611 147.206 281.626 147.408 282.572 147.801C283.519 148.194 284.379 148.769 285.103 149.495C285.828 150.22 286.402 151.081 286.793 152.029C287.183 152.976 287.384 153.992 287.382 155.017C287.382 156.041 287.18 157.055 286.789 158.001C286.397 158.947 285.823 159.806 285.099 160.53C284.375 161.254 283.515 161.829 282.569 162.22C281.623 162.612 280.61 162.814 279.586 162.814Z" fill="#12b981"/>
<g style="mix-blend-mode:screen">
<path d="M279.586 160.251C282.476 160.251 284.82 157.908 284.82 155.017C284.82 152.126 282.476 149.782 279.586 149.782C276.695 149.782 274.352 152.126 274.352 155.017C274.352 157.908 276.695 160.251 279.586 160.251Z" fill="#12b981"/>
</g>
<g style="mix-blend-mode:multiply">
<path d="M326.049 150.368H293.611C293.527 150.368 293.443 150.352 293.366 150.32C293.288 150.287 293.217 150.24 293.158 150.181C293.098 150.121 293.051 150.05 293.019 149.973C292.987 149.895 292.97 149.812 292.97 149.728C292.97 149.643 292.987 149.56 293.019 149.482C293.051 149.405 293.098 149.334 293.158 149.275C293.217 149.215 293.288 149.168 293.366 149.136C293.443 149.103 293.527 149.087 293.611 149.087H326.049C326.219 149.087 326.382 149.154 326.502 149.275C326.623 149.395 326.69 149.558 326.69 149.728C326.69 149.898 326.623 150.06 326.502 150.181C326.382 150.301 326.219 150.368 326.049 150.368Z" fill="#12b981"/>
</g>
<g style="mix-blend-mode:multiply">
<path d="M326.049 155.63H293.611C293.527 155.63 293.443 155.613 293.366 155.581C293.288 155.549 293.217 155.502 293.158 155.442C293.098 155.383 293.051 155.312 293.019 155.234C292.987 155.157 292.97 155.073 292.97 154.989C292.97 154.905 292.987 154.822 293.019 154.744C293.051 154.666 293.098 154.596 293.158 154.536C293.217 154.477 293.288 154.43 293.366 154.397C293.443 154.365 293.527 154.349 293.611 154.349H326.049C326.219 154.349 326.382 154.416 326.502 154.536C326.623 154.656 326.69 154.819 326.69 154.989C326.69 155.159 326.623 155.322 326.502 155.442C326.382 155.562 326.219 155.63 326.049 155.63Z" fill="#12b981"/>
</g>
<g style="mix-blend-mode:multiply">
<path d="M326.049 158.357H293.611C293.527 158.357 293.443 158.34 293.366 158.308C293.288 158.276 293.217 158.228 293.158 158.169C293.098 158.109 293.051 158.039 293.019 157.961C292.987 157.883 292.97 157.8 292.97 157.716C292.97 157.632 292.987 157.548 293.019 157.471C293.051 157.393 293.098 157.322 293.158 157.263C293.217 157.203 293.288 157.156 293.366 157.124C293.443 157.092 293.527 157.075 293.611 157.075H326.049C326.219 157.075 326.382 157.143 326.502 157.263C326.623 157.383 326.69 157.546 326.69 157.716C326.69 157.886 326.623 158.049 326.502 158.169C326.382 158.289 326.219 158.357 326.049 158.357Z" fill="#12b981"/>
</g>
<g style="mix-blend-mode:multiply">
<path d="M326.049 160.933H293.611C293.527 160.933 293.443 160.916 293.366 160.884C293.288 160.852 293.217 160.805 293.158 160.745C293.098 160.686 293.051 160.615 293.019 160.537C292.987 160.459 292.97 160.376 292.97 160.292C292.97 160.208 292.987 160.125 293.019 160.047C293.051 159.969 293.098 159.899 293.158 159.839C293.217 159.78 293.288 159.732 293.366 159.7C293.443 159.668 293.527 159.651 293.611 159.651H326.049C326.219 159.651 326.382 159.719 326.502 159.839C326.623 159.959 326.69 160.122 326.69 160.292C326.69 160.462 326.623 160.625 326.502 160.745C326.382 160.865 326.219 160.933 326.049 160.933Z" fill="#12b981"/>
</g>
<g style="mix-blend-mode:multiply">
<path d="M326.049 152.904H293.611C293.527 152.904 293.443 152.887 293.366 152.855C293.288 152.823 293.217 152.776 293.158 152.716C293.098 152.657 293.051 152.586 293.019 152.508C292.987 152.431 292.97 152.347 292.97 152.263C292.97 152.179 292.987 152.096 293.019 152.018C293.051 151.94 293.098 151.87 293.158 151.81C293.217 151.751 293.288 151.704 293.366 151.671C293.443 151.639 293.527 151.623 293.611 151.623H326.049C326.219 151.623 326.382 151.69 326.502 151.81C326.623 151.93 326.69 152.093 326.69 152.263C326.69 152.433 326.623 152.596 326.502 152.716C326.382 152.836 326.219 152.904 326.049 152.904Z" fill="#12b981"/>
</g>
<path d="M279.586 183.356C278.56 183.358 277.543 183.157 276.595 182.766C275.647 182.374 274.785 181.798 274.059 181.073C273.334 180.347 272.759 179.485 272.367 178.537C271.975 177.588 271.774 176.572 271.776 175.546C271.776 174.521 271.978 173.506 272.371 172.559C272.763 171.612 273.339 170.752 274.064 170.027C274.79 169.303 275.651 168.729 276.598 168.338C277.546 167.947 278.561 167.747 279.586 167.749C280.61 167.749 281.623 167.95 282.569 168.342C283.515 168.734 284.375 169.308 285.099 170.032C285.823 170.756 286.397 171.616 286.789 172.562C287.18 173.508 287.382 174.522 287.382 175.546C287.384 176.571 287.183 177.586 286.793 178.534C286.402 179.481 285.828 180.342 285.103 181.068C284.379 181.793 283.519 182.369 282.572 182.762C281.626 183.154 280.611 183.356 279.586 183.356Z" fill="#12b981"/>
<g style="mix-blend-mode:screen">
<path d="M279.586 180.78C282.476 180.78 284.82 178.436 284.82 175.545C284.82 172.655 282.476 170.311 279.586 170.311C276.695 170.311 274.352 172.655 274.352 175.545C274.352 178.436 276.695 180.78 279.586 180.78Z" fill="#12b981"/>
</g>
<g style="mix-blend-mode:multiply">
<path d="M326.404 170.911H293.979C293.809 170.911 293.646 170.843 293.526 170.723C293.406 170.603 293.338 170.44 293.338 170.27C293.338 170.1 293.406 169.937 293.526 169.817C293.646 169.697 293.809 169.629 293.979 169.629H326.417C326.502 169.629 326.585 169.646 326.663 169.678C326.74 169.71 326.811 169.758 326.87 169.817C326.93 169.877 326.977 169.947 327.009 170.025C327.042 170.103 327.058 170.186 327.058 170.27C327.058 170.355 327.041 170.44 327.008 170.518C326.975 170.597 326.927 170.668 326.866 170.728C326.805 170.788 326.733 170.835 326.653 170.866C326.574 170.897 326.489 170.913 326.404 170.911Z" fill="#12b981"/>
</g>
<g style="mix-blend-mode:multiply">
<path d="M326.404 176.186H293.979C293.809 176.186 293.646 176.119 293.526 175.998C293.406 175.878 293.338 175.715 293.338 175.545C293.338 175.376 293.406 175.213 293.526 175.092C293.646 174.972 293.809 174.905 293.979 174.905H326.417C326.502 174.905 326.585 174.921 326.663 174.954C326.74 174.986 326.811 175.033 326.87 175.092C326.93 175.152 326.977 175.223 327.009 175.3C327.042 175.378 327.058 175.461 327.058 175.545C327.058 175.631 327.041 175.715 327.008 175.794C326.975 175.872 326.927 175.944 326.866 176.003C326.805 176.063 326.733 176.11 326.653 176.141C326.574 176.173 326.489 176.188 326.404 176.186Z" fill="#12b981"/>
</g>
<g style="mix-blend-mode:multiply">
<path d="M326.404 178.913H293.979C293.809 178.913 293.646 178.845 293.526 178.725C293.406 178.605 293.338 178.442 293.338 178.272C293.338 178.101 293.405 177.936 293.525 177.814C293.645 177.692 293.808 177.621 293.979 177.618H326.417C326.589 177.621 326.752 177.692 326.871 177.814C326.991 177.936 327.058 178.101 327.058 178.272C327.058 178.357 327.041 178.442 327.008 178.52C326.975 178.599 326.927 178.67 326.866 178.73C326.805 178.79 326.733 178.836 326.653 178.868C326.574 178.899 326.489 178.914 326.404 178.913Z" fill="#12b981"/>
</g>
<g style="mix-blend-mode:multiply">
<path d="M326.404 181.53H293.979C293.809 181.53 293.646 181.462 293.526 181.342C293.406 181.222 293.338 181.059 293.338 180.889C293.327 180.798 293.334 180.706 293.361 180.619C293.388 180.531 293.434 180.451 293.494 180.382C293.555 180.314 293.63 180.259 293.713 180.222C293.797 180.185 293.887 180.166 293.979 180.167H326.417C326.502 180.167 326.585 180.183 326.663 180.215C326.74 180.247 326.811 180.295 326.87 180.354C326.93 180.414 326.977 180.484 327.009 180.562C327.042 180.64 327.058 180.723 327.058 180.807C327.07 180.899 327.062 180.992 327.034 181.081C327.006 181.169 326.96 181.251 326.898 181.319C326.835 181.388 326.759 181.442 326.674 181.479C326.589 181.515 326.496 181.532 326.404 181.53Z" fill="#12b981"/>
</g>
<g style="mix-blend-mode:multiply">
<path d="M326.404 173.474H293.979C293.809 173.474 293.646 173.406 293.526 173.286C293.406 173.166 293.338 173.003 293.338 172.833C293.338 172.663 293.406 172.5 293.526 172.38C293.646 172.26 293.809 172.192 293.979 172.192H326.417C326.502 172.192 326.585 172.209 326.663 172.241C326.74 172.273 326.811 172.321 326.87 172.38C326.93 172.44 326.977 172.51 327.009 172.588C327.042 172.666 327.058 172.749 327.058 172.833C327.058 172.918 327.041 173.003 327.008 173.081C326.975 173.16 326.927 173.231 326.866 173.291C326.805 173.351 326.733 173.398 326.653 173.429C326.574 173.46 326.489 173.476 326.404 173.474Z" fill="#12b981"/>
</g>
<path d="M338.63 187.882H260.191V189.831H338.63V187.882Z" fill="#12b981"/>
<path d="M326.363 194.916H299.349C299.258 194.916 299.168 194.898 299.085 194.863C299.001 194.828 298.926 194.776 298.862 194.711C298.799 194.647 298.749 194.57 298.715 194.486C298.682 194.401 298.666 194.311 298.667 194.221C298.667 194.04 298.739 193.867 298.867 193.739C298.995 193.611 299.168 193.539 299.349 193.539H326.363C326.544 193.539 326.717 193.611 326.845 193.739C326.973 193.867 327.044 194.04 327.044 194.221C327.046 194.311 327.03 194.401 326.996 194.486C326.963 194.57 326.913 194.647 326.85 194.711C326.786 194.776 326.71 194.828 326.627 194.863C326.543 194.898 326.454 194.916 326.363 194.916Z" fill="#12b981"/>
<path d="M326.363 198.024H299.349C299.258 198.024 299.168 198.006 299.085 197.971C299.001 197.935 298.926 197.884 298.862 197.819C298.799 197.755 298.749 197.678 298.715 197.594C298.682 197.509 298.666 197.419 298.667 197.329C298.667 197.148 298.739 196.974 298.867 196.847C298.995 196.719 299.168 196.647 299.349 196.647H326.363C326.544 196.647 326.717 196.719 326.845 196.847C326.973 196.974 327.044 197.148 327.044 197.329C327.046 197.419 327.03 197.509 326.996 197.594C326.963 197.678 326.913 197.755 326.85 197.819C326.786 197.884 326.71 197.935 326.627 197.971C326.543 198.006 326.454 198.024 326.363 198.024Z" fill="#12b981"/>
<path d="M323.678 202.754H300.984C299.426 202.754 298.163 204.017 298.163 205.576V209.147C298.163 210.705 299.426 211.969 300.984 211.969H323.678C325.236 211.969 326.499 210.705 326.499 209.147V205.576C326.499 204.017 325.236 202.754 323.678 202.754Z" fill="#12b981"/>
</g>
</g>
<defs>
<clipPath id="clip0_4445_5426">
<rect width="501" height="461" fill="white"/>
</clipPath>
</defs>
</svg>
