<svg width="473" height="419" viewBox="0 0 473 419" fill="none" xmlns="http://www.w3.org/2000/svg">
<path d="M379.646 412.926H178.965C171.372 412.926 165.298 406.852 165.298 399.259V70.9042C165.298 63.3115 171.372 57.2373 178.965 57.2373H379.646C387.239 57.2373 393.313 63.3115 393.313 70.9042V399.259C393.313 406.852 387.239 412.926 379.646 412.926Z" fill="#e6f7f1"/>
<path d="M367.499 412.926H166.819C159.226 412.926 153.152 406.852 153.152 399.259V70.9042C153.152 63.3115 159.226 57.2373 166.819 57.2373H367.499C375.092 57.2373 381.166 63.3115 381.166 70.9042V399.259C381.166 406.852 375.092 412.926 367.499 412.926Z" fill="#12b981"/>
<path d="M381.166 81.2998H153.152V388.979H381.166V81.2998Z" fill="#e6f7f1"/>
<g opacity="0.55">
<path d="M360.261 104.312H173.948C171.495 104.312 169.509 102.326 169.509 99.8734C169.509 97.4204 171.495 95.4346 173.948 95.4346H360.261C362.714 95.4346 364.7 97.4204 364.7 99.8734C364.7 102.326 362.714 104.312 360.261 104.312ZM360.261 112.839H265.644C263.191 112.839 261.206 114.825 261.206 117.278C261.206 119.731 263.191 121.717 265.644 121.717H360.261C362.714 121.717 364.7 119.731 364.7 117.278C364.7 114.825 362.714 112.839 360.261 112.839ZM360.261 129.894H292.978C290.525 129.894 288.539 131.88 288.539 134.333C288.539 136.786 290.525 138.771 292.978 138.771H360.261C362.714 138.771 364.7 136.786 364.7 134.333C364.7 131.88 362.714 129.894 360.261 129.894ZM360.261 147.065H329.189C326.736 147.065 324.751 149.051 324.751 151.504C324.751 153.957 326.736 155.943 329.189 155.943H360.261C362.714 155.943 364.7 153.957 364.7 151.504C364.7 148.934 362.714 147.065 360.261 147.065Z" fill="#12b981"/>
</g>
<path d="M360.491 372.392H173.711C171.374 372.392 169.505 370.523 169.505 368.187V353.469C169.505 351.133 171.374 349.264 173.711 349.264H360.491C362.827 349.264 364.696 351.133 364.696 353.469V368.187C364.696 370.523 362.827 372.392 360.491 372.392ZM360.374 332.093H173.827C171.491 332.093 169.505 334.079 169.505 336.415C169.505 338.751 171.491 340.737 173.827 340.737H360.374C362.71 340.737 364.696 338.751 364.696 336.415C364.696 333.962 362.71 332.093 360.374 332.093Z" fill="#e6f7f1"/>
<path d="M354.364 255.078C365.389 206.907 335.276 158.919 287.104 147.894C238.933 136.869 190.945 166.982 179.92 215.154C168.895 263.325 199.008 311.313 247.18 322.338C295.351 333.363 343.339 303.25 354.364 255.078Z" fill="#12b981"/>
<path d="M330.933 189L326.845 186.781C326.611 180.473 323.223 174.516 317.383 171.245L298.46 160.732C298.109 155.943 296.24 152.088 292.502 149.986C291.918 149.635 291.334 149.285 290.75 148.934C266.337 134.8 255.824 116.227 240.054 90.2954V90.1786C240.054 89.8282 240.171 89.5945 240.171 89.2441C240.288 88.6601 240.288 88.076 240.288 87.492C240.288 87.1415 240.288 86.7911 240.405 86.4407C240.405 85.9734 240.521 85.3894 240.521 84.9221C240.521 84.5717 240.521 84.2213 240.521 83.8708C240.521 83.4036 240.521 82.9363 240.521 82.4691V81.4178C240.521 80.9506 240.521 80.4833 240.521 79.8993C240.521 79.5488 240.521 79.3152 240.521 78.9648C240.521 78.2639 240.405 77.563 240.405 76.8622C240.405 76.6286 240.288 76.3949 240.288 76.1613C240.171 75.5773 240.171 75.11 240.054 74.526C240.054 74.2923 239.937 73.9419 239.937 73.7083C239.821 73.3579 239.821 72.8906 239.704 72.5402C239.587 72.3066 239.587 71.9561 239.47 71.7225C239.353 71.3721 239.237 71.0216 239.237 70.6712C239.12 70.4376 239.12 70.0872 239.003 69.8535C238.886 69.5031 238.769 69.1527 238.652 68.8022C238.536 68.5686 238.419 68.335 238.419 68.1014C238.302 67.7509 238.068 67.4005 237.952 67.0501C237.835 66.8165 237.835 66.6996 237.718 66.466C236.316 63.6626 234.447 61.56 231.994 60.2751C216.225 51.5143 185.036 77.6799 162.141 118.68C144.62 149.986 137.144 180.941 141.7 197.761C141.7 197.761 141.7 197.761 141.7 197.644C141.7 197.878 141.816 197.995 141.816 198.229C141.933 198.579 142.05 198.929 142.167 199.28C142.284 199.513 142.4 199.864 142.517 200.097C142.634 200.448 142.751 200.682 142.868 201.032C142.985 201.266 143.101 201.616 143.218 201.85C143.335 202.083 143.452 202.434 143.685 202.667C143.802 202.901 143.919 203.135 144.153 203.485C144.269 203.719 144.386 203.952 144.62 204.186C144.737 204.419 144.97 204.653 145.204 204.887C145.321 205.12 145.554 205.354 145.671 205.588C145.905 205.821 146.138 206.055 146.372 206.288C146.489 206.405 146.722 206.639 146.839 206.756C147.073 206.989 147.423 207.223 147.657 207.457C147.774 207.573 147.891 207.69 148.124 207.807C148.591 208.157 149.059 208.391 149.526 208.741C156.651 212.713 167.164 209.442 178.495 200.798C180.831 200.798 183.051 200.915 185.153 200.915C193.914 201.032 201.857 201.032 209.216 201.382C212.37 201.499 215.407 201.733 218.444 201.966C223.467 202.434 228.256 203.018 232.929 204.069C234.798 204.419 236.667 204.887 238.536 205.471C240.405 205.938 242.274 206.522 244.026 207.223C248.581 208.858 253.254 210.844 257.809 213.414C258.16 213.648 258.627 213.764 258.978 213.998C259.094 213.998 259.211 214.115 259.328 214.115C259.678 214.232 259.912 214.348 260.262 214.348C260.379 214.348 260.496 214.465 260.613 214.465C261.08 214.582 261.431 214.582 261.898 214.699C262.015 214.699 262.015 214.699 262.131 214.699C262.482 214.699 262.832 214.699 263.183 214.699C263.3 214.699 263.416 214.699 263.533 214.699C263.884 214.699 264.234 214.699 264.584 214.582C264.701 214.582 264.701 214.582 264.818 214.582C265.169 214.465 265.519 214.465 265.986 214.348L261.781 224.861C257.459 224.277 252.553 228.132 251.034 232.921C250.918 233.155 250.918 233.389 250.801 233.739C250.801 233.739 250.801 233.739 250.801 233.856C250.684 234.089 250.684 234.323 250.684 234.557V234.673C250.684 234.907 250.567 235.141 250.567 235.374C250.567 235.491 250.567 235.491 250.567 235.491C250.567 235.725 250.567 235.958 250.567 236.192C250.567 236.309 250.567 236.309 250.567 236.426C250.567 236.659 250.567 236.893 250.567 237.01C250.567 237.126 250.567 237.126 250.567 237.243C250.567 237.477 250.684 237.594 250.684 237.827C250.684 237.944 250.801 238.061 250.801 238.178C250.801 238.411 250.918 238.528 250.918 238.762C250.918 238.879 251.034 238.995 251.034 239.112C251.034 239.229 251.151 239.346 251.151 239.346C251.034 239.346 251.034 239.229 250.918 239.229C245.895 236.542 239.12 240.981 237.134 246.939C237.017 247.172 237.017 247.289 236.9 247.523C236.9 247.639 236.784 247.756 236.784 247.873C236.784 247.99 236.667 248.224 236.667 248.34C236.667 248.457 236.667 248.574 236.55 248.691C236.55 248.924 236.55 249.041 236.433 249.275C236.433 249.392 236.433 249.508 236.433 249.625C236.433 249.859 236.433 250.092 236.433 250.209C236.433 250.326 236.433 250.443 236.433 250.56C236.433 250.677 236.433 250.91 236.433 251.027C236.433 251.144 236.433 251.261 236.433 251.377C236.433 251.611 236.433 251.845 236.55 252.078C236.55 252.195 236.55 252.312 236.667 252.429C236.667 252.662 236.784 252.896 236.784 253.13C236.784 253.246 236.9 253.363 236.9 253.48C237.017 253.597 237.017 253.83 237.134 254.064C237.134 254.181 237.251 254.298 237.251 254.414C237.368 254.648 237.484 254.882 237.601 255.115C237.601 255.232 237.718 255.232 237.718 255.349C237.835 255.583 237.952 255.816 238.185 256.05C238.302 256.167 238.302 256.283 238.419 256.283C238.536 256.4 238.652 256.634 238.769 256.751C234.798 256.634 231.06 260.605 230.242 265.044V265.161C230.242 265.395 230.125 265.511 230.125 265.745C230.125 265.862 230.125 265.862 230.125 265.979C230.125 266.096 230.125 266.329 230.125 266.446C230.125 266.563 230.125 266.563 230.125 266.68C230.125 266.796 230.125 267.03 230.125 267.147V267.38C230.125 267.497 230.125 267.731 230.125 267.848C230.125 267.965 230.125 268.081 230.125 268.081C230.125 268.198 230.125 268.315 230.242 268.549C230.242 268.665 230.242 268.782 230.359 268.899C230.359 269.016 230.359 269.133 230.476 269.366C230.476 269.483 230.593 269.6 230.593 269.833C230.593 269.95 230.709 270.184 230.826 270.301C230.826 270.418 230.943 270.651 231.06 270.768C231.06 270.885 231.177 271.002 231.177 271.002C231.293 271.118 231.293 271.235 231.41 271.469C231.41 271.586 231.527 271.702 231.527 271.702C231.644 271.819 231.644 271.936 231.761 272.17C231.877 272.287 231.877 272.286 231.994 272.403C232.111 272.52 232.228 272.637 232.345 272.754C232.345 272.754 232.345 272.754 232.345 272.871C230.242 274.039 228.607 276.375 228.023 279.062C227.906 279.412 227.906 279.762 227.906 280.113V280.23C227.906 280.93 227.906 281.631 228.023 282.332C228.023 282.449 228.023 282.449 228.023 282.566C228.14 282.916 228.14 283.15 228.256 283.5C228.256 283.617 228.256 283.617 228.373 283.734C228.49 284.084 228.607 284.318 228.84 284.668C228.957 284.902 229.191 285.253 229.424 285.486C229.424 285.603 229.541 285.603 229.541 285.603C229.775 285.837 230.008 286.187 230.359 286.421L230.476 286.537C230.826 286.771 231.177 287.005 231.527 287.238C233.279 288.29 234.915 289.224 236.55 289.925C243.559 296.35 254.539 306.162 269.724 306.162L266.57 323.8C268.322 324.15 270.075 324.384 272.06 324.618H272.177C272.995 324.735 273.813 324.851 274.747 324.851C288.881 323.8 302.081 319.361 313.528 312.469L311.542 268.899C313.411 258.152 310.491 245.07 296.941 232.454L300.679 225.679C300.913 225.679 301.146 225.679 301.263 225.562C301.497 225.562 301.73 225.445 301.964 225.445C302.314 225.329 302.665 225.329 302.898 225.212C303.132 225.095 303.366 225.095 303.716 224.978C304.066 224.861 304.3 224.745 304.651 224.628C304.884 224.511 305.235 224.394 305.468 224.277C305.702 224.161 306.052 224.044 306.286 223.927C306.52 223.81 306.87 223.576 307.104 223.46C307.22 223.46 307.22 223.343 307.337 223.343L311.426 225.562L311.542 225.679C318.901 229.767 328.246 227.081 332.335 219.722L332.451 219.605L333.853 217.152L334.905 215.166L337.591 210.377C340.979 202.551 338.292 193.206 330.933 189Z" fill="#e6f7f1"/>
<path d="M298.699 318.777C283.514 325.318 264.24 325.669 251.391 323.099L254.545 305.46L296.363 268.314L298.699 318.777Z" fill="#FFD2D2"/>
<path d="M289.821 321.814C292.859 320.996 295.896 319.945 298.699 318.777L296.363 268.314L287.602 276.141C289.237 291.326 289.705 306.628 289.821 321.814Z" fill="#FFDEDE"/>
<path d="M276.154 324.267C267.16 325.084 258.282 324.617 251.391 323.215L254.545 305.577L280.126 291.326C279.425 299.853 278.023 315.856 276.154 324.267Z" fill="#12b981"/>
<path d="M269.022 231.87C255.705 227.08 245.192 230.234 235.03 247.639C224.867 265.161 210.733 280.346 217.391 285.719C224.166 291.093 237.249 306.862 257.224 305.344C287.127 303.124 307.803 245.887 269.022 231.87Z" fill="#12b981"/>
<path d="M232.463 292.261C239.005 295.882 247.298 293.546 250.919 287.004L293.672 210.376L259.68 191.453L226.389 275.323C223.936 281.748 226.506 288.99 232.463 292.261Z" fill="#12b981"/>
<path d="M281.291 216.918L296.71 225.445C303.835 229.417 312.947 226.847 316.918 219.721L322.642 209.559C326.613 202.433 324.044 193.322 316.918 189.351L301.499 180.823C294.374 176.852 285.262 179.422 281.291 186.547L275.567 196.71C271.479 203.835 274.049 212.946 281.291 216.918Z" fill="#12b981"/>
<path opacity="0.5" d="M311.542 200.331L296.824 192.154C289.465 188.066 280.12 190.635 276.031 198.111L271.359 206.405C271.593 204.419 272.177 202.55 273.228 200.681L278.484 191.22C282.573 183.86 291.918 181.174 299.277 185.262L313.995 193.439C321.354 197.527 324.041 206.872 319.952 214.231L319.251 215.399C319.952 209.442 317.032 203.368 311.542 200.331Z" fill="#FFE000"/>
<path d="M275.685 196.359L280.941 186.898C281.642 185.613 282.46 184.561 283.394 183.627L280.591 188.65C276.503 196.009 279.072 205.354 286.548 209.442L301.266 217.619C307.341 221.006 314.816 219.721 319.606 214.932L317.036 219.488C312.947 226.847 303.603 229.534 296.244 225.445L281.525 217.268C274.283 212.946 271.597 203.718 275.685 196.359Z" fill="#12b981"/>
<path d="M246.253 207.69L274.521 223.459C283.048 228.248 293.912 225.211 298.701 216.567L310.265 195.775C315.054 187.248 312.017 176.384 303.373 171.595L275.105 155.826C266.578 151.036 255.714 154.074 250.925 162.718L239.361 183.51C234.572 192.037 237.726 202.9 246.253 207.69Z" fill="#12b981"/>
<path opacity="0.5" d="M297.065 183.861L269.965 168.792C261.087 163.886 249.873 167.04 244.851 175.918L235.623 192.622C235.973 190.519 236.674 188.533 237.725 186.547L248.705 166.923C253.611 158.046 264.942 154.775 273.82 159.798L300.92 174.866C309.797 179.772 313.068 191.103 308.045 199.981L306.41 202.901C307.461 195.542 303.957 187.716 297.065 183.861Z" fill="#FFCC00"/>
<path d="M239.708 182.926L250.689 163.302C252.441 160.265 254.894 157.812 257.697 156.177C257.58 156.294 257.464 156.527 257.464 156.644L246.483 176.268C241.577 185.146 244.731 196.36 253.609 201.382L280.709 216.451C286.55 219.722 293.325 219.488 298.815 216.334C293.675 224.861 282.695 227.899 274.051 222.992L246.951 207.924C237.956 203.018 234.802 191.804 239.708 182.926Z" fill="#12b981"/>
<path d="M137.729 199.63C186.089 202.784 212.956 196.476 242.626 213.064C262.834 224.277 298.111 161.083 277.786 149.869C245.429 131.88 236.902 106.649 211.203 67.751L137.729 199.63Z" fill="#12b981"/>
<path d="M272.648 165.755C240.291 147.766 230.129 126.039 204.43 87.1411L207.467 80.0156C233.166 118.914 243.328 140.524 275.685 158.629C285.03 163.886 280.24 179.188 272.881 194.023C277.787 181.524 280.591 170.193 272.648 165.755Z" fill="#e6f7f1"/>
<path d="M145.322 186.08C192.046 188.883 218.446 183.043 247.765 199.396C258.745 205.47 274.164 189.584 282.692 172.062C277.435 193.672 256.526 220.889 242.626 213.18C212.839 196.593 186.089 202.901 137.729 199.747L145.322 186.08Z" fill="#12b981"/>
<path d="M195.792 145.559C216.08 109.155 223.024 74.3491 211.303 67.8169C199.582 61.2847 173.634 85.5 153.346 121.903C133.059 158.307 126.114 193.113 137.835 199.645C149.557 206.177 175.505 181.962 195.792 145.559Z" fill="#12b981"/>
<path d="M142.99 200.682C139.368 187.365 147.078 159.097 163.315 129.894C180.953 98.2387 202.914 75.8111 215.996 74.7598C219.617 88.0762 211.908 116.344 195.671 145.547C178.033 177.203 156.189 199.63 142.99 200.682Z" fill="#12b981"/>
<path d="M134.348 208.624C150.118 217.385 181.306 191.219 204.201 150.219C227.096 109.218 232.82 68.9187 217.167 60.1579C201.397 51.3971 170.209 77.5627 147.314 118.563C124.419 159.447 118.579 199.863 134.348 208.624ZM153.388 121.834C173.713 85.389 199.645 61.2092 211.326 67.7506C223.007 74.292 216.116 109.102 195.791 145.547C175.465 181.991 149.534 206.171 137.852 199.63C126.055 193.088 133.063 158.279 153.388 121.834Z" fill="#12b981"/>
<g opacity="0.5">
<path d="M151.515 116.928C171.84 80.4828 197.772 56.303 209.453 62.8444C212.023 64.2461 213.658 67.0496 214.476 71.0212C213.658 69.6194 212.607 68.4513 211.205 67.7505C199.524 61.2091 173.592 85.5057 153.267 121.834C137.497 150.219 129.788 177.669 132.591 191.453C125.933 180.356 133.409 149.284 151.515 116.928Z" fill="#12b981"/>
<path d="M132.474 203.718C148.244 212.479 179.432 186.313 202.327 145.313C219.732 114.007 227.208 83.1694 222.886 66.3486C230.595 81.4172 223.47 115.526 204.196 150.219C181.301 191.219 150.113 217.385 134.343 208.624C130.605 206.521 128.152 202.667 126.75 197.527C128.152 200.214 130.021 202.316 132.474 203.718Z" fill="#12b981"/>
</g>
<path d="M195.788 145.547C191.349 153.49 186.677 160.849 181.888 167.507L161.329 156.06L186.56 110.737L207.119 122.185C203.965 129.661 200.227 137.604 195.788 145.547Z" fill="#12b981"/>
<path d="M201.506 134.45C201.506 134.45 205.361 126.156 207.113 122.185L186.554 110.737L179.663 123.002L201.506 134.45Z" fill="#12b981"/>
<path d="M186.558 110.737L188.194 111.672L170.322 143.678L190.296 154.775C187.493 159.214 184.689 163.536 181.769 167.507L161.21 156.06L186.558 110.737Z" fill="#12b981"/>
<path d="M166.588 129.31C159.579 141.809 157.243 153.841 161.215 156.06C165.186 158.28 174.181 149.986 181.189 137.487C188.198 124.988 190.534 112.957 186.562 110.738C182.591 108.401 173.596 116.812 166.588 129.31Z" fill="#12b981"/>
<path d="M221.141 271.585C214.833 269.95 208.292 281.747 216.352 286.537C225.463 292.027 233.756 293.545 236.21 293.896C242.634 294.83 245.438 286.303 239.013 281.28C232.705 276.374 226.514 272.987 221.141 271.585Z" fill="#FFDEDE"/>
<path d="M236.207 294.013C233.754 293.663 225.46 292.144 216.349 286.654C212.961 284.669 212.144 281.398 212.728 278.478C213.195 278.828 213.662 279.295 214.246 279.646C223.358 285.136 231.651 286.654 234.104 287.005C237.375 287.472 239.711 285.486 240.295 282.683C244.968 287.589 242.164 294.831 236.207 294.013Z" fill="#FFD2D2"/>
<path d="M224.99 256.399C217.514 254.53 209.805 268.314 219.383 274.038C230.13 280.462 239.942 282.331 242.862 282.682C250.455 283.733 253.726 273.687 246.133 267.73C238.657 262.006 231.415 258.035 224.99 256.399Z" fill="#FFDEDE"/>
<path d="M242.861 282.799C239.94 282.332 230.128 280.58 219.382 274.155C215.176 271.585 214.359 267.497 215.293 263.876C215.877 265.745 217.162 267.614 219.382 268.899C230.128 275.323 239.94 277.192 242.861 277.543C246.482 278.01 249.052 276.024 249.986 273.221C251.621 278.477 248.351 283.617 242.861 282.799Z" fill="#FFD2D2"/>
<path d="M235.857 238.878C227.914 234.673 215.415 248.34 224.76 257.451C235.156 267.614 245.786 272.403 248.94 273.688C257.233 276.958 263.658 266.329 256.766 257.685C249.874 248.807 242.632 242.382 235.857 238.878Z" fill="#FFDEDE"/>
<path d="M249.057 273.571C245.904 272.286 235.274 267.614 224.878 257.335C221.373 253.947 221.023 249.859 222.191 246.354C222.658 247.756 223.593 249.041 224.878 250.326C235.274 260.489 245.904 265.278 249.057 266.563C253.613 268.432 257.701 265.862 259.22 261.89C261.556 269.366 255.949 276.375 249.057 273.571Z" fill="#FFD2D2"/>
<path d="M248.825 225.211C241.466 221.356 229.901 233.972 238.545 242.382C248.241 251.844 256.417 256.867 259.221 258.269C267.281 262.357 274.523 253.129 267.982 245.069C261.557 237.009 255.132 228.599 248.825 225.211Z" fill="#FFDEDE"/>
<path d="M259.222 258.386C256.418 256.984 248.241 251.961 238.546 242.5C234.341 238.411 234.925 233.388 237.378 229.65C237.378 231.87 238.313 234.206 240.415 236.309C250.11 245.77 258.287 250.793 261.091 252.195C264.829 254.064 268.333 253.129 270.435 250.793C271.136 256.75 265.413 261.54 259.222 258.386Z" fill="#FFD2D2"/>
<path d="M257.464 216.567C249.871 216.567 243.797 231.519 267.977 243.083C267.509 249.508 272.065 253.713 267.509 259.086C260.618 267.38 256.996 272.052 258.515 281.047C260.034 290.275 271.247 296.115 282.228 290.392C293.558 284.551 309.328 256.4 280.709 231.052C278.022 228.716 265.407 222.291 264.239 221.123C260.618 217.268 259.45 216.567 257.464 216.567Z" fill="#FFDEDE"/>
<path d="M282.233 290.392C271.253 296.115 260.039 290.275 258.521 281.047C257.119 272.052 260.623 267.38 267.515 259.086C272.071 253.596 267.515 249.391 267.982 243.083C243.919 231.519 249.877 216.567 257.469 216.567C257.586 216.567 257.82 216.567 257.937 216.567C254.666 221.59 256.418 231.636 273.823 239.93C273.356 246.354 277.911 250.559 273.356 255.933C266.464 264.226 262.843 268.899 264.361 277.893C265.646 286.303 269.15 290.158 282.233 290.392Z" fill="#FFD2D2"/>
<path opacity="0.5" d="M119.974 108.634C106.307 132.347 88.7851 147.883 80.842 143.21C72.8988 138.655 77.5713 115.643 91.2381 91.9304C104.905 68.2178 122.427 52.682 130.37 57.3544C138.313 62.0268 133.64 84.9217 119.974 108.634ZM96.3778 2.68698C82.0101 -5.60658 50.3544 22.3112 25.7073 65.0639C1.06025 107.817 -7.35012 149.168 7.0176 157.461C21.3853 165.755 53.041 137.837 77.6881 95.0843C102.335 52.3315 110.746 10.9805 96.3778 2.68698Z" fill="#12b981"/>
<path d="M451.241 412.925H338.285C330.926 412.925 324.968 406.968 324.968 399.609V330.457C324.968 323.098 330.926 317.141 338.285 317.141H451.241C458.6 317.141 464.557 323.098 464.557 330.457V399.609C464.674 406.968 458.6 412.925 451.241 412.925Z" fill="#e6f7f1"/>
<path d="M443.767 412.925H330.811C323.452 412.925 317.494 406.968 317.494 399.609V330.457C317.494 323.098 323.452 317.141 330.811 317.141H443.767C451.126 317.141 457.083 323.098 457.083 330.457V399.609C457.083 406.968 451.126 412.925 443.767 412.925Z" fill="#12b981"/>
<path d="M367.376 385.008V345.059C367.376 341.788 370.997 339.802 373.684 341.554L405.223 361.529C407.792 363.164 407.792 366.902 405.223 368.538L373.684 388.512C370.997 390.264 367.376 388.279 367.376 385.008Z" fill="white"/>
<path d="M53.2726 367.604V407.903C53.2726 410.707 50.9364 413.043 48.1329 413.043H30.1441C27.3406 413.043 25.0044 410.707 25.0044 407.903V367.604C25.0044 364.8 27.3406 362.464 30.1441 362.464H48.1329C50.9364 362.464 53.2726 364.683 53.2726 367.604ZM65.6545 316.908V407.903C65.6545 410.707 67.9907 413.043 70.7942 413.043H88.783C91.5865 413.043 93.9227 410.707 93.9227 407.903V316.908C93.9227 314.104 91.5865 311.768 88.783 311.768H70.7942C67.9907 311.768 65.6545 314.104 65.6545 316.908ZM106.421 300.087V407.67C108.524 409.772 109.692 410.941 111.795 413.043H134.69V300.087C134.69 297.167 132.353 294.714 129.316 294.714H111.678C108.758 294.714 106.421 297.05 106.421 300.087Z" fill="#12b981"/>
<path d="M234.68 363.748C239.586 363.748 243.558 359.777 243.558 354.871C243.558 349.965 239.586 345.993 234.68 345.993H130.602C134.106 351.951 134.106 357.791 130.602 363.748H234.68Z" fill="#FDFDFD"/>
<path d="M234.683 363.748C239.706 363.748 243.794 359.543 243.561 354.403C243.327 349.614 239.239 345.993 234.449 345.993H129.203C128.502 345.993 127.801 345.409 127.801 344.591C127.801 343.89 128.385 343.189 129.203 343.189H234.683C241.108 343.189 246.247 348.446 246.247 354.754C246.247 361.178 240.991 366.318 234.683 366.318H129.203C128.502 366.318 127.801 365.734 127.801 364.916C127.801 364.215 128.385 363.515 129.203 363.515H234.683V363.748Z" fill="#12b981"/>
<path d="M239.823 347.628L231.412 347.745L215.643 347.861L183.987 347.978L152.332 347.861L136.562 347.745H131.422C131.422 347.628 131.306 347.628 131.306 347.511H136.562L152.332 347.394L183.987 347.277L215.643 347.394L231.412 347.511L239.589 347.628C239.706 347.511 239.823 347.628 239.823 347.628ZM241.925 349.73L241.809 349.614L231.412 349.497L215.643 349.38L183.987 349.263L152.332 349.38L136.562 349.497H132.24C132.24 349.614 132.24 349.614 132.357 349.73H136.562L152.332 349.847L183.987 349.964L215.643 349.847L231.412 349.73H241.925ZM242.977 351.833L231.412 351.599L215.643 351.483L183.987 351.366L152.332 351.483L136.562 351.599H132.824C132.824 351.716 132.824 351.833 132.824 351.833H136.562L152.332 351.95L183.987 352.067L215.643 351.95L231.412 351.833H242.977ZM131.306 362.346H136.562L152.332 362.463L183.987 362.58L215.643 362.463L231.412 362.346L239.589 362.229C239.706 362.229 239.706 362.112 239.823 362.112L231.412 361.995L215.643 361.879L183.987 361.762L152.332 361.879L136.562 361.995H131.422C131.422 362.112 131.422 362.229 131.306 362.346ZM241.809 360.127L241.925 360.01L231.529 359.893L215.76 359.776L184.104 359.659L152.448 359.776L136.679 359.893H132.474C132.474 360.01 132.474 360.01 132.357 360.127H136.679L152.448 360.243L184.104 360.36L215.76 360.243L231.529 360.127H241.809ZM242.977 358.024L231.412 357.79L215.643 357.673L183.987 357.557L152.332 357.673L136.562 357.79H132.824C132.824 357.907 132.824 358.024 132.824 358.024H136.562L152.332 358.141L183.987 358.258L215.643 358.141L231.412 358.024H242.977ZM243.561 355.921L231.529 355.688L215.76 355.571H183.987L152.332 355.688L136.562 355.805H133.175C133.175 355.921 133.175 356.038 133.175 356.038H136.562L152.332 356.155L183.987 356.272L215.643 356.155L231.412 356.038L243.561 355.921ZM243.561 353.936C243.561 353.819 243.561 353.819 243.561 353.936L231.529 353.702L215.76 353.585L184.104 353.468L152.448 353.585L136.679 353.702H133.291C133.291 353.819 133.291 353.936 133.291 353.936H136.679L152.448 354.052L184.104 354.169L215.76 354.052L231.529 353.936H243.561Z" fill="#E1E3EF"/>
<path d="M141.818 363.048L146.374 360.361L150.93 363.048V351.483H141.818V363.048Z" fill="#12b981"/>
<path d="M139.481 386.993C134.575 386.993 130.603 383.022 130.603 378.116C130.603 373.21 134.575 369.238 139.481 369.238H243.559C240.055 375.196 240.055 381.036 243.559 386.993H139.481Z" fill="#FDFDFD"/>
<path d="M139.486 386.993C134.463 386.993 130.374 382.788 130.608 377.648C130.842 372.859 134.93 369.238 139.719 369.238H244.966C245.667 369.238 246.367 368.654 246.367 367.836C246.367 367.135 245.783 366.435 244.966 366.435H139.486C133.061 366.435 127.921 371.691 127.921 377.999C127.921 384.423 133.178 389.563 139.486 389.563H244.966C245.667 389.563 246.367 388.979 246.367 388.161C246.367 387.461 245.783 386.76 244.966 386.76H139.486V386.993Z" fill="#12b981"/>
<path d="M134.459 370.757L142.636 370.64L158.405 370.523L190.061 370.406L221.717 370.523L237.486 370.64H242.743C242.743 370.757 242.626 370.757 242.626 370.873H237.486L221.717 370.99L190.061 371.107L158.405 370.99L142.636 370.873L134.226 370.757C134.342 370.873 134.459 370.757 134.459 370.757ZM142.636 373.093L158.405 373.21L190.061 373.327L221.717 373.21L237.486 373.093H241.691C241.691 372.976 241.691 372.976 241.808 372.859H237.486L221.717 372.742L190.061 372.626L158.405 372.742L142.636 372.859L132.24 372.976L132.123 373.093H142.636ZM142.636 375.195L158.405 375.312L190.061 375.429L221.717 375.312L237.486 375.195H241.224C241.224 375.079 241.224 374.962 241.224 374.962H237.486L221.717 374.845L190.061 374.728L158.405 374.845L142.636 374.962L131.072 375.079V375.195H142.636ZM242.743 385.241H237.603L221.834 385.124L190.178 385.008L158.522 385.124L142.753 385.241L134.342 385.358C134.459 385.358 134.459 385.475 134.576 385.475L142.753 385.592L158.522 385.708L190.178 385.825L221.834 385.708L237.603 385.592H242.86C242.743 385.475 242.743 385.358 242.743 385.241ZM142.636 383.489L158.405 383.606L190.061 383.723L221.717 383.606L237.486 383.489H241.808C241.808 383.372 241.808 383.372 241.691 383.255H237.486L221.717 383.139L190.061 383.022L158.405 383.139L142.636 383.255L132.24 383.372L132.357 383.489H142.636ZM142.636 381.386L158.405 381.503L190.061 381.62L221.717 381.503L237.486 381.386H241.224C241.224 381.27 241.224 381.153 241.224 381.153H237.486L221.717 381.036L190.061 380.919L158.405 381.036L142.636 381.153L131.072 381.27V381.386H142.636ZM142.636 379.284L158.405 379.401L190.061 379.517L221.717 379.401L237.486 379.284H240.874C240.874 379.167 240.874 379.05 240.874 379.05H237.486L221.717 378.933L190.061 378.817L158.405 378.933L142.636 379.05L130.604 379.167C130.604 379.167 130.604 379.167 130.604 379.284H142.636ZM142.636 377.298L158.405 377.415L190.061 377.532L221.717 377.415L237.486 377.298H240.874C240.874 377.181 240.874 377.064 240.874 377.064H237.486L221.717 376.948L190.061 376.831L158.405 376.948L142.636 377.064L130.604 377.181C130.604 377.181 130.604 377.181 130.604 377.298H142.636Z" fill="#E1E3EF"/>
<path d="M235.156 382.087L230.6 379.517L226.161 382.087V370.64H235.156V382.087Z" fill="#12b981"/>
<path d="M234.68 410.239C239.586 410.239 243.558 406.267 243.558 401.361C243.558 396.455 239.586 392.483 234.68 392.483H130.602C134.106 398.441 134.106 404.281 130.602 410.239H234.68Z" fill="#FDFDFD"/>
<path d="M234.683 410.238C239.706 410.238 243.794 406.033 243.561 400.893C243.327 396.104 239.239 392.483 234.449 392.483H129.203C128.502 392.483 127.801 391.899 127.801 391.081C127.801 390.381 128.385 389.68 129.203 389.68H234.683C241.108 389.68 246.247 394.936 246.247 401.244C246.247 407.669 240.991 412.808 234.683 412.808H129.203C128.502 412.808 127.801 412.224 127.801 411.406C127.801 410.706 128.385 410.005 129.203 410.005H234.683V410.238Z" fill="#12b981"/>
<path d="M239.823 394.118L231.412 394.235L215.643 394.352L183.987 394.468L152.332 394.352L136.562 394.235H131.422C131.422 394.118 131.306 394.118 131.306 394.001H136.562L152.332 393.884L183.987 393.768L215.643 393.884L231.412 394.001L239.589 394.118C239.706 394.001 239.823 394.118 239.823 394.118ZM241.925 396.221L241.809 396.104L231.412 395.987L215.643 395.87L183.987 395.753L152.332 395.87L136.562 395.987H132.24C132.24 396.104 132.24 396.104 132.357 396.221H136.562L152.332 396.337L183.987 396.454L215.643 396.337L231.412 396.221H241.925ZM242.977 398.323C242.977 398.206 242.977 398.206 242.977 398.323L231.412 398.09L215.643 397.973L183.987 397.856L152.332 397.973L136.562 398.09H132.824C132.824 398.206 132.824 398.323 132.824 398.323H136.562L152.332 398.44L183.987 398.557L215.643 398.44L231.412 398.323H242.977ZM131.306 408.719H136.562L152.332 408.836L183.987 408.953L215.643 408.836L231.412 408.719L239.589 408.603C239.706 408.603 239.706 408.486 239.823 408.486L231.412 408.369L215.643 408.252L183.987 408.135L152.332 408.252L136.562 408.369H131.422C131.422 408.603 131.422 408.719 131.306 408.719ZM241.809 406.617L241.925 406.5L231.529 406.383L215.76 406.266L184.104 406.149L152.448 406.266L136.679 406.383H132.474C132.474 406.5 132.474 406.5 132.357 406.617H136.679L152.448 406.734L183.987 406.967L215.643 406.85L231.412 406.734L241.809 406.617ZM242.977 404.514L231.412 404.281L215.643 404.164L183.987 404.047L152.332 404.164L136.562 404.281H132.824C132.824 404.397 132.824 404.514 132.824 404.514H136.562L152.332 404.631L183.987 404.748L215.643 404.631L231.412 404.514H242.977ZM243.561 402.412L231.529 402.178L215.76 402.061L184.104 401.944L152.448 402.061L136.679 402.178H133.291C133.291 402.295 133.291 402.412 133.291 402.412H136.679L152.448 402.528L184.104 402.645L215.76 402.528L231.529 402.412H243.561ZM243.561 400.309L231.529 400.075L215.76 399.959H183.987L152.332 400.075L136.562 400.192H133.175C133.175 400.309 133.175 400.426 133.175 400.426H136.562L152.332 400.543L183.987 400.659L215.643 400.543L231.412 400.426L243.561 400.309Z" fill="#E1E3EF"/>
<path d="M150.926 409.421L155.482 406.851L160.038 409.421V397.974H150.926V409.421Z" fill="#12b981"/>
<path d="M386.534 278.243C386.534 278.243 387.935 292.26 389.454 295.181C391.089 298.101 410.129 304.525 411.882 304.642C413.517 304.759 416.32 303.474 416.32 303.474C416.32 303.474 420.526 304.993 421.226 304.642C421.927 304.292 417.489 301.138 415.736 300.788C413.984 300.437 411.414 301.839 411.414 301.839C411.414 301.839 396.696 295.648 395.061 293.078C393.426 290.508 392.141 277.309 392.141 277.309L386.534 278.243Z" fill="#FCD2C8"/>
<path d="M388.166 264.926L385.946 269.481L390.385 270.883L391.67 265.627L388.166 264.926Z" fill="#FFDEDE"/>
<path d="M386.645 261.188C386.645 261.305 386.761 261.538 386.761 261.655C386.878 262.94 387.112 264.108 387.696 265.276C388.397 266.444 389.448 267.379 390.85 267.613C392.018 267.846 393.303 267.379 394.237 266.678C395.172 265.977 395.873 264.926 396.34 263.875C397.158 262.122 398.092 260.02 397.158 258.385C396.69 257.567 394.237 256.048 392.485 255.114C391.434 254.53 390.032 254.647 389.214 255.581L387.229 257.45C386.528 258.151 386.177 259.202 386.411 260.137L386.645 261.188Z" fill="#FFDEDE"/>
<path d="M389.095 258.268C388.511 258.034 387.927 258.385 387.693 258.852C387.459 259.319 387.459 260.02 387.693 260.487C387.927 261.071 388.277 261.539 388.511 261.889C387.693 262.824 387.342 264.109 387.342 265.393C386.408 264.693 385.707 263.875 385.006 262.94C383.721 261.188 382.086 254.647 387.226 253.245C393.183 246.704 399.958 258.034 401.126 257.567C400.892 258.969 399.491 261.188 396.454 261.188C395.169 261.188 393.884 260.955 392.833 260.254C392.365 259.903 391.781 259.436 391.197 259.202C390.73 258.969 390.146 260.838 389.795 260.721C389.562 260.604 389.562 258.385 389.095 258.268Z" fill="#12b981"/>
<path d="M385.475 297.75C381.737 308.38 383.022 314.804 389.563 316.907C392.133 317.724 408.37 318.309 419.817 317.724C427.059 317.374 431.265 316.556 431.265 312.001C431.265 304.525 409.421 307.211 404.398 305.81C399.375 304.408 397.974 294.362 397.974 294.362L385.475 297.75Z" fill="#12b981"/>
<path d="M390.734 269.716C385.828 266.211 380.571 269.248 380.571 281.514C380.571 293.428 382.557 309.198 382.557 309.198C390.5 310.366 396.691 308.497 403.233 304.759C403.233 304.759 397.976 295.881 395.99 288.172C394.355 281.981 394.589 272.636 390.734 269.716Z" fill="#12b981"/>
<path d="M388.392 279.177C386.874 279.411 385.939 280.812 386.056 282.214C386.523 286.419 387.575 294.479 388.743 296.582C390.378 299.502 405.68 305.226 407.316 305.343C408.367 305.459 409.886 304.875 410.82 304.525C411.404 304.291 412.105 304.291 412.689 304.408C413.974 304.875 416.077 305.459 416.661 305.226C417.361 304.875 412.923 301.721 411.171 301.371C410.119 301.137 408.834 301.605 407.9 301.955C407.199 302.189 406.264 302.189 405.564 301.838C402.643 300.32 395.518 296.465 394.116 294.362C392.948 292.493 392.014 285.602 391.546 281.63C391.546 279.995 390.028 278.943 388.392 279.177Z" fill="#FFDEDE"/>
<path d="M387.459 270.183C381.736 271.701 384.422 283.616 384.422 283.616C387.109 284.55 390.263 284.2 393.884 283.149C392.716 280.345 392.599 268.781 387.459 270.183Z" fill="white"/>
<path d="M427.413 307.795H405.219C404.518 307.795 403.934 307.211 403.934 306.511C403.934 305.81 404.518 305.226 405.219 305.226H426.361L429.398 285.601C429.515 284.901 430.216 284.433 430.8 284.55C431.501 284.667 431.968 285.251 431.851 285.952L428.697 306.744C428.581 307.328 427.997 307.795 427.413 307.795Z" fill="#12b981"/>
<path d="M172.881 287.938C173.231 291.209 176.385 304.409 173.932 304.525C170.661 304.642 160.499 303.357 160.148 303.357C157.812 303.241 157.812 288.406 157.812 287.238C157.812 278.477 171.712 278.36 172.881 287.938Z" fill="#12b981"/>
<path d="M155.712 310.599L155.362 323.565L145.783 335.013L150.689 334.312L159.8 324.85L160.151 308.613L155.712 310.599Z" fill="#FFDEDE"/>
<path d="M162.368 298.218C157.229 299.152 156.177 304.409 155.009 311.768L162.368 312.469L162.135 304.993" fill="#12b981"/>
<path d="M145.078 375.079C142.858 378 138.303 381.27 138.536 382.555C138.887 383.957 148.699 378.35 148.699 378.35L148.115 374.846L145.078 375.079Z" fill="#12b981"/>
<path d="M162.487 340.62C161.553 343.774 146.367 343.423 146.484 344.708C146.951 350.549 148.119 370.523 148.82 376.247L143.797 376.364C140.76 365.267 136.088 347.862 138.074 340.503C139.943 333.261 152.792 330.574 162.837 332.56C165.174 333.027 163.655 336.531 162.487 340.62Z" fill="#12b981"/>
<path d="M156.294 375.079C154.074 378 149.519 381.27 149.752 382.555C150.103 383.957 159.915 378.35 159.915 378.35L159.331 374.846L156.294 375.079Z" fill="#12b981"/>
<path d="M172.413 342.489C169.843 344.942 157.929 344.592 157.111 346.578C158.98 353.703 160.382 370.874 160.148 376.131L155.125 376.248C152.088 365.151 147.649 349.732 148.584 342.139C149.285 335.598 168.558 330.341 172.296 332.444C174.399 333.612 175.45 339.686 172.413 342.489Z" fill="#12b981"/>
<path d="M175.571 319.243C174.52 301.722 171.717 296.348 162.956 297.984C155.83 299.269 158.868 307.095 156.181 321.346L152.91 333.611C160.503 333.377 157.933 333.027 165.175 334.545C169.965 336.297 176.389 343.189 175.922 335.83C175.922 335.83 175.805 323.215 175.571 319.243Z" fill="#12b981"/>
<path d="M168.561 290.041C168.211 287.588 167.159 286.887 164.59 288.172C162.954 288.989 159.917 289.573 158.632 288.873C158.749 292.143 160.384 297.283 163.071 297.283C163.188 297.984 163.188 298.568 163.071 299.386C163.188 299.97 165.524 299.853 166.225 299.269C166.108 298.451 165.758 297.283 165.758 296.582C167.393 296.349 168.211 294.713 168.795 292.494C171.481 290.975 169.729 288.289 168.561 290.041Z" fill="#FFDEDE"/>
<path d="M169.499 310.599L169.149 323.565L159.454 335.013L164.36 334.312C164.36 334.312 172.77 325.434 173.471 324.733C174.172 324.032 173.821 308.613 173.821 308.613L169.499 310.599Z" fill="#FFDEDE"/>
<path d="M167.981 298.101C173.12 299.035 175.223 304.175 175.106 311.767L167.63 312.352L167.864 304.876" fill="#12b981"/>
<path d="M167.975 333.611H141.575C141.225 333.611 140.875 333.962 140.875 334.312C140.875 334.663 141.108 335.013 141.575 335.013H167.975C168.325 335.013 168.675 334.663 168.675 334.312C168.675 333.962 168.325 333.611 167.975 333.611Z" fill="#e6f7f1"/>
<path d="M163.538 314.571H143.096C141.928 314.571 140.993 315.506 140.993 316.791V333.611H165.64C165.64 333.611 165.64 321.814 165.64 316.791C165.523 315.623 164.589 314.571 163.538 314.571Z" fill="#e6f7f1"/>
<path d="M252.323 295.882C251.856 295.065 251.856 294.13 251.388 293.196C251.272 292.962 251.155 292.845 251.038 292.728C250.921 292.612 250.688 292.612 250.454 292.728C250.337 292.845 250.337 293.196 250.454 293.196C249.87 292.495 249.286 291.911 248.585 291.444C248.351 291.21 248.001 291.093 247.767 291.21C247.417 291.327 247.3 291.911 247.417 292.261C247.767 294.364 249.052 296.35 250.804 297.634" fill="#FFDEDE"/>
<path d="M285.496 291.21C282.109 295.065 275.334 300.788 278.371 304.76C282.809 310.484 287.716 310.717 290.169 311.068C292.038 311.301 293.906 310.951 295.425 309.783C296.944 308.732 297.878 306.863 297.644 304.994C297.528 303.475 296.71 302.19 296.243 300.788C295.775 299.387 295.542 297.751 296.593 296.583" fill="#12b981"/>
<path d="M284.093 340.387L273.58 339.569C266.922 358.843 269.609 377.416 267.623 405.1L271.244 406.268C272.529 387.345 275.917 353.587 284.093 340.387Z" fill="#FBA394"/>
<path d="M290.518 340.971L281.056 338.868C280.122 363.749 281.757 378.934 287.481 405.684L291.453 405.918C286.78 368.421 287.598 349.848 290.518 340.971Z" fill="#FBA394"/>
<path d="M272.177 334.313L266.336 357.324C266.336 357.324 280.354 364.567 292.736 359.427C292.736 345.41 290.867 343.424 288.647 333.145L272.177 334.313Z" fill="#12b981"/>
<path d="M249.052 298.568C249.052 298.568 249.987 296.816 252.206 296.466C257.346 308.497 280.358 304.993 285.03 306.044C299.398 309.198 290.403 316.324 297.996 328.706C300.449 332.677 303.836 333.728 306.406 335.948L304.771 339.919C293.207 334.546 290.403 324.033 290.403 317.141C289.819 324.968 291.221 332.444 290.87 336.649C285.264 340.62 269.494 337.7 270.662 333.612C272.181 328.355 274.634 320.996 277.087 313.287C267.625 312.936 253.491 309.432 249.052 298.568Z" fill="url(#paint0_linear_6591_6387)"/>
<path d="M287.482 405.801C287.482 405.801 278.37 411.291 278.721 412.459C279.188 413.627 292.154 411.758 292.738 410.94C293.322 410.123 291.453 406.034 291.453 406.034L287.482 405.801Z" fill="#12b981"/>
<path d="M271.249 406.502L267.628 405.334C267.628 405.334 255.479 406.152 255.596 407.32C255.713 408.371 269.964 411.525 270.665 410.707C271.482 409.773 271.249 406.502 271.249 406.502Z" fill="#12b981"/>
<path d="M314.351 327.187L298.347 321.58L284.681 341.204L300.45 345.994L314.351 327.187Z" fill="#12b981"/>
<path d="M311.543 325.318L310.609 326.719L301.965 323.449L302.783 322.397L311.543 325.318Z" fill="#0088FF"/>
<path d="M290.399 302.073C288.764 305.11 288.997 309.665 287.362 308.731C285.726 307.796 287.479 301.372 287.946 301.372C288.179 301.255 290.399 302.073 290.399 302.073Z" fill="#FFDEDE"/>
<path d="M294.61 298.569C293.208 302.19 289.003 307.096 285.966 303.125C282.695 298.686 284.331 294.598 284.331 294.598C284.331 294.598 296.479 282.566 294.61 298.569Z" fill="#FFDEDE"/>
<path d="M284.442 300.788C283.274 299.153 283.274 297.167 283.624 295.298C283.974 293.896 284.325 292.378 285.376 291.326C285.843 290.859 286.311 290.392 286.895 290.041C288.063 289.224 289.465 288.523 290.866 288.64C292.385 288.873 293.553 290.041 295.072 290.158C295.539 290.158 295.889 290.041 296.356 290.158C297.057 290.275 297.525 290.742 297.992 291.21C298.459 291.677 298.926 292.261 299.16 292.845C299.277 293.195 299.277 293.663 299.277 294.013C299.277 294.831 299.043 295.648 298.693 296.466C298.342 297.284 297.758 298.101 296.941 298.569C296.123 299.036 294.955 298.919 294.371 298.218C294.137 297.868 293.903 297.517 293.787 297.167C293.319 296.232 292.735 295.415 292.034 294.831C291.217 294.247 290.165 293.896 289.231 294.247C288.413 294.48 287.829 295.181 287.012 295.181C286.194 295.181 286.661 297.517 286.194 296.933C284.442 295.064 283.157 298.218 284.442 300.788Z" fill="#12b981"/>
<path d="M308.043 334.78C307.81 334.313 307.343 333.846 306.758 333.962C306.291 333.962 305.941 334.43 305.59 334.78C305.357 335.131 305.123 335.364 304.773 335.715C304.422 336.065 304.189 336.416 303.955 336.883C303.721 337.35 303.721 337.817 303.955 338.285C304.189 338.635 304.539 338.869 305.006 338.985C305.474 339.102 305.824 338.985 306.174 338.752C307.109 338.284 308.744 336.416 308.043 334.78Z" fill="#FFDEDE"/>
<path d="M118.691 241.682H154.202C157.005 241.682 159.224 243.901 159.224 246.704V270.884C159.224 273.688 157.005 275.907 154.202 275.907H151.632L157.239 281.631L142.637 275.907H118.691C115.888 275.907 113.668 273.688 113.668 270.884V246.704C113.551 243.901 115.888 241.682 118.691 241.682Z" fill="white"/>
<path d="M114.598 273.221H151.394C153.847 273.221 155.833 271.235 155.833 268.782V243.434C155.833 240.981 153.847 238.995 151.394 238.995H114.598C112.145 238.995 110.16 240.981 110.16 243.434V268.782C110.16 271.235 112.145 273.221 114.598 273.221Z" fill="#12b981"/>
<path d="M146.49 271.469L153.732 278.945L134.809 271.469" fill="#12b981"/>
<path d="M150.93 250.443H115.186C114.485 250.443 113.901 249.859 113.901 249.158C113.901 248.457 114.485 247.873 115.186 247.873H150.93C151.631 247.873 152.215 248.457 152.215 249.158C152.215 249.859 151.631 250.443 150.93 250.443ZM152.215 256.05C152.215 255.349 151.631 254.765 150.93 254.765H115.186C114.485 254.765 113.901 255.349 113.901 256.05C113.901 256.751 114.485 257.335 115.186 257.335H150.93C151.631 257.452 152.215 256.867 152.215 256.05ZM152.215 263.058C152.215 262.358 151.631 261.774 150.93 261.774H115.186C114.485 261.774 113.901 262.358 113.901 263.058C113.901 263.759 114.485 264.343 115.186 264.343H150.93C151.631 264.343 152.215 263.759 152.215 263.058Z" fill="white"/>
<path d="M353.237 262.94H317.727C314.923 262.94 312.704 265.16 312.704 267.963V292.143C312.704 294.947 314.923 297.166 317.727 297.166H320.297L314.69 302.89L329.291 297.166H353.237C356.041 297.166 358.26 294.947 358.26 292.143V267.963C358.26 265.16 356.041 262.94 353.237 262.94Z" fill="#e6f7f1"/>
<path d="M351.135 294.479H314.34C311.887 294.479 309.901 292.494 309.901 290.041V264.693C309.901 262.24 311.887 260.254 314.34 260.254H351.135C353.588 260.254 355.574 262.24 355.574 264.693V290.041C355.574 292.494 353.588 294.479 351.135 294.479Z" fill="white"/>
<path d="M319.242 292.844L312 300.203L330.923 292.844" fill="white"/>
<path d="M334.193 288.989H332.207C331.507 288.989 330.806 288.405 330.922 287.588V284.784H335.595V287.588C335.595 288.405 335.011 288.989 334.193 288.989Z" fill="#12b981"/>
<path d="M340.033 278.827C340.033 282.565 336.996 285.602 333.258 285.602C329.52 285.602 326.483 282.565 326.483 278.827C326.483 275.089 329.52 272.052 333.258 272.052C337.113 271.935 340.033 274.972 340.033 278.827Z" fill="#12b981"/>
<path d="M333.959 270.3C333.843 270.417 333.609 270.534 333.375 270.534C332.791 270.534 332.441 270.066 332.441 269.599V264.927C332.441 264.343 332.908 263.992 333.375 263.992C333.959 263.992 334.31 264.459 334.31 264.927V269.599C334.31 269.833 334.193 270.066 333.959 270.3Z" fill="#12b981"/>
<path d="M328.115 271.118C327.765 271.468 327.181 271.351 326.83 271.001L323.676 267.847C323.326 267.497 323.326 266.913 323.676 266.445C324.027 266.095 324.611 266.095 325.078 266.445L328.232 269.599C328.582 270.067 328.582 270.651 328.115 271.118C328.115 271.001 328.115 271.001 328.115 271.118Z" fill="#12b981"/>
<path d="M324.612 276.024C324.379 276.258 324.145 276.258 323.794 276.258L320.057 275.323C319.589 275.206 319.239 274.739 319.356 274.155C319.472 273.688 320.057 273.337 320.524 273.454L324.262 274.389C324.729 274.506 325.079 274.973 324.963 275.557C324.846 275.674 324.729 275.907 324.612 276.024Z" fill="#12b981"/>
<path d="M339.682 271.118C339.332 271.468 338.748 271.351 338.398 271.001C338.047 270.651 338.047 270.067 338.398 269.599L341.551 266.445C341.902 266.095 342.486 266.095 342.953 266.445C343.304 266.796 343.304 267.38 342.953 267.847L339.682 271.118Z" fill="#12b981"/>
<path d="M346.925 275.206C346.808 275.323 346.692 275.323 346.575 275.439L342.837 276.257C342.369 276.374 341.785 276.024 341.669 275.556C341.552 275.089 341.902 274.505 342.37 274.388L346.107 273.57C346.575 273.454 347.159 273.804 347.276 274.271C347.276 274.622 347.159 275.089 346.925 275.206Z" fill="#12b981"/>
<path d="M457.903 278.36V272.87H455.566C455.45 272.403 455.216 272.053 455.099 271.702L456.735 270.067L452.88 266.212L451.244 267.847C450.894 267.614 450.427 267.497 450.076 267.38V265.044H444.469V267.38C444.002 267.497 443.652 267.731 443.301 267.847L441.666 266.212L437.811 270.067L439.447 271.702C439.213 272.053 439.096 272.52 438.979 272.87H436.643V278.36H438.979C439.096 278.828 439.33 279.178 439.447 279.528L437.811 281.164L441.666 285.019L443.301 283.383C443.652 283.617 444.119 283.734 444.469 283.85V286.187H449.96V283.85C450.427 283.734 450.777 283.5 451.128 283.383L452.763 285.019L456.618 281.164L454.982 279.528C455.216 279.178 455.333 278.711 455.45 278.36H457.903ZM447.273 281.164C444.236 281.164 441.783 278.711 441.783 275.674C441.783 272.637 444.236 270.184 447.273 270.184C450.31 270.184 452.763 272.637 452.763 275.674C452.763 278.711 450.31 281.164 447.273 281.164ZM465.145 301.489V298.569H463.977C463.86 298.335 463.86 298.101 463.743 297.985L464.561 297.167L462.575 295.181L461.757 295.999C461.524 295.882 461.29 295.765 461.173 295.765V294.597H458.253V295.765C458.019 295.882 457.786 295.882 457.669 295.999L456.851 295.181L454.866 297.167L455.683 297.985C455.566 298.218 455.45 298.452 455.45 298.569H454.281V301.489H455.45C455.566 301.723 455.566 301.956 455.683 302.073L454.866 302.891L456.851 304.876L457.669 304.059C457.903 304.176 458.136 304.292 458.253 304.292V305.46H461.173V304.292C461.407 304.176 461.641 304.176 461.757 304.059L462.575 304.876L464.561 302.891L463.743 302.073C463.86 301.839 463.977 301.606 463.977 301.489H465.145ZM459.538 302.891C457.903 302.891 456.618 301.606 456.618 299.97C456.618 298.335 457.903 297.05 459.538 297.05C461.173 297.05 462.458 298.335 462.458 299.97C462.458 301.606 461.173 302.891 459.538 302.891Z" fill="white"/>
<path d="M96.6086 272.753L93.6884 268.197L91.8194 269.482C91.4689 269.249 91.1185 269.015 90.7681 268.781L91.2353 266.562L85.9788 265.511L85.5116 267.73C85.0444 267.73 84.6939 267.847 84.2267 267.964L82.9418 266.095L78.3862 269.015L79.6711 270.884C79.4374 271.234 79.2038 271.585 78.9702 271.935L76.7508 271.468L75.6995 276.725L77.9189 277.192C77.9189 277.659 78.0357 278.009 78.1525 278.477L76.2836 279.762L79.2038 284.317L81.0728 283.032C81.4232 283.266 81.7737 283.5 82.1241 283.733L81.6569 285.953L86.9133 287.004L87.3806 284.785C87.8478 284.785 88.1983 284.668 88.6655 284.551L89.9504 286.42L94.506 283.5L93.2211 281.631C93.4547 281.28 93.6884 280.93 93.922 280.579L96.1414 281.047L97.1927 275.79L94.9733 275.323C94.9733 274.856 94.8565 274.505 94.7397 274.038L96.6086 272.753ZM89.3664 280.813C86.9133 282.448 83.5258 281.747 81.8905 279.294C80.2551 276.841 80.956 273.454 83.409 271.819C85.862 270.183 89.2495 270.884 90.8849 273.337C92.6371 275.79 91.9362 279.178 89.3664 280.813ZM69.1581 280.229L67.2891 277.425L66.121 278.243C65.8874 278.126 65.6538 277.893 65.4202 277.776L65.6538 276.374L62.3831 275.673L62.1495 277.075C61.9158 277.075 61.5654 277.192 61.3318 277.192L60.5141 276.024L57.7107 277.893L58.5283 279.061C58.4115 279.294 58.1779 279.528 58.0611 279.762L56.6594 279.528L55.9585 282.799L57.3602 283.032C57.3602 283.266 57.477 283.616 57.477 283.85L56.3089 284.668L58.1779 287.471L59.346 286.653C59.5796 286.77 59.8132 287.004 60.0469 287.121L59.8132 288.522L63.0839 289.223L63.3176 287.822C63.5512 287.822 63.9016 287.705 64.1352 287.705L64.9529 288.873L67.7564 287.004L66.9387 285.836C67.0555 285.602 67.2891 285.369 67.4059 285.135L68.8077 285.369L69.5085 282.098L68.1068 281.864C68.1068 281.631 67.99 281.28 67.99 281.047L69.1581 280.229ZM64.6025 285.252C63.084 286.303 60.8645 285.836 59.9301 284.317C58.8788 282.799 59.346 280.579 60.8645 279.645C62.3831 278.594 64.6025 279.061 65.537 280.579C66.5883 282.098 66.121 284.2 64.6025 285.252Z" fill="#12b981"/>
<path d="M291.561 12.4988L286.538 4.78924L283.267 6.89183C282.683 6.42459 282.099 6.07416 281.398 5.72373L282.216 1.86897L273.221 0L272.404 3.85476C271.703 3.97157 271.002 4.08838 270.301 4.20519L268.198 0.934489L260.489 5.95735L262.591 9.22805C262.124 9.8121 261.774 10.3962 261.423 11.097L257.569 10.2793L255.7 19.2738L259.554 20.0914C259.671 20.7923 259.788 21.4932 259.905 22.194L256.634 24.2966L261.657 32.0061L264.928 29.9035C265.512 30.3708 266.096 30.7212 266.797 31.0716L265.979 34.9264L274.973 36.7954L275.791 32.9406C276.492 32.8238 277.193 32.707 277.894 32.5902L279.996 35.8609L287.706 30.838L285.603 27.5673C286.07 26.9833 286.421 26.3992 286.771 25.6984L290.626 26.516L292.495 17.5216L288.64 16.7039C288.523 16.0031 288.407 15.3022 288.29 14.6013L291.561 12.4988ZM279.179 26.2824C274.857 29.0859 269.133 27.9178 266.329 23.5958C263.526 19.2738 264.694 13.55 269.016 10.7466C273.338 7.94313 279.062 9.11124 281.865 13.4332C284.552 17.6384 283.384 23.479 279.179 26.2824ZM244.369 25.2311L241.215 20.3251L239.113 21.7268C238.762 21.4932 238.412 21.1427 237.944 20.9091L238.412 18.4561L232.688 17.288L232.221 19.741C231.753 19.741 231.286 19.8578 230.819 19.9746L229.417 17.872L224.511 21.0259L225.913 23.1285C225.679 23.479 225.329 23.8294 225.095 24.2966L222.642 23.8294L221.474 29.5531L223.927 30.0204C223.927 30.4876 224.044 30.9548 224.161 31.4221L222.058 32.8238L225.212 37.7299L227.315 36.3281C227.665 36.5618 228.016 36.9122 228.483 37.1458L228.016 39.5988L233.739 40.7669L234.206 38.3139C234.674 38.3139 235.141 38.1971 235.608 38.0803L237.01 40.1829L241.916 37.029L240.514 34.9264C240.748 34.576 241.098 34.2255 241.332 33.7583L243.785 34.2255L244.953 28.5018L242.5 28.0346C242.5 27.5673 242.383 27.1001 242.266 26.6328L244.369 25.2311ZM236.543 33.8751C233.856 35.6273 230.235 34.9264 228.483 32.2398C226.731 29.5531 227.431 25.932 230.118 24.1798C232.805 22.4277 236.426 23.1285 238.178 25.8152C240.047 28.5018 239.346 32.1229 236.543 33.8751Z" fill="white"/>
<path d="M76.6313 236.309C91.0177 236.309 102.68 224.646 102.68 210.26C102.68 195.873 91.0177 184.211 76.6313 184.211C62.245 184.211 50.5825 195.873 50.5825 210.26C50.5825 224.646 62.245 236.309 76.6313 236.309Z" fill="#12b981"/>
<path d="M74.7642 232.104V226.73C71.7271 226.73 68.4564 225.679 66.5874 224.394L67.8723 220.89C69.7413 222.175 72.5447 223.226 75.5818 223.226C79.3198 223.226 81.8896 221.007 81.8896 217.969C81.8896 215.049 79.787 213.18 75.9323 211.662C70.559 209.559 67.1715 207.106 67.1715 202.434C67.1715 197.995 70.3253 194.724 75.2314 193.907V188.533H78.5021V193.673C81.656 193.79 83.8754 194.607 85.3939 195.542L84.109 199.046C82.9409 198.462 80.8383 197.294 77.4508 197.294C73.3624 197.294 71.8439 199.747 71.8439 201.85C71.8439 204.653 73.8297 206.055 78.3853 207.924C83.8754 210.143 86.6788 212.947 86.6788 217.619C86.6788 221.824 83.7586 225.796 78.2685 226.614V232.104H74.7642Z" fill="white"/>
<path d="M371.936 45.4398C382.194 45.4398 390.509 37.1244 390.509 26.8668C390.509 16.6093 382.194 8.29395 371.936 8.29395C361.679 8.29395 353.363 16.6093 353.363 26.8668C353.363 37.1244 361.679 45.4398 371.936 45.4398Z" fill="#12b981"/>
<path d="M370.649 42.4023V38.5476C368.429 38.5476 366.21 37.8467 364.808 36.9122L365.743 34.3424C367.144 35.2769 369.13 35.9777 371.233 35.9777C373.919 35.9777 375.788 34.4592 375.788 32.2398C375.788 30.1372 374.27 28.8523 371.466 27.6842C367.612 26.1656 365.159 24.4135 365.159 21.1428C365.159 17.9889 367.378 15.6527 370.882 15.0686V11.2139H373.218V14.835C375.438 14.9518 377.073 15.5359 378.125 16.1199L377.19 18.5729C376.372 18.1057 374.854 17.288 372.401 17.288C369.481 17.288 368.429 19.0402 368.429 20.5587C368.429 22.5445 369.831 23.479 373.102 24.8807C376.956 26.5161 378.942 28.5019 378.942 31.7726C378.942 34.8096 376.84 37.6131 372.985 38.1971V42.1687H370.649V42.4023Z" fill="white"/>
<path d="M469.754 187.483C471.51 180.01 466.875 172.528 459.401 170.772C451.927 169.016 444.446 173.652 442.69 181.125C440.934 188.599 445.569 196.081 453.043 197.836C460.516 199.592 467.998 194.957 469.754 187.483Z" fill="#12b981"/>
<path d="M455.222 195.891V193.087C453.587 193.087 451.835 192.503 450.9 191.802L451.601 189.933C452.653 190.634 454.054 191.102 455.69 191.102C457.675 191.102 459.077 189.934 459.077 188.298C459.077 186.78 458.026 185.728 455.923 184.911C453.003 183.743 451.251 182.458 451.251 180.005C451.251 177.668 452.886 175.916 455.573 175.449V172.646H457.325V175.449C459.077 175.449 460.128 175.916 461.063 176.383L460.362 178.252C459.778 177.902 458.61 177.318 456.741 177.318C454.522 177.318 453.704 178.603 453.704 179.771C453.704 181.29 454.755 181.99 457.208 183.042C460.128 184.21 461.647 185.728 461.647 188.181C461.647 190.401 460.128 192.503 457.208 192.971V195.891H455.222Z" fill="white"/>
<path d="M36.2153 336.415C44.4085 336.415 51.0503 329.773 51.0503 321.58C51.0503 313.387 44.4085 306.745 36.2153 306.745C28.0222 306.745 21.3804 313.387 21.3804 321.58C21.3804 329.773 28.0222 336.415 36.2153 336.415Z" fill="#12b981"/>
<path d="M36.2189 310.366C36.6861 312.235 37.0366 314.104 37.1534 315.973C37.2702 317.842 37.387 319.711 37.387 321.58L36.2189 320.412C37.8542 320.412 39.4896 320.529 41.1249 320.646C42.7603 320.879 44.3956 321.113 46.031 321.463C44.3956 321.93 42.7603 322.164 41.1249 322.281C39.4896 322.515 37.8542 322.515 36.2189 322.515H35.0508V321.346C35.0508 319.477 35.0508 317.608 35.2844 315.74C35.4012 314.104 35.7516 312.235 36.2189 310.366Z" fill="white"/>
<path d="M455.56 106.298C455.56 119.381 444.93 129.894 431.964 129.894C418.998 129.894 408.369 119.264 408.369 106.298C408.369 93.2151 418.998 82.7021 431.964 82.7021C444.93 82.7021 455.56 93.2151 455.56 106.298Z" fill="#12b981"/>
<path d="M445.749 105.597C449.019 99.99 447.034 92.8645 441.544 89.7106C435.937 86.4399 428.811 88.4257 425.657 93.9158C422.737 98.9387 424.022 105.246 428.461 108.868L421.803 120.315C421.335 121.133 421.569 122.184 422.387 122.651C423.204 123.119 424.256 122.885 424.723 122.067L431.381 110.62C436.638 112.606 442.712 110.62 445.749 105.597ZM431.498 106.882C427.526 104.546 426.241 99.5227 428.461 95.668C430.797 91.6964 435.82 90.4115 439.675 92.6309C443.646 94.9671 444.931 99.99 442.712 103.845C440.492 107.816 435.353 109.101 431.498 106.882Z" fill="white"/>
<path d="M420.596 222.905C421.74 217.147 418 211.552 412.242 210.408C406.484 209.264 400.889 213.004 399.745 218.762C398.6 224.52 402.341 230.115 408.099 231.259C413.856 232.403 419.452 228.663 420.596 222.905Z" fill="#12b981"/>
<path d="M413.982 221.24C414.682 220.422 415.15 219.254 415.15 218.086C415.15 216.684 414.566 215.282 413.514 214.348C412.463 213.413 411.061 212.946 409.66 213.18C407.557 213.413 405.805 215.049 405.454 217.151C405.221 218.553 405.571 219.955 406.506 221.123C407.44 222.291 407.907 223.459 407.907 224.627V225.211H407.791V227.547H412.93V225.211H412.813V224.627C412.697 223.576 413.164 222.408 413.982 221.24ZM407.207 220.656C406.506 219.721 406.155 218.67 406.389 217.502C406.622 215.866 408.141 214.465 409.776 214.348C410.944 214.231 411.996 214.581 412.813 215.282C413.631 215.983 414.098 217.151 414.098 218.202C414.098 219.137 413.748 219.955 413.164 220.656C412.113 221.94 411.529 223.342 411.529 224.861V225.094H411.061C411.412 223.926 412.113 221.473 411.645 220.656C411.529 220.422 411.412 220.422 411.295 220.422C411.178 220.422 410.944 220.422 410.711 220.539C410.594 220.305 410.36 220.188 410.01 220.188C409.776 220.188 409.543 220.305 409.426 220.539C409.426 220.539 409.426 220.539 409.309 220.539C409.075 220.422 408.842 220.422 408.608 220.656C408.141 221.123 408.608 223.459 409.192 225.211H408.725V224.978C408.725 223.342 408.258 221.94 407.207 220.656ZM409.776 224.978C409.192 223.109 408.842 221.123 409.076 220.772H409.192H409.309C409.309 221.006 409.309 221.356 409.426 221.473C409.543 221.59 409.66 221.59 409.893 221.473C410.01 221.356 410.127 221.24 410.127 221.123C410.127 221.006 410.01 220.772 409.893 220.656C409.893 220.656 409.893 220.539 410.01 220.539L410.127 220.422C410.127 220.422 410.36 220.422 410.477 220.656C410.36 220.772 410.244 220.889 410.244 221.006C410.127 221.24 410.244 221.473 410.477 221.59C410.594 221.59 410.828 221.59 410.944 221.473C411.061 221.356 411.178 221.006 411.061 220.772C411.178 220.772 411.178 220.656 411.178 220.656C411.529 221.24 410.944 223.342 410.477 224.861H409.776V224.978Z" fill="white"/>
<path d="M360.252 412.926H297.407C295.655 412.926 294.137 411.524 294.137 409.655V368.188C294.137 366.436 295.538 364.917 297.407 364.917H360.252C362.004 364.917 363.522 366.319 363.522 368.188V409.655C363.522 411.524 362.004 412.926 360.252 412.926Z" fill="#e6f7f1"/>
<path d="M297.522 409.889L328.244 377.766C328.594 377.415 329.061 377.415 329.295 377.766L359.199 409.071L297.522 409.889Z" fill="#12b981"/>
<path d="M297.529 409.889L327.082 382.673C328.017 381.738 329.535 381.738 330.47 382.673L360.023 409.889C361.191 410.941 360.49 413.043 358.855 413.043H298.697C297.179 412.927 296.361 410.941 297.529 409.889Z" fill="#e6f7f1"/>
<path d="M326.143 392.835L296.941 367.37C296.006 366.553 296.59 365.034 297.875 365.034H359.902C361.187 365.034 361.771 366.553 360.836 367.37L331.633 392.835C329.998 394.237 327.662 394.237 326.143 392.835Z" fill="#12b981"/>
<path d="M326.957 396.106L296.82 367.37H360.715L330.578 396.106C329.644 397.04 328.008 397.04 326.957 396.106Z" fill="#12b981"/>
<path d="M469.35 419H21.6148C19.8627 419 18.4609 417.598 18.4609 415.846C18.4609 414.094 19.8627 412.692 21.6148 412.692H469.35C471.102 412.692 472.504 414.094 472.504 415.846C472.504 417.598 471.102 419 469.35 419Z" fill="#12b981"/>
<defs>
<linearGradient id="paint0_linear_6591_6387" x1="280.122" y1="307.322" x2="273.094" y2="336.675" gradientUnits="userSpaceOnUse">
<stop stop-color="white"/>
<stop offset="0.9985" stop-color="white"/>
</linearGradient>
</defs>
</svg>
