<svg width="442" height="335" viewBox="0 0 442 335" fill="none" xmlns="http://www.w3.org/2000/svg">
<path d="M369.318 16.9V213.1C369.318 221.3 362.718 227.9 354.518 227.9H349.018V5.5H357.918C364.218 5.5 369.318 10.6 369.318 16.9Z" fill="#e6f7f1"/>
<path d="M364.118 24.8008V213.101C364.118 221.301 357.518 227.901 349.318 227.901H139.518C131.318 227.901 124.718 221.301 124.718 213.101V24.8008H364.118Z" fill="#e6f7f1"/>
<path d="M364.118 24.8004V16.8004C364.118 10.5004 359.018 5.40039 352.718 5.40039H136.118C129.818 5.40039 124.718 10.5004 124.718 16.8004V24.8004H364.118Z" fill="#12b981"/>
<path d="M152.518 16.5002C152.518 18.6002 154.218 20.3002 156.318 20.3002C158.418 20.3002 160.018 18.6002 160.018 16.5002C160.018 14.4002 158.318 12.7002 156.318 12.7002C154.218 12.8002 152.518 14.4002 152.518 16.5002Z" fill="url(#paint0_linear_6591_7227)"/>
<path d="M142.418 16.6008C142.418 18.7008 144.118 20.4008 146.218 20.4008C148.318 20.4008 149.918 18.7008 149.918 16.6008C149.918 14.5008 148.218 12.8008 146.218 12.8008C144.118 12.8008 142.418 14.5008 142.418 16.6008Z" fill="url(#paint1_linear_6591_7227)"/>
<path d="M132.218 16.6008C132.218 18.7008 133.918 20.4008 136.018 20.4008C138.118 20.4008 139.718 18.7008 139.718 16.6008C139.718 14.5008 138.018 12.8008 136.018 12.8008C133.918 12.8008 132.218 14.5008 132.218 16.6008Z" fill="url(#paint2_linear_6591_7227)"/>
<path d="M343.118 107.8C342.418 108.1 341.618 108.3 340.818 108.4L314.518 112.1C309.418 112.8 304.718 109.8 303.218 104.9L303.118 104.7L300.018 90.7002L306.618 89.3002L309.618 103.2C310.118 104.8 311.818 105.9 313.518 105.6L339.818 101.9C341.718 101.6 343.018 100 342.918 98.1002L342.018 85.2002L348.718 84.7002L349.618 97.6002C350.018 102 347.318 106.2 343.118 107.8Z" fill="#12b981"/>
<path d="M284.218 88L270.018 89C268.318 94.1 273.418 105.7 278.018 106L287.318 96.4L284.218 88Z" fill="#12b981"/>
<path d="M396.418 80.6L287.318 96.2C286.418 96.1 285.518 95.2 284.818 94C283.518 91.9 282.918 88.9 284.118 87.9L369.418 18.5L396.418 80.6Z" fill="#12b981"/>
<path d="M363.118 33.0002L332.218 54.4002C331.818 57.8002 332.418 60.7002 333.918 63.1002L365.018 45.6002C365.518 45.3002 365.818 44.7002 365.718 44.1002L363.518 33.2002C363.418 33.0002 363.218 32.9002 363.118 33.0002Z" fill="#e6f7f1"/>
<path d="M324.318 60.2998C324.318 60.2998 323.318 64.4998 325.718 68.3998L290.018 85.2998L324.318 60.2998Z" fill="#e6f7f1"/>
<path d="M398.018 41.3004L416.618 30.1004L410.118 21.7004L441.718 12.4004L420.218 25.4004L426.318 32.5004L398.018 41.3004Z" fill="#e6f7f1"/>
<path d="M431.018 51.6996L409.818 45.0996L410.918 52.7996L400.218 52.8996L414.818 57.8996L413.818 50.2996L431.018 51.6996Z" fill="#e6f7f1"/>
<path d="M404.718 0L394.618 15.5L402.418 18.1L389.818 29.6L394.818 19.3L387.418 17L404.718 0Z" fill="#e6f7f1"/>
<path d="M383.618 73.7002L287.318 96.2002C286.418 96.1002 285.518 95.2002 284.818 94.0002L376.318 63.2002C378.718 67.4002 381.218 70.9002 383.618 73.7002Z" fill="#e6f7f1"/>
<path d="M396.418 80.6C393.118 81.9 388.418 79.1 383.618 73.7C381.118 70.9 378.618 67.4 376.318 63.3C374.618 60.4 373.018 57.3 371.618 53.9C364.218 36.8 363.218 20.9 369.518 18.5C375.818 16.1 386.918 28 394.318 45.2C401.818 62.4 402.718 78.2 396.418 80.6Z" fill="#e6f7f1"/>
<path d="M396.418 75.9999C396.218 76.5999 395.818 77.2999 395.218 77.4999C393.018 78.3999 386.518 73.7999 380.018 63.0999C378.218 60.0999 376.418 56.5999 374.718 52.6999C373.118 48.8999 371.818 45.2999 370.918 41.9999C368.418 33.0999 368.318 26.3999 369.618 23.2999C369.818 22.6999 370.218 21.9999 370.818 21.7999C373.618 20.6999 383.518 28.4999 391.318 46.6999C397.418 60.5999 398.218 71.6999 396.418 75.9999Z" fill="#e6f7f1"/>
<path d="M396.418 75.9997C396.218 76.5997 395.818 77.2997 395.218 77.4997C394.918 77.5997 394.418 77.5997 393.918 77.4997C394.818 72.1997 393.418 62.2997 388.218 50.1997C381.218 34.1997 372.818 26.1997 368.918 25.2997C369.018 24.4997 369.218 23.6997 369.518 23.0997C369.718 22.4997 370.118 21.7997 370.718 21.5997C373.518 20.4997 383.418 28.2997 391.218 46.4997C397.418 60.5997 398.218 71.6997 396.418 75.9997Z" fill="#12b981"/>
<path d="M380.018 63.0002C378.218 60.0002 376.418 56.5002 374.718 52.6002C373.118 48.8002 371.818 45.2002 370.918 41.9002C376.818 40.2002 383.118 43.5002 385.118 49.4002C386.818 54.7002 384.618 60.3002 380.018 63.0002Z" fill="#12b981"/>
<path d="M249.018 39.2998H236.618V118.2H144.118C144.518 118.3 144.918 118.3 145.218 118.3H249.018C252.018 118.3 254.418 115.9 254.418 112.9V44.7998C254.418 41.6998 251.918 39.2998 249.018 39.2998Z" fill="black"/>
<path d="M250.518 39.2998H135.918V118.3H250.518V39.2998Z" fill="#12b981"/>
<path d="M202.218 86.7001L187.818 95.4001C186.118 96.4001 184.018 95.2001 184.018 93.2001V75.7001C184.018 73.7001 186.218 72.5001 187.818 73.5001L202.218 82.2001C203.918 83.4001 203.918 85.7001 202.218 86.7001Z" fill="#e6f7f1"/>
<path d="M236.318 107.7C236.318 108.4 235.818 108.9 235.118 108.9H151.418C150.718 108.9 150.218 108.4 150.218 107.7C150.218 107 150.718 106.5 151.418 106.5H235.118C235.718 106.5 236.318 107 236.318 107.7Z" fill="#e6f7f1"/>
<path d="M201.918 111C203.465 111 204.718 109.747 204.718 108.2C204.718 106.654 203.465 105.4 201.918 105.4C200.372 105.4 199.118 106.654 199.118 108.2C199.118 109.747 200.372 111 201.918 111Z" fill="#e6f7f1"/>
<path d="M351.418 131.8H342.718V210.8H351.418V131.8Z" fill="#e6f7f1"/>
<path d="M347.918 131.8H237.118V210.8H347.918V131.8Z" fill="#12b981"/>
<path d="M314.018 148.4L305.018 154.2C300.418 147.1 290.918 145.3 284.018 150L278.018 141.2C289.818 133.2 306.118 136.1 314.018 148.4Z" fill="#e6f7f1"/>
<path d="M292.518 187.999C291.018 187.999 289.518 187.899 288.118 187.599L289.918 177.099C290.718 177.299 291.618 177.299 292.518 177.299C304.418 177.299 311.418 163.999 305.018 154.199L314.018 148.399C325.018 165.299 312.918 187.999 292.518 187.999Z" fill="black"/>
<path d="M279.818 170.1L270.718 175.7C263.718 164.3 266.618 149 278.218 141.1L284.218 149.9C277.618 154.4 275.518 163.2 279.818 170.1Z" fill="#e6f7f1"/>
<path d="M289.918 177.1L288.118 187.6C280.718 186.3 274.418 181.9 270.618 175.7L279.718 170.1C282.018 173.7 285.618 176.3 289.918 177.1Z" fill="#e6f7f1"/>
<path d="M264.518 201.399C264.518 203.899 262.518 205.899 260.018 205.899C258.818 205.899 257.618 205.399 256.818 204.599C256.018 203.799 255.518 202.699 255.518 201.399C255.518 198.899 257.518 196.899 260.018 196.899C261.218 196.899 262.418 197.399 263.218 198.199C264.018 198.999 264.518 200.099 264.518 201.399Z" fill="url(#paint3_linear_6591_7227)"/>
<path d="M278.718 198.999H267.118V200.499H278.718V198.999Z" fill="#e6f7f1"/>
<path d="M274.018 202.199H267.118V203.699H274.018V202.199Z" fill="#e6f7f1"/>
<path d="M289.918 201.399C289.918 203.899 287.918 205.899 285.418 205.899C284.218 205.899 283.018 205.399 282.218 204.599C281.418 203.799 280.918 202.699 280.918 201.399C280.918 198.899 282.918 196.899 285.418 196.899C286.618 196.899 287.818 197.399 288.618 198.199C289.418 198.999 289.918 200.099 289.918 201.399Z" fill="url(#paint4_linear_6591_7227)"/>
<path d="M304.118 198.999H292.518V200.499H304.118V198.999Z" fill="#e6f7f1"/>
<path d="M299.418 202.199H292.518V203.699H299.418V202.199Z" fill="#e6f7f1"/>
<path d="M315.318 201.399C315.318 203.899 313.318 205.899 310.818 205.899C309.618 205.899 308.418 205.399 307.618 204.599C306.818 203.799 306.318 202.699 306.318 201.399C306.318 198.899 308.318 196.899 310.818 196.899C312.018 196.899 313.218 197.399 314.018 198.199C314.818 198.999 315.318 200.099 315.318 201.399Z" fill="url(#paint5_linear_6591_7227)"/>
<path d="M329.518 198.999H317.918V200.499H329.518V198.999Z" fill="#e6f7f1"/>
<path d="M324.818 202.199H317.918V203.699H324.818V202.199Z" fill="#e6f7f1"/>
<path d="M221.818 129.6H208.018V172.4H221.818C224.018 172.4 225.818 170.6 225.818 168.4V133.5C225.818 131.3 224.018 129.6 221.818 129.6Z" fill="#e6f7f1"/>
<path d="M222.518 133.5V168.4C222.518 170.6 220.718 172.4 218.518 172.4H115.518C113.318 172.4 111.518 170.6 111.518 168.4V133.5C111.518 131.3 113.318 129.5 115.518 129.5H218.618C220.818 129.6 222.518 131.3 222.518 133.5Z" fill="#12b981"/>
<path d="M221.818 176.8H208.018V219.6H221.818C224.018 219.6 225.818 217.8 225.818 215.6V180.7C225.818 178.5 224.018 176.8 221.818 176.8Z" fill="#e6f7f1"/>
<path d="M222.518 180.7V215.6C222.518 217.8 220.718 219.6 218.518 219.6H115.518C113.318 219.6 111.518 217.8 111.518 215.6V180.7C111.518 178.5 113.318 176.7 115.518 176.7H218.618C220.818 176.8 222.518 178.5 222.518 180.7Z" fill="#12b981"/>
<path d="M132.918 163.6C139.877 163.6 145.518 157.959 145.518 151C145.518 144.042 139.877 138.4 132.918 138.4C125.959 138.4 120.318 144.042 120.318 151C120.318 157.959 125.959 163.6 132.918 163.6Z" fill="white"/>
<path d="M138.018 157.1C138.018 158.1 137.218 158.9 136.218 158.9C135.018 158.9 134.118 157.7 134.418 156.6L128.218 152.4C127.918 152.6 127.518 152.8 127.118 152.8C126.118 152.8 125.318 152 125.318 151C125.318 150 126.118 149.2 127.118 149.2C127.518 149.2 127.918 149.3 128.218 149.6L134.418 145.4C134.118 144.3 134.918 143.1 136.218 143.1C137.218 143.1 138.018 143.9 138.018 144.9C138.018 145.9 137.218 146.7 136.218 146.7C135.818 146.7 135.418 146.6 135.118 146.3L128.918 150.5C129.018 150.8 129.018 151.1 128.918 151.4L135.118 155.6C135.418 155.4 135.818 155.2 136.218 155.2C137.218 155.3 138.018 156.1 138.018 157.1Z" fill="black"/>
<path d="M168.618 141.2H149.618V147.7H168.618V141.2Z" fill="#e6f7f1"/>
<path d="M215.518 150.4H149.618V153.2H215.518V150.4Z" fill="#e6f7f1"/>
<path d="M173.318 155.9H149.618V158.7H173.318V155.9Z" fill="#e6f7f1"/>
<path d="M192.918 155.9H179.018V158.7H192.918V155.9Z" fill="#e6f7f1"/>
<path d="M145.018 199.1C145.018 205 140.218 209.7 134.418 209.7C128.618 209.7 123.818 205 123.818 199.1C123.818 193.2 128.518 188.5 134.418 188.5C140.318 188.5 145.018 193.2 145.018 199.1Z" fill="#e6f7f1"/>
<path d="M134.418 197.8C135.467 197.8 136.318 196.904 136.318 195.8C136.318 194.695 135.467 193.8 134.418 193.8C133.369 193.8 132.518 194.695 132.518 195.8C132.518 196.904 133.369 197.8 134.418 197.8Z" fill="black"/>
<path d="M138.918 203.299C138.818 200.799 136.818 198.899 134.418 198.899C132.018 198.899 130.018 200.899 129.918 203.299H138.918Z" fill="black"/>
<path d="M206.818 193.9H153.018C151.118 193.9 149.518 192.3 149.518 190.4V190.2C149.518 188.3 151.118 186.7 153.018 186.7H206.818C208.718 186.7 210.318 188.3 210.318 190.2V190.4C210.318 192.3 208.718 193.9 206.818 193.9Z" fill="#e6f7f1"/>
<path d="M210.318 197.8H149.518V199.8H210.318V197.8Z" fill="url(#paint6_linear_6591_7227)"/>
<path d="M210.318 202.3H149.518V204.3H210.318V202.3Z" fill="url(#paint7_linear_6591_7227)"/>
<path d="M156.018 206.8H149.518V208.8H156.018V206.8Z" fill="url(#paint8_linear_6591_7227)"/>
<path d="M203.618 206.8H158.818V208.8H203.618V206.8Z" fill="url(#paint9_linear_6591_7227)"/>
<path d="M151.777 63.5312V54.804H154.726C155.411 54.804 155.97 54.9276 156.405 55.1747C156.842 55.419 157.166 55.75 157.376 56.1676C157.587 56.5852 157.692 57.0511 157.692 57.5653C157.692 58.0795 157.587 58.5469 157.376 58.9673C157.169 59.3878 156.848 59.723 156.413 59.973C155.979 60.2202 155.422 60.3438 154.743 60.3438H152.629V59.4062H154.709C155.178 59.4062 155.554 59.3253 155.838 59.1634C156.122 59.0014 156.328 58.7827 156.456 58.5071C156.587 58.2287 156.652 57.9148 156.652 57.5653C156.652 57.2159 156.587 56.9034 156.456 56.6278C156.328 56.3523 156.121 56.1364 155.834 55.9801C155.547 55.821 155.166 55.7415 154.692 55.7415H152.834V63.5312H151.777ZM159.394 63.5312V54.804H160.451V62.5938H164.508V63.5312H159.394ZM167.053 63.5312H165.945L169.15 54.804H170.24L173.445 63.5312H172.337L169.729 56.1847H169.661L167.053 63.5312ZM167.462 60.1222H171.928V61.0597H167.462V60.1222ZM173.164 54.804H174.374L176.794 58.8778H176.897L179.317 54.804H180.527L177.374 59.9347V63.5312H176.317V59.9347L173.164 54.804ZM190.042 56.9858C189.991 56.554 189.783 56.2188 189.42 55.9801C189.056 55.7415 188.61 55.6222 188.082 55.6222C187.695 55.6222 187.357 55.6847 187.068 55.8097C186.781 55.9347 186.556 56.1065 186.394 56.3253C186.235 56.544 186.156 56.7926 186.156 57.071C186.156 57.304 186.211 57.5043 186.322 57.6719C186.435 57.8366 186.58 57.9744 186.756 58.0852C186.933 58.1932 187.117 58.2827 187.31 58.3537C187.504 58.4219 187.681 58.4773 187.843 58.5199L188.729 58.7585C188.957 58.8182 189.21 58.9006 189.488 59.0057C189.769 59.1108 190.038 59.2543 190.293 59.4361C190.552 59.6151 190.765 59.8452 190.933 60.1264C191.1 60.4077 191.184 60.7528 191.184 61.1619C191.184 61.6335 191.06 62.0597 190.813 62.4403C190.569 62.821 190.211 63.1236 189.739 63.348C189.271 63.5724 188.701 63.6847 188.031 63.6847C187.406 63.6847 186.864 63.5838 186.407 63.3821C185.952 63.1804 185.595 62.8991 185.333 62.5384C185.075 62.1776 184.928 61.7585 184.894 61.2812H185.985C186.014 61.6108 186.124 61.8835 186.318 62.0994C186.514 62.3125 186.761 62.4716 187.059 62.5767C187.36 62.679 187.684 62.7301 188.031 62.7301C188.434 62.7301 188.796 62.6648 189.117 62.5341C189.438 62.4006 189.693 62.2159 189.88 61.9801C190.068 61.7415 190.161 61.4631 190.161 61.1449C190.161 60.8551 190.08 60.6193 189.918 60.4375C189.756 60.2557 189.543 60.108 189.279 59.9943C189.015 59.8807 188.729 59.7812 188.423 59.696L187.349 59.3892C186.667 59.1932 186.127 58.9134 185.729 58.5497C185.332 58.1861 185.133 57.7102 185.133 57.1222C185.133 56.6335 185.265 56.2074 185.529 55.8438C185.796 55.4773 186.154 55.1932 186.603 54.9915C187.055 54.7869 187.559 54.6847 188.116 54.6847C188.678 54.6847 189.178 54.7855 189.616 54.9872C190.053 55.1861 190.4 55.4588 190.656 55.8054C190.914 56.152 191.05 56.5455 191.065 56.9858H190.042ZM192.444 55.7415V54.804H198.99V55.7415H196.245V63.5312H195.189V55.7415H192.444ZM207.621 59.1676C207.621 60.0881 207.455 60.8835 207.123 61.554C206.79 62.2244 206.334 62.7415 205.755 63.1051C205.175 63.4688 204.513 63.6506 203.769 63.6506C203.025 63.6506 202.363 63.4688 201.783 63.1051C201.204 62.7415 200.748 62.2244 200.415 61.554C200.083 60.8835 199.917 60.0881 199.917 59.1676C199.917 58.2472 200.083 57.4517 200.415 56.7812C200.748 56.1108 201.204 55.5938 201.783 55.2301C202.363 54.8665 203.025 54.6847 203.769 54.6847C204.513 54.6847 205.175 54.8665 205.755 55.2301C206.334 55.5938 206.79 56.1108 207.123 56.7812C207.455 57.4517 207.621 58.2472 207.621 59.1676ZM206.598 59.1676C206.598 58.4119 206.472 57.7741 206.219 57.2543C205.969 56.7344 205.63 56.3409 205.201 56.0739C204.775 55.8068 204.297 55.6733 203.769 55.6733C203.24 55.6733 202.762 55.8068 202.333 56.0739C201.907 56.3409 201.567 56.7344 201.314 57.2543C201.064 57.7741 200.939 58.4119 200.939 59.1676C200.939 59.9233 201.064 60.5611 201.314 61.081C201.567 61.6009 201.907 61.9943 202.333 62.2614C202.762 62.5284 203.24 62.6619 203.769 62.6619C204.297 62.6619 204.775 62.5284 205.201 62.2614C205.63 61.9943 205.969 61.6009 206.219 61.081C206.472 60.5611 206.598 59.9233 206.598 59.1676ZM209.398 63.5312V54.804H212.347C213.029 54.804 213.588 54.9205 214.026 55.1534C214.463 55.3835 214.787 55.7003 214.998 56.1037C215.208 56.5071 215.313 56.9659 215.313 57.4801C215.313 57.9943 215.208 58.4503 214.998 58.848C214.787 59.2457 214.465 59.5582 214.03 59.7855C213.596 60.0099 213.04 60.1222 212.364 60.1222H209.978V59.1676H212.33C212.796 59.1676 213.171 59.0994 213.455 58.9631C213.742 58.8267 213.949 58.6335 214.077 58.3835C214.208 58.1307 214.273 57.8295 214.273 57.4801C214.273 57.1307 214.208 56.8253 214.077 56.5639C213.946 56.3026 213.738 56.1009 213.451 55.9588C213.164 55.8139 212.784 55.7415 212.313 55.7415H210.455V63.5312H209.398ZM213.506 59.6108L215.654 63.5312H214.427L212.313 59.6108H213.506ZM217.074 63.5312V54.804H222.341V55.7415H218.131V58.6903H222.068V59.6278H218.131V62.5938H222.409V63.5312H217.074ZM227.979 63.5312H226.871L230.075 54.804H231.166L234.371 63.5312H233.263L230.655 56.1847H230.587L227.979 63.5312ZM228.388 60.1222H232.854V61.0597H228.388V60.1222ZM238.423 63.5312H235.73V54.804H238.543C239.389 54.804 240.114 54.9787 240.716 55.3281C241.318 55.6747 241.78 56.1733 242.101 56.8239C242.422 57.4716 242.582 58.2472 242.582 59.1506C242.582 60.0597 242.42 60.8423 242.097 61.4986C241.773 62.152 241.301 62.6548 240.682 63.0071C240.063 63.3565 239.31 63.5312 238.423 63.5312ZM236.787 62.5938H238.355C239.077 62.5938 239.675 62.4545 240.149 62.1761C240.624 61.8977 240.977 61.5014 241.21 60.9872C241.443 60.473 241.56 59.8608 241.56 59.1506C241.56 58.446 241.445 57.8395 241.215 57.331C240.984 56.8196 240.641 56.4276 240.183 56.1548C239.726 55.8793 239.156 55.7415 238.474 55.7415H236.787V62.5938ZM249.128 56.9858C249.077 56.554 248.869 56.2188 248.506 55.9801C248.142 55.7415 247.696 55.6222 247.168 55.6222C246.781 55.6222 246.443 55.6847 246.153 55.8097C245.867 55.9347 245.642 56.1065 245.48 56.3253C245.321 56.544 245.242 56.7926 245.242 57.071C245.242 57.304 245.297 57.5043 245.408 57.6719C245.521 57.8366 245.666 57.9744 245.842 58.0852C246.019 58.1932 246.203 58.2827 246.396 58.3537C246.59 58.4219 246.767 58.4773 246.929 58.5199L247.815 58.7585C248.043 58.8182 248.295 58.9006 248.574 59.0057C248.855 59.1108 249.124 59.2543 249.379 59.4361C249.638 59.6151 249.851 59.8452 250.019 60.1264C250.186 60.4077 250.27 60.7528 250.27 61.1619C250.27 61.6335 250.146 62.0597 249.899 62.4403C249.655 62.821 249.297 63.1236 248.825 63.348C248.357 63.5724 247.787 63.6847 247.117 63.6847C246.492 63.6847 245.95 63.5838 245.493 63.3821C245.038 63.1804 244.68 62.8991 244.419 62.5384C244.161 62.1776 244.014 61.7585 243.98 61.2812H245.071C245.099 61.6108 245.21 61.8835 245.403 62.0994C245.599 62.3125 245.847 62.4716 246.145 62.5767C246.446 62.679 246.77 62.7301 247.117 62.7301C247.52 62.7301 247.882 62.6648 248.203 62.5341C248.524 62.4006 248.778 62.2159 248.966 61.9801C249.153 61.7415 249.247 61.4631 249.247 61.1449C249.247 60.8551 249.166 60.6193 249.004 60.4375C248.842 60.2557 248.629 60.108 248.365 59.9943C248.101 59.8807 247.815 59.7812 247.509 59.696L246.435 59.3892C245.753 59.1932 245.213 58.9134 244.815 58.5497C244.418 58.1861 244.219 57.7102 244.219 57.1222C244.219 56.6335 244.351 56.2074 244.615 55.8438C244.882 55.4773 245.24 55.1932 245.689 54.9915C246.141 54.7869 246.645 54.6847 247.202 54.6847C247.764 54.6847 248.264 54.7855 248.702 54.9872C249.139 55.1861 249.486 55.4588 249.742 55.8054C250 56.152 250.136 56.5455 250.151 56.9858H249.128Z" fill="white"/>
<path d="M59.8182 322L47.2182 321.9L46.6182 315.9L46.1182 310.7L60.2182 310.3L60.0182 321.9C59.9182 322 59.9182 322.1 59.8182 322Z" fill="#FFDAD9"/>
<path d="M47.018 321.5L44.818 330.6C44.418 332.5 45.918 334.3 47.818 334.4C55.818 334.7 71.618 334.4 74.518 334.4C74.718 334.4 74.918 334.2 74.918 334C75.018 331.2 73.218 329.4 70.518 328.1L60.018 321C60.018 321 60.018 321 59.918 321L47.018 321.5Z" fill="#12b981"/>
<path d="M17.018 322L4.41797 321.9L5.21797 309.9L17.418 310.3L17.218 321.9C17.118 322 17.018 322.1 17.018 322Z" fill="#FFDAD9"/>
<path d="M4.11805 321.5L1.91805 330.6C1.51805 332.5 3.01805 334.3 4.91805 334.4C12.9181 334.7 28.7181 334.4 31.6181 334.4C31.8181 334.4 32.0181 334.2 32.0181 334C32.1181 331.2 30.3181 329.4 27.6181 328.1L17.1181 321C17.1181 321 17.1181 321 17.0181 321L4.11805 321.5Z" fill="#12b981"/>
<path d="M19.418 315.1L41.618 235L43.418 314.7C43.418 316.7 62.918 316.7 62.918 314.7L67.618 209.4L16.818 206.2L1.91797 314.7C1.91797 317.5 19.418 317.9 19.418 315.1Z" fill="#12b981"/>
<path d="M117.018 139.5C115.918 142.5 107.618 144.3 107.618 144.3L104.718 137.3C104.718 137.3 105.218 126.6 108.018 127C110.818 127.4 109.618 130.3 109.618 130.3C109.618 130.3 118.018 122.1 119.218 124.6C120.418 127.1 112.618 133.1 112.618 133.1C112.618 133.1 118.118 136.4 117.018 139.5Z" fill="#FFDAD9"/>
<path d="M110.918 144C110.918 144 84.7183 169.5 72.0183 169.5C71.2183 169.5 68.6183 168.3 65.6183 166.7C61.4183 164.5 56.3183 161.4 54.2183 159.7C51.8183 157.7 50.2183 156.2 50.2183 156.2C50.2183 156.2 52.0183 128.4 57.7183 130.2C60.9183 131.2 75.9183 150.3 75.9183 150.3L104.718 134.5L110.918 144Z" fill="#e6f7f1"/>
<path d="M68.9183 160.6C68.7183 162.4 66.7183 165.2 65.6183 166.6C61.4183 164.4 56.3183 161.3 54.2183 159.6C54.6183 157.2 55.5183 154.9 56.4183 152.7C58.3183 148.2 60.1183 143.7 62.0183 139.3L61.5183 136.7C63.7183 142 63.9183 146.4 66.1183 151.7C67.4183 154.5 69.3183 157.5 68.9183 160.6Z" fill="#12b981"/>
<path d="M12.5181 211.6C12.5181 212.3 13.6181 212.8 15.6181 213.3C17.3181 213.7 19.6181 214.1 22.2181 214.3C35.3181 215.7 57.8181 215.6 66.0181 214.1C67.9181 213.7 69.1181 213.3 69.1181 212.8C69.1181 212.8 61.9181 170.7 64.0181 166.5C64.7181 165.2 65.3181 164.1 65.8181 163.4C67.8181 160.5 68.8181 155.9 65.3181 152.5C63.0181 150.2 64.0181 136.2 59.8181 131.6C53.5181 124.8 23.4181 125.8 16.7181 131.8C16.0181 132.5 15.4181 133.3 14.9181 134.4C13.2181 138.3 13.1181 144.5 13.6181 151.2C14.8181 165.1 19.2181 180.8 19.2181 180.8L12.5181 211.6Z" fill="#e6f7f1"/>
<path d="M12.5181 211.6C12.5181 212.3 13.6181 212.8 15.6181 213.3C15.7181 213 15.8181 212.6 15.9181 212.3C16.6181 209.2 16.7181 206.1 17.5181 203C18.3181 200 19.8181 196.9 22.5181 195.3C25.0181 193.7 28.2181 193.7 31.2181 193.7C37.1181 193.7 42.9181 193.6 48.8181 193.6C49.1181 190.8 49.4181 188 49.7181 185.2C48.1181 184.7 46.6181 184.2 45.0181 183.7C45.2181 183.9 45.4181 184.2 45.7181 184.4C37.4181 178.6 23.8181 179.6 19.9181 170.1C18.3181 166.1 22.7181 157.2 23.4181 153.2C23.8181 151 26.1181 144.8 24.5181 143C22.4181 140.8 19.1181 144.8 17.8181 146.2C16.3181 147.8 14.9181 149.5 13.7181 151.3C14.9181 165.2 19.3181 180.9 19.3181 180.9L12.5181 211.6Z" fill="#12b981"/>
<path d="M16.4182 134.901C4.41819 138.101 -1.48181 175.601 0.318187 180.601C5.61819 195.401 49.1182 192.501 49.1182 192.501V183.501L14.9182 173.501C14.9182 173.501 24.7182 152.401 24.6182 142.101C24.6182 139.101 19.4182 134.201 16.4182 134.901Z" fill="#e6f7f1"/>
<path d="M49.1182 183.5L56.2182 182C56.2182 182 59.2182 179.5 56.8182 177.8C55.4182 176.8 49.1182 183.5 49.1182 183.5Z" fill="#FFDAD9"/>
<path d="M54.9184 198.2H71.4184C72.3184 198.2 73.1184 197.6 73.3184 196.7L78.9184 173.4C79.2184 172.1 78.2184 170.9 77.0184 170.9H60.5184C59.6184 170.9 58.8184 171.5 58.6184 172.4L53.0184 195.7C52.6184 197 53.6184 198.2 54.9184 198.2Z" fill="#12b981"/>
<path d="M49.1182 183.5V192.5C49.1182 192.5 63.3182 197.8 65.2182 190.2C67.0182 183.1 56.2182 182 56.2182 182L49.1182 183.5Z" fill="#FFDAD9"/>
<path d="M52.318 109.6C47.918 112.8 39.618 106.9 39.618 106.9L38.918 94.9004L52.918 97.6004C52.918 97.6004 56.718 106.4 52.318 109.6Z" fill="#e6f7f1"/>
<path d="M34.3184 127.7C34.3184 127.7 41.0184 137.4 45.7184 135.5C48.0184 134.6 47.5184 130 46.0184 128.1C45.8184 127.8 45.7184 127.5 45.6184 127.1C45.3184 126 45.3184 124.4 45.4184 122.8C45.5184 120.3 45.9184 117.9 45.9184 117.9L35.6184 115.4L34.3184 127.7Z" fill="#FFDAD9"/>
<path d="M38.918 117.9L45.618 126.9C45.318 125.8 45.318 124.2 45.418 122.6L38.918 117.9Z" fill="#e6f7f1"/>
<path d="M34.9181 114.101C34.9181 114.101 45.5181 127.601 53.1181 122.701C57.4181 120.001 55.8181 107.301 51.8181 100.901C49.8181 97.7005 47.0181 95.1006 43.6181 94.1006C33.3181 91.0006 29.9181 93.9005 29.9181 93.9005L33.6181 107.901C33.6181 107.901 29.2181 105.101 28.7181 109.001C28.2181 112.901 34.9181 114.101 34.9181 114.101Z" fill="#FFDAD9"/>
<path d="M55.3183 98.9004C51.7183 102.7 39.8183 100.4 39.1183 99.8004C40.5183 105.9 34.1183 108.6 33.8183 107.9C33.8183 107.9 29.4183 105.1 28.9183 109C28.3183 112.9 34.9183 114.1 34.9183 114.1L35.7183 115.3L34.3183 127.7C34.3183 127.7 10.2183 142.7 7.61831 140C5.11831 137.3 19.1183 122.5 20.0183 115.8C20.8183 110.1 16.3183 99.4004 24.5183 93.4004C31.7183 88.2004 46.0183 86.2004 50.1183 89.7004C54.4183 93.4004 56.8183 97.3004 55.3183 98.9004Z" fill="#12b981"/>
<path d="M44.018 107.5C44.418 108.3 44.318 109.2 43.818 109.4C43.318 109.6 42.618 109.2 42.218 108.4C41.818 107.6 41.918 106.7 42.418 106.5C42.918 106.2 43.618 106.7 44.018 107.5Z" fill="black"/>
<path d="M51.018 105.5C51.418 106.3 51.318 107.2 50.818 107.4C50.318 107.6 49.618 107.2 49.218 106.4C48.818 105.6 48.918 104.7 49.418 104.5C49.918 104.2 50.618 104.7 51.018 105.5Z" fill="black"/>
<path d="M46.718 105.601C47.318 107.501 47.918 109.101 48.918 110.701C49.218 111.301 50.418 112.401 48.418 113.801C49.618 112.201 49.018 112.001 48.418 111.001C47.318 109.401 46.618 107.501 46.718 105.601Z" fill="black"/>
<path d="M47.3184 117.601C47.9184 119.001 49.1184 119.801 50.3184 119.501C51.5184 119.201 52.1184 117.701 51.8184 116.301L47.3184 117.601Z" fill="white"/>
<defs>
<linearGradient id="paint0_linear_6591_7227" x1="156.277" y1="16.7493" x2="155.698" y2="20.5633" gradientUnits="userSpaceOnUse">
<stop stop-color="#F34B6D"/>
<stop offset="1" stop-color="#12b981"/>
</linearGradient>
<linearGradient id="paint1_linear_6591_7227" x1="145.997" y1="15.5639" x2="146.625" y2="19.2813" gradientUnits="userSpaceOnUse">
<stop stop-color="#FADF68"/>
<stop offset="1" stop-color="#EAC250"/>
</linearGradient>
<linearGradient id="paint2_linear_6591_7227" x1="135.929" y1="16.2391" x2="136.122" y2="18.8943" gradientUnits="userSpaceOnUse">
<stop stop-color="#3DCFA4"/>
<stop offset="1" stop-color="#30BB93"/>
</linearGradient>
<linearGradient id="paint3_linear_6591_7227" x1="255.605" y1="201.381" x2="264.562" y2="201.381" gradientUnits="userSpaceOnUse">
<stop stop-color="#FADF68"/>
<stop offset="1" stop-color="#EAC250"/>
</linearGradient>
<linearGradient id="paint4_linear_6591_7227" x1="281.004" y1="201.381" x2="289.961" y2="201.381" gradientUnits="userSpaceOnUse">
<stop stop-color="#3DCFA4"/>
<stop offset="1" stop-color="#30BB93"/>
</linearGradient>
<linearGradient id="paint5_linear_6591_7227" x1="306.403" y1="201.381" x2="315.36" y2="201.381" gradientUnits="userSpaceOnUse">
<stop stop-color="#F34B6D"/>
<stop offset="1" stop-color="#12b981"/>
</linearGradient>
<linearGradient id="paint6_linear_6591_7227" x1="179.906" y1="198.238" x2="179.906" y2="198.839" gradientUnits="userSpaceOnUse">
<stop stop-color="#D1DEFF"/>
<stop offset="1" stop-color="#e6f7f1"/>
</linearGradient>
<linearGradient id="paint7_linear_6591_7227" x1="179.906" y1="202.725" x2="179.906" y2="203.327" gradientUnits="userSpaceOnUse">
<stop stop-color="#D1DEFF"/>
<stop offset="1" stop-color="#e6f7f1"/>
</linearGradient>
<linearGradient id="paint8_linear_6591_7227" x1="152.745" y1="207.212" x2="152.745" y2="207.814" gradientUnits="userSpaceOnUse">
<stop stop-color="#D1DEFF"/>
<stop offset="1" stop-color="#e6f7f1"/>
</linearGradient>
<linearGradient id="paint9_linear_6591_7227" x1="181.17" y1="207.212" x2="181.17" y2="207.814" gradientUnits="userSpaceOnUse">
<stop stop-color="#D1DEFF"/>
<stop offset="1" stop-color="#e6f7f1"/>
</linearGradient>
</defs>
</svg>
