<svg width="143" height="122" viewBox="0 0 143 122" fill="none" xmlns="http://www.w3.org/2000/svg">
<path d="M11.6469 67.5432C0.896858 67.5432 -2.43314 53.5432 1.74686 43.9232C5.22686 35.9132 15.3969 30.3932 24.3869 33.2932C21.4569 17.3932 40.2169 8.82322 51.4869 18.7432C53.7869 10.7132 66.0169 -2.56678 86.1669 0.433218C106.577 3.47322 111.347 21.9332 111.347 28.4332C120.577 24.2932 134.257 28.4732 139.837 38.7332C145.047 48.3132 143.697 64.3332 134.587 67.5332H11.6469V67.5432Z" fill="#CBEDE1"/>
<path d="M120.277 114H25.723C23.6668 114 22 115.791 22 118C22 120.209 23.6668 122 25.723 122H120.277C122.333 122 124 120.209 124 118C124 115.791 122.333 114 120.277 114Z" fill="#CBEDE1"/>
<path d="M76.2793 114H25.7207C23.6658 114 22 115.791 22 118C22 120.209 23.6658 122 25.7207 122H76.2793C78.3342 122 80 120.209 80 118C80 115.791 78.3342 114 76.2793 114Z" fill="#0B5243"/>
<path d="M82.2669 35L70.5326 35L71.5525 77.9731L62.2576 77.9731C64.9704 85.8275 70.9637 95.2275 76.7362 101C82.0881 94.5441 86.704 86.8789 90.6365 78.1098L81.0787 78.1098L82.2669 35Z" fill="#0B5243" stroke="#0B5243" stroke-width="0.75" stroke-linecap="round" stroke-linejoin="round"/>
<path d="M80.0092 35L68.2749 35L69.2949 77.9731L60 77.9731C62.7127 85.8275 68.706 95.2275 74.4785 101C79.8305 94.5441 84.4464 86.8789 88.3788 78.1098L78.8211 78.1098L80.0092 35Z" fill="white" stroke="#0B5243" stroke-width="0.75" stroke-linecap="round" stroke-linejoin="round"/>
</svg>
