<svg width="400" height="400" viewBox="0 0 400 400" fill="none" xmlns="http://www.w3.org/2000/svg">
<path d="M149.81 134.94C148.87 134.94 147.92 134.87 146.99 134.72L147.08 134.15C147.98 134.29 148.9 134.36 149.81 134.36H149.92V134.94H149.81ZM152.84 134.68L152.74 134.11C153.67 133.95 154.6 133.72 155.49 133.41L155.68 133.96C154.76 134.27 153.8 134.52 152.84 134.68ZM144.14 134.03C143.21 133.73 142.3 133.35 141.43 132.9L141.7 132.39C142.54 132.82 143.42 133.19 144.32 133.49L144.14 134.03ZM158.38 132.79L158.11 132.28C158.95 131.84 159.75 131.32 160.5 130.75L160.85 131.21C160.07 131.81 159.24 132.34 158.38 132.79ZM138.94 131.35C138.15 130.77 137.41 130.12 136.73 129.42L137.14 129.02C137.8 129.7 138.52 130.32 139.28 130.89L138.94 131.35ZM163.04 129.26L162.62 128.86C163.27 128.18 163.87 127.43 164.4 126.65L164.88 126.98C164.33 127.78 163.71 128.55 163.04 129.26ZM134.86 127.16C134.3 126.36 133.8 125.51 133.38 124.63L133.9 124.38C134.31 125.23 134.79 126.06 135.34 126.83L134.86 127.16ZM166.33 124.43L165.81 124.18C166.21 123.32 166.55 122.43 166.81 121.52L167.37 121.68C167.09 122.62 166.74 123.54 166.33 124.43ZM132.32 121.9C132.04 120.96 131.83 120 131.71 119.03L132.28 118.96C132.4 119.9 132.6 120.83 132.87 121.74L132.32 121.9ZM167.93 118.8L167.36 118.73C167.44 118.05 167.48 117.36 167.48 116.67C167.48 116.41 167.47 116.15 167.46 115.89L168.04 115.86C168.05 116.13 168.06 116.4 168.06 116.67C168.06 117.39 168.02 118.1 167.93 118.8ZM132.14 116.12L131.56 116.1C131.59 115.12 131.7 114.14 131.89 113.18L132.46 113.29C132.28 114.22 132.17 115.17 132.14 116.12ZM167.11 113.08C166.92 112.16 166.65 111.24 166.31 110.35L166.85 110.14C167.2 111.06 167.48 112 167.68 112.95L167.11 113.08ZM133.23 110.56L132.69 110.36C133.03 109.44 133.44 108.55 133.92 107.7L134.42 107.98C133.96 108.8 133.56 109.67 133.23 110.56ZM166.25 110.22C165.9 109.34 165.48 108.48 165 107.67L165.5 107.38C166 108.22 166.43 109.1 166.79 110.02L166.25 110.22ZM136.01 105.63L135.56 105.27C136.17 104.51 136.85 103.79 137.57 103.13L137.96 103.56C137.26 104.19 136.6 104.89 136.01 105.63ZM163.37 105.35C162.76 104.63 162.09 103.94 161.38 103.33L161.76 102.89C162.5 103.53 163.19 104.23 163.82 104.98L163.37 105.35ZM140.22 101.83L139.91 101.34C140.73 100.81 141.6 100.35 142.5 99.9497L142.73 100.48C141.85 100.87 141.01 101.32 140.22 101.83ZM159.09 101.64C158.29 101.14 157.43 100.71 156.56 100.35L156.78 99.8197C157.68 100.19 158.56 100.64 159.39 101.15L159.09 101.64ZM145.41 99.5597L145.26 98.9997C146.21 98.7597 147.18 98.5897 148.15 98.4997L148.2 99.0797C147.26 99.1597 146.32 99.3297 145.41 99.5597ZM153.85 99.4797C152.93 99.2597 151.98 99.1197 151.04 99.0497L151.08 98.4697C152.05 98.5397 153.03 98.6897 153.98 98.9097L153.85 99.4797Z" fill="#75C7AA"/>
<path d="M325.19 269.76L325.18 269.18C326.14 269.16 327.1 269.12 328.05 269.06L328.09 269.64C327.13 269.7 326.16 269.74 325.19 269.76ZM322.29 269.74C321.33 269.71 320.35 269.66 319.39 269.59L319.43 269.01C320.38 269.08 321.35 269.13 322.3 269.16L322.29 269.74ZM330.98 269.39L330.92 268.82C331.87 268.71 332.83 268.59 333.77 268.44L333.86 269.01C332.91 269.15 331.94 269.28 330.98 269.39ZM316.5 269.31C315.55 269.19 314.58 269.05 313.63 268.89L313.73 268.32C314.67 268.48 315.63 268.62 316.58 268.74L316.5 269.31ZM336.72 268.48L336.6 267.91C337.54 267.71 338.48 267.5 339.4 267.26L339.54 267.82C338.61 268.06 337.66 268.28 336.72 268.48ZM310.78 268.33C309.84 268.12 308.89 267.89 307.96 267.64L308.11 267.08C309.03 267.33 309.97 267.56 310.9 267.76L310.78 268.33ZM342.34 267.03L342.17 266.48C343.08 266.2 344 265.89 344.9 265.57L345.1 266.11C344.18 266.44 343.26 266.75 342.34 267.03ZM305.18 266.81C304.26 266.51 303.34 266.19 302.43 265.85L302.63 265.31C303.53 265.65 304.44 265.97 305.35 266.26L305.18 266.81ZM347.79 265.06L347.57 264.53C348.45 264.17 349.33 263.77 350.19 263.37L350.44 263.89C349.56 264.29 348.67 264.69 347.79 265.06ZM299.73 264.77C298.84 264.39 297.95 263.98 297.09 263.56L297.34 263.04C298.2 263.46 299.08 263.86 299.96 264.24L299.73 264.77ZM353.03 262.58L352.76 262.07C353.6 261.62 354.44 261.15 355.26 260.66L355.56 261.16C354.72 261.65 353.87 262.13 353.03 262.58ZM294.5 262.22C293.66 261.76 292.81 261.27 291.98 260.76L292.28 260.27C293.1 260.77 293.94 261.25 294.77 261.71L294.5 262.22ZM358.01 259.62L357.69 259.14C358.49 258.61 359.28 258.06 360.05 257.5L360.39 257.97C359.62 258.53 358.82 259.09 358.01 259.62ZM289.54 259.19C288.74 258.65 287.95 258.08 287.17 257.5L287.52 257.04C288.29 257.61 289.08 258.18 289.86 258.71L289.54 259.19ZM362.7 256.21L362.34 255.76C363.08 255.16 363.82 254.54 364.54 253.91L364.92 254.34C364.19 254.97 363.45 255.6 362.7 256.21ZM284.89 255.71C284.15 255.1 283.41 254.46 282.69 253.81L283.08 253.38C283.79 254.02 284.52 254.65 285.26 255.26L284.89 255.71ZM367.05 252.36L366.65 251.94C367.33 251.28 368.01 250.59 368.67 249.89L369.09 250.29C368.42 251 367.74 251.69 367.05 252.36ZM280.59 251.81C279.91 251.13 279.23 250.42 278.58 249.71L279.01 249.32C279.65 250.02 280.32 250.72 281 251.4L280.59 251.81ZM371.02 248.13L370.58 247.75C371.2 247.02 371.81 246.27 372.4 245.52L372.86 245.87C372.26 246.64 371.65 247.4 371.02 248.13ZM276.67 247.53C276.05 246.79 275.45 246.02 274.87 245.26L275.33 244.91C275.9 245.67 276.51 246.43 277.12 247.16L276.67 247.53ZM374.58 243.54L374.11 243.21C374.66 242.43 375.2 241.62 375.71 240.82L376.2 241.13C375.68 241.94 375.14 242.75 374.58 243.54ZM273.18 242.9C272.64 242.11 272.1 241.29 271.6 240.47L272.09 240.17C272.59 240.98 273.12 241.79 273.66 242.58L273.18 242.9ZM377.7 238.64L377.2 238.35C377.67 237.52 378.13 236.67 378.57 235.82L379.08 236.08C378.64 236.94 378.17 237.8 377.7 238.64ZM270.13 237.97C269.66 237.13 269.21 236.26 268.78 235.4L269.3 235.14C269.72 235.99 270.17 236.85 270.63 237.68L270.13 237.97ZM380.34 233.46L379.81 233.22C380.2 232.35 380.58 231.45 380.93 230.57L381.47 230.78C381.12 231.68 380.74 232.58 380.34 233.46ZM267.56 232.77C267.17 231.89 266.81 230.99 266.46 230.09L267 229.88C267.34 230.77 267.7 231.66 268.09 232.54L267.56 232.77ZM382.48 228.05L381.93 227.86C382.24 226.96 382.53 226.04 382.8 225.12L383.36 225.28C383.08 226.21 382.79 227.14 382.48 228.05ZM265.49 227.36C265.19 226.44 264.91 225.51 264.65 224.58L265.21 224.43C265.46 225.35 265.74 226.27 266.04 227.18L265.49 227.36ZM384.09 222.48L383.53 222.35C383.75 221.42 383.95 220.48 384.13 219.54L384.7 219.65C384.52 220.59 384.32 221.54 384.09 222.48ZM263.94 221.76C263.73 220.82 263.54 219.87 263.37 218.91L263.94 218.81C264.11 219.75 264.3 220.7 264.51 221.63L263.94 221.76ZM385.17 216.77L384.6 216.69C384.73 215.75 384.85 214.79 384.93 213.83L385.51 213.88C385.42 214.85 385.31 215.82 385.17 216.77ZM262.93 216.05C262.81 215.1 262.71 214.13 262.63 213.16L263.21 213.11C263.29 214.06 263.39 215.03 263.51 215.97L262.93 216.05ZM385.71 210.99L385.13 210.96C385.17 210.01 385.2 209.04 385.2 208.09H385.78C385.78 209.06 385.76 210.03 385.71 210.99ZM262.46 210.26C262.44 209.54 262.42 208.81 262.42 208.09C262.42 207.85 262.42 207.6 262.42 207.36L263 207.37C263 207.61 263 207.85 263 208.09C263 208.81 263.01 209.53 263.04 210.24L262.46 210.26ZM385.19 206.67C385.17 205.71 385.12 204.75 385.06 203.8L385.64 203.76C385.71 204.72 385.75 205.7 385.77 206.66L385.19 206.67ZM263.1 204.49L262.52 204.46C262.58 203.5 262.66 202.52 262.76 201.57L263.33 201.63C263.24 202.57 263.16 203.54 263.1 204.49ZM384.79 200.93C384.68 199.98 384.54 199.03 384.39 198.08L384.96 197.99C385.12 198.94 385.25 199.91 385.36 200.86L384.79 200.93ZM263.71 198.77L263.14 198.68C263.29 197.73 263.46 196.76 263.65 195.82L264.22 195.93C264.02 196.88 263.85 197.83 263.71 198.77ZM383.85 195.26C383.65 194.33 383.43 193.39 383.18 192.46L383.74 192.31C383.99 193.24 384.21 194.19 384.41 195.13L383.85 195.26ZM264.84 193.14L264.28 193C264.52 192.07 264.78 191.12 265.05 190.2L265.6 190.37C265.33 191.28 265.08 192.21 264.84 193.14ZM382.39 189.7C382.1 188.79 381.79 187.87 381.46 186.98L382 186.78C382.33 187.68 382.65 188.61 382.94 189.53L382.39 189.7ZM266.51 187.63L265.97 187.44C266.29 186.53 266.64 185.62 267.01 184.72L267.54 184.94C267.18 185.82 266.83 186.73 266.51 187.63ZM380.4 184.31C380.03 183.44 379.63 182.55 379.22 181.69L379.74 181.44C380.16 182.31 380.56 183.2 380.93 184.08L380.4 184.31ZM268.7 182.3L268.18 182.06C268.59 181.19 269.02 180.31 269.47 179.45L269.98 179.72C269.53 180.56 269.1 181.43 268.7 182.3ZM377.92 179.14C377.47 178.3 376.99 177.46 376.5 176.65L377 176.35C377.5 177.18 377.98 178.02 378.44 178.87L377.92 179.14ZM271.37 177.2L270.87 176.91C271.36 176.08 271.87 175.25 272.4 174.44L272.88 174.76C272.37 175.55 271.86 176.38 271.37 177.2ZM374.96 174.22C374.43 173.43 373.88 172.64 373.31 171.87L373.78 171.53C374.35 172.31 374.91 173.1 375.45 173.9L374.96 174.22ZM274.52 172.38L274.05 172.04C274.61 171.26 275.2 170.48 275.8 169.72L276.25 170.08C275.66 170.83 275.08 171.6 274.52 172.38ZM371.55 169.59C370.95 168.85 370.32 168.11 369.69 167.4L370.12 167.01C370.76 167.73 371.4 168.47 372 169.22L371.55 169.59ZM278.1 167.87L277.67 167.49C278.31 166.76 278.97 166.04 279.63 165.35L280.05 165.75C279.38 166.44 278.73 167.16 278.1 167.87ZM367.72 165.3C367.05 164.62 366.36 163.94 365.66 163.29L366.05 162.87C366.75 163.52 367.46 164.21 368.13 164.89L367.72 165.3ZM282.09 163.73L281.69 163.31C282.39 162.65 283.11 161.99 283.84 161.36L284.22 161.8C283.5 162.42 282.78 163.07 282.09 163.73ZM363.5 161.39C362.77 160.78 362.02 160.17 361.26 159.59L361.61 159.13C362.38 159.72 363.14 160.33 363.87 160.95L363.5 161.39ZM286.44 159.97L286.08 159.51C286.84 158.92 287.62 158.33 288.4 157.77L288.74 158.24C287.96 158.81 287.19 159.39 286.44 159.97ZM358.94 157.89C358.15 157.34 357.35 156.81 356.54 156.3L356.85 155.81C357.67 156.32 358.48 156.86 359.27 157.41L358.94 157.89ZM291.12 156.65L290.81 156.16C291.62 155.64 292.45 155.13 293.29 154.65L293.58 155.15C292.75 155.63 291.93 156.13 291.12 156.65ZM354.06 154.83C353.23 154.36 352.37 153.9 351.52 153.48L351.78 152.96C352.64 153.39 353.51 153.85 354.35 154.33L354.06 154.83ZM296.09 153.77L295.82 153.26C296.67 152.82 297.55 152.39 298.43 151.99L298.67 152.52C297.81 152.91 296.94 153.34 296.09 153.77ZM348.92 152.24C348.05 151.85 347.15 151.48 346.26 151.13L346.47 150.59C347.37 150.94 348.27 151.32 349.16 151.71L348.92 152.24ZM301.31 151.38L301.09 150.84C301.99 150.48 302.9 150.14 303.81 149.82L304 150.37C303.1 150.69 302.2 151.03 301.31 151.38ZM343.55 150.15C342.64 149.85 341.72 149.56 340.8 149.3L340.96 148.74C341.89 149 342.82 149.29 343.73 149.6L343.55 150.15ZM306.74 149.49L306.58 148.94C307.5 148.67 308.45 148.41 309.38 148.18L309.52 148.74C308.59 148.97 307.66 149.22 306.74 149.49ZM338.02 148.58C337.09 148.36 336.14 148.17 335.2 147.99L335.3 147.42C336.25 147.59 337.2 147.79 338.14 148.01L338.02 148.58ZM312.33 148.12L312.22 147.55C313.17 147.37 314.13 147.2 315.08 147.06L315.16 147.63C314.22 147.78 313.26 147.94 312.33 148.12ZM332.36 147.54C331.41 147.41 330.45 147.31 329.5 147.22L329.55 146.64C330.51 146.72 331.48 146.83 332.43 146.96L332.36 147.54ZM318.02 147.29L317.96 146.71C318.92 146.62 319.89 146.54 320.85 146.49L320.88 147.07C319.93 147.12 318.96 147.2 318.02 147.29ZM326.63 147.04C325.79 147.01 324.94 146.99 324.1 146.99C323.98 146.99 323.87 146.99 323.76 146.99V146.41C323.88 146.41 323.99 146.41 324.11 146.41C324.96 146.41 325.82 146.43 326.67 146.46L326.63 147.04Z" fill="#75C7AA"/>
<path d="M73.87 202.13C72.9 202.12 71.92 202.08 70.96 202.01L71 201.43C71.94 201.5 72.91 201.54 73.87 201.55V202.13ZM76.78 202.05L76.74 201.47C77.69 201.41 78.65 201.31 79.59 201.18L79.67 201.75C78.71 201.89 77.74 201.99 76.78 202.05ZM68.07 201.69C67.11 201.55 66.15 201.37 65.21 201.16L65.34 200.6C66.27 200.81 67.22 200.98 68.16 201.12L68.07 201.69ZM82.54 201.26L82.42 200.69C83.35 200.49 84.29 200.26 85.2 200L85.36 200.56C84.43 200.82 83.48 201.06 82.54 201.26ZM62.4 200.42C61.47 200.14 60.55 199.83 59.64 199.48L59.85 198.94C60.74 199.28 61.66 199.59 62.57 199.87L62.4 200.42ZM88.13 199.65L87.93 199.11C88.82 198.78 89.71 198.42 90.58 198.02L90.82 198.55C89.94 198.94 89.03 199.32 88.13 199.65ZM56.95 198.34C56.07 197.93 55.2 197.49 54.36 197.01L54.64 196.51C55.47 196.97 56.33 197.41 57.2 197.82L56.95 198.34ZM93.42 197.26L93.14 196.75C93.98 196.3 94.81 195.81 95.61 195.29L95.92 195.78C95.11 196.3 94.27 196.8 93.42 197.26ZM51.87 195.51C51.06 194.98 50.26 194.41 49.49 193.83L49.84 193.37C50.6 193.95 51.39 194.51 52.18 195.03L51.87 195.51ZM98.32 194.13L97.97 193.67C98.73 193.1 99.49 192.5 100.21 191.88L100.59 192.32C99.86 192.94 99.1 193.55 98.32 194.13ZM47.25 191.98C46.53 191.34 45.82 190.67 45.14 189.98L45.55 189.57C46.22 190.25 46.92 190.91 47.63 191.54L47.25 191.98ZM102.73 190.33L102.32 189.92C103 189.25 103.66 188.54 104.28 187.83L104.72 188.21C104.08 188.94 103.41 189.65 102.73 190.33ZM43.17 187.83C42.54 187.09 41.94 186.33 41.36 185.55L41.83 185.21C42.39 185.98 42.99 186.73 43.61 187.46L43.17 187.83ZM106.55 185.95L106.09 185.6C106.66 184.84 107.22 184.05 107.73 183.25L108.22 183.56C107.69 184.37 107.13 185.18 106.55 185.95ZM39.73 183.15C39.22 182.33 38.72 181.49 38.27 180.64L38.78 180.37C39.23 181.21 39.71 182.04 40.22 182.85L39.73 183.15ZM109.71 181.06L109.2 180.78C109.66 179.94 110.09 179.08 110.49 178.22L111.02 178.46C110.62 179.34 110.18 180.21 109.71 181.06ZM36.99 178.02C36.6 177.14 36.23 176.23 35.9 175.32L36.44 175.12C36.76 176.01 37.12 176.91 37.51 177.78L36.99 178.02ZM112.14 175.77L111.6 175.57C111.93 174.68 112.24 173.76 112.51 172.85L113.06 173.01C112.79 173.94 112.48 174.87 112.14 175.77ZM35.01 172.55C34.75 171.62 34.52 170.67 34.32 169.72L34.89 169.6C35.08 170.53 35.31 171.47 35.57 172.39L35.01 172.55ZM113.78 170.19L113.21 170.07C113.41 169.14 113.58 168.19 113.72 167.25L114.29 167.33C114.16 168.29 113.99 169.25 113.78 170.19ZM33.85 166.86C33.72 165.9 33.63 164.93 33.58 163.96L34.16 163.93C34.22 164.88 34.31 165.84 34.43 166.79L33.85 166.86ZM114.61 164.44L114.03 164.4C114.1 163.45 114.13 162.49 114.13 161.53H114.71C114.71 162.5 114.68 163.47 114.61 164.44ZM34.08 161.06L33.5 161.05C33.51 160.08 33.56 159.1 33.64 158.14L34.22 158.19C34.14 159.14 34.09 160.1 34.08 161.06ZM114.09 159.6C114.04 158.65 113.96 157.68 113.85 156.74L114.42 156.67C114.53 157.63 114.62 158.6 114.66 159.57L114.09 159.6ZM34.55 155.34L33.98 155.25C34.13 154.29 34.31 153.33 34.53 152.39L35.09 152.52C34.88 153.46 34.7 154.4 34.55 155.34ZM113.41 153.91C113.23 152.98 113.01 152.03 112.77 151.12L113.33 150.97C113.58 151.9 113.8 152.86 113.98 153.81L113.41 153.91ZM35.84 149.76L35.29 149.59C35.57 148.66 35.9 147.74 36.25 146.84L36.79 147.05C36.43 147.93 36.12 148.85 35.84 149.76ZM111.92 148.38C111.61 147.48 111.26 146.58 110.88 145.71L111.41 145.48C111.79 146.37 112.15 147.28 112.46 148.19L111.92 148.38ZM37.91 144.41L37.39 144.16C37.8 143.29 38.25 142.42 38.73 141.57L39.23 141.85C38.77 142.69 38.32 143.55 37.91 144.41ZM109.66 143.12C109.22 142.28 108.75 141.44 108.25 140.62L108.74 140.32C109.24 141.14 109.73 141.99 110.17 142.85L109.66 143.12ZM40.74 139.41L40.26 139.09C40.79 138.29 41.37 137.49 41.96 136.72L42.42 137.07C41.83 137.84 41.26 138.62 40.74 139.41ZM106.66 138.23C106.11 137.46 105.52 136.69 104.91 135.96L105.35 135.59C105.97 136.33 106.57 137.11 107.13 137.89L106.66 138.23ZM44.24 134.87L43.81 134.48C44.45 133.76 45.13 133.05 45.82 132.38L46.22 132.79C45.55 133.47 44.88 134.16 44.24 134.87ZM103 133.82C102.34 133.13 101.65 132.46 100.94 131.82L101.33 131.39C102.05 132.04 102.75 132.72 103.42 133.42L103 133.82ZM48.36 130.88L47.99 130.44C48.73 129.82 49.5 129.22 50.28 128.65L50.62 129.12C49.85 129.67 49.09 130.27 48.36 130.88ZM98.74 129.98C97.99 129.39 97.21 128.83 96.42 128.29L96.74 127.81C97.54 128.35 98.33 128.92 99.1 129.52L98.74 129.98ZM53 127.51L52.69 127.02C53.51 126.51 54.36 126.02 55.21 125.57L55.48 126.08C54.64 126.53 53.81 127.01 53 127.51ZM93.98 126.78C93.15 126.31 92.3 125.86 91.44 125.44L91.69 124.92C92.56 125.34 93.43 125.8 94.27 126.28L93.98 126.78ZM58.07 124.84L57.84 124.31C58.72 123.92 59.63 123.56 60.54 123.24L60.73 123.78C59.83 124.11 58.94 124.46 58.07 124.84ZM88.81 124.29C87.92 123.94 87.01 123.62 86.1 123.33L86.27 122.78C87.19 123.07 88.12 123.4 89.02 123.75L88.81 124.29ZM63.47 122.93L63.32 122.37C64.25 122.11 65.2 121.89 66.15 121.7L66.26 122.27C65.32 122.46 64.38 122.68 63.47 122.93ZM83.34 122.57C82.41 122.35 81.47 122.16 80.53 122.01L80.62 121.44C81.57 121.59 82.53 121.78 83.47 122.01L83.34 122.57ZM69.09 121.81L69.02 121.24C69.98 121.12 70.95 121.03 71.92 120.98L71.95 121.56C70.99 121.61 70.03 121.7 69.09 121.81ZM77.68 121.66C76.73 121.58 75.77 121.53 74.82 121.51L74.83 120.93C75.8 120.95 76.77 121 77.74 121.08L77.68 121.66Z" fill="#75C7AA"/>
<path d="M168.06 134.6C162.68 134.6 158.3 130.22 158.3 124.84C158.3 119.46 162.68 115.08 168.06 115.08C173.44 115.08 177.82 119.46 177.82 124.84C177.82 130.22 173.44 134.6 168.06 134.6ZM168.06 115.52C162.92 115.52 158.74 119.7 158.74 124.84C158.74 129.98 162.92 134.16 168.06 134.16C173.2 134.16 177.38 129.98 177.38 124.84C177.38 119.7 173.2 115.52 168.06 115.52Z" fill="#75C7AA"/>
<path d="M256.66 191.44C256.66 219.12 234.22 241.56 206.54 241.56C178.86 241.56 156.42 219.12 156.42 191.44C156.42 165.47 176.17 144.12 201.47 141.57L203.14 158.02C186.19 159.73 172.96 174.04 172.96 191.44C172.96 209.99 188 225.03 206.54 225.03C225.09 225.03 240.12 209.99 240.12 191.44C240.12 188.2 239.66 185.07 238.81 182.11L254.7 177.52C255.98 181.94 256.66 186.61 256.66 191.44Z" fill="#75C7AA"/>
<path d="M206.54 231.911C228.891 231.911 247.01 213.792 247.01 191.441C247.01 169.09 228.891 150.971 206.54 150.971C184.189 150.971 166.07 169.09 166.07 191.441C166.07 213.792 184.189 231.911 206.54 231.911Z" fill="white"/>
<path opacity="0.5" d="M206.54 231.911C228.891 231.911 247.01 213.792 247.01 191.441C247.01 169.09 228.891 150.971 206.54 150.971C184.189 150.971 166.07 169.09 166.07 191.441C166.07 213.792 184.189 231.911 206.54 231.911Z" fill="#75C7AA"/>
<path d="M206.54 220.111C222.368 220.111 235.2 207.275 235.2 191.441C235.2 175.607 222.368 162.771 206.54 162.771C190.711 162.771 177.88 175.607 177.88 191.441C177.88 207.275 190.711 220.111 206.54 220.111Z" fill="white"/>
<path d="M209.81 205.54V209.9H204.27V205.74C200.34 205.5 196.54 204.44 194.18 202.99L197.16 196.23C199.75 197.76 203.21 198.74 206.23 198.74C208.86 198.74 209.8 198.19 209.8 197.25C209.8 193.79 194.6 196.58 194.6 186.33C194.6 181.89 197.82 178.16 204.26 177.26V172.98H209.8V177.18C212.7 177.45 215.53 178.2 217.77 179.46L214.98 186.18C212.27 184.8 209.72 184.14 207.32 184.14C204.61 184.14 203.75 184.93 203.75 185.87C203.75 189.17 218.95 186.42 218.95 196.55C218.96 200.79 215.9 204.48 209.81 205.54Z" fill="#09B880"/>
<path d="M384.96 58.29H275.92V124.96H384.96V58.29Z" fill="white"/>
<path d="M385.25 125.25H275.64V58H385.25V125.25ZM276.21 124.67H384.67V58.58H276.21V124.67Z" fill="white"/>
<path d="M295.93 103.74H289.65V115.26H295.93V103.74Z" fill="#75C7AA"/>
<path d="M308.48 98.4707H302.2V115.261H308.48V98.4707Z" fill="#75C7AA"/>
<path d="M321.03 102.78H314.75V115.27H321.03V102.78Z" fill="#75C7AA"/>
<path d="M333.58 93.9902H327.3V115.26H333.58V93.9902Z" fill="#75C7AA"/>
<path d="M346.14 88.3701H339.86V115.26H346.14V88.3701Z" fill="#75C7AA"/>
<path d="M358.69 80.3506H352.41V115.271H358.69V80.3506Z" fill="#75C7AA"/>
<path d="M371.24 67.9902H364.96V115.27H371.24V67.9902Z" fill="#75C7AA"/>
<path d="M294.64 73.6006H289.65V79.2506H294.64V73.6006Z" fill="#75C7AA"/>
<path d="M336.13 76.2109H302.35V77.6609H336.13V76.2109Z" fill="#75C7AA"/>
<path d="M286.85 158.76L279.94 139.68C272.14 142.51 266.56 149.98 266.56 158.76C266.56 169.96 275.64 179.04 286.84 179.04C298.04 179.04 307.12 169.96 307.12 158.76C307.12 155.39 306.29 152.21 304.84 149.42L286.85 158.76Z" fill="#EDFAF6"/>
<path d="M307.55 142.19C304.17 135.69 297.38 131.25 289.55 131.25C287.12 131.25 284.8 131.68 282.64 132.46L289.55 151.54L307.55 142.19Z" fill="#75C7AA"/>
<path d="M315.56 223.76H267.58V269.43H315.56V223.76Z" fill="#EDFAF6"/>
<path d="M301.97 235.899H275.09V237.829H301.97V235.899Z" fill="white"/>
<path d="M301.97 241.68H275.09V243.61H301.97V241.68Z" fill="white"/>
<path d="M132.4 136.47H90.6699V207H132.4V136.47Z" fill="#EDFAF6"/>
<path d="M124.39 146.68H97.0298V171.73H124.39V146.68Z" fill="white"/>
<path d="M97.2423 146.469L96.8506 146.896L124.216 171.95L124.607 171.522L97.2423 146.469Z" fill="#EDFAF6"/>
<path d="M124.192 146.475L96.8303 171.528L97.222 171.956L124.583 146.902L124.192 146.475Z" fill="#EDFAF6"/>
<path d="M110.73 165.27H15.29V228.15H110.73V165.27Z" fill="white"/>
<path d="M111 228.43H15.01V165H111V228.43ZM15.57 227.88H110.46V165.55H15.57V227.88Z" fill="#75C7AA"/>
<path d="M25.3501 212.97L31.5101 201.41L44.2301 213.36L52.7101 188.69L68.5101 206.03L78.9201 201.79L97.8001 177.13" fill="white"/>
<path d="M44.3601 213.87L31.5901 201.88L25.6001 213.11L25.0901 212.83L31.4401 200.94L44.1001 212.84L52.6001 188.13L68.5901 205.69L78.7401 201.56L97.5701 176.95L98.0301 177.3L79.1001 202.03L68.4301 206.38L68.3001 206.23L52.8201 189.24L44.3601 213.87Z" fill="#75C7AA"/>
<path d="M31.56 202.951C32.4381 202.951 33.15 202.239 33.15 201.361C33.15 200.482 32.4381 199.771 31.56 199.771C30.6818 199.771 29.97 200.482 29.97 201.361C29.97 202.239 30.6818 202.951 31.56 202.951Z" fill="#75C7AA"/>
<path d="M44.13 214.66C45.0082 214.66 45.72 213.949 45.72 213.07C45.72 212.192 45.0082 211.48 44.13 211.48C43.2519 211.48 42.54 212.192 42.54 213.07C42.54 213.949 43.2519 214.66 44.13 214.66Z" fill="#75C7AA"/>
<path d="M52.81 190.38C53.6881 190.38 54.4 189.668 54.4 188.79C54.4 187.912 53.6881 187.2 52.81 187.2C51.9318 187.2 51.22 187.912 51.22 188.79C51.22 189.668 51.9318 190.38 52.81 190.38Z" fill="#75C7AA"/>
<path d="M83.25 175.3H42.78V175.88H83.25V175.3Z" fill="#75C7AA"/>
<path d="M320.95 324.14V340.2H300.12L309.65 332.42L310.16 322.63L320.95 324.14Z" fill="#75C7AA"/>
<path d="M309.863 332.208L309.463 332.628L313.441 336.412L313.841 335.991L309.863 332.208Z" fill="#1B1B43"/>
<path d="M318.93 328.399H311.8V328.979H318.93V328.399Z" fill="#1B1B43"/>
<path d="M345.3 324.89L346.05 340.2H325.22L334 332.67V323.39L345.3 324.89Z" fill="#75C7AA"/>
<path d="M334.189 332.426L333.805 332.86L337.043 335.72L337.427 335.285L334.189 332.426Z" fill="#1B1B43"/>
<path d="M343.4 328.689H336.37V329.269H343.4V328.689Z" fill="#1B1B43"/>
<path d="M323.05 231.79C323.41 263.8 326.06 295.3 331.13 326.27H348.69C345.04 302.59 343.39 273.83 345.43 235.71L332.75 225.33L323.05 231.79Z" fill="#75C7AA"/>
<path d="M309.17 236.03L301.23 271.36C299.32 279.85 299.19 288.64 300.84 297.18L306.42 326.04H323.98L318.67 288.16L331.37 230.41L309.17 236.03Z" fill="#75C7AA"/>
<path d="M324.23 269.88C324.19 269.15 323.19 252.9 323.08 250.85L318.49 249.18L318.69 248.64L323.65 250.44V250.64C323.65 251 324.41 263.36 324.81 269.84L324.23 269.88Z" fill="white"/>
<path d="M362.24 156.27L363.18 154.03C363.18 154.03 359.78 146.88 360.87 145.94C361.95 145 363.69 147.67 363.69 147.67C363.69 147.67 363.18 139 364.85 138.93C366.25 138.87 366.15 141.39 366.3 145.14C366.3 145.14 367.17 143.98 368.76 145.18C369.48 143.99 370.99 144.78 371.43 145.5C371.94 144.92 374.03 145.07 373.74 147.52C373.37 150.64 371.93 156.41 371.93 156.41L367.31 160.24L362.24 156.27Z" fill="#FFBC96"/>
<path d="M325.1 186.18L332.13 186.12C344.47 185.02 354.1 175 354.1 175L362.24 156.26L371.92 156.4L366.24 178.43C365.42 181.59 363.66 184.43 361.2 186.57L341 204.11L325.1 186.18Z" fill="#09B880"/>
<path d="M305.82 202.13L309.17 236.03L345.43 235.71L344.18 194.86L325.1 186.18L311.9 191.77L305.82 202.13Z" fill="#09B880"/>
<path d="M283.37 205.42C282.78 204.89 282.03 204.57 281.24 204.51C277.23 204.18 264.7 203.21 264.82 204.18C264.96 205.34 274.5 209.67 274.5 209.67C276.54 211.97 278.58 214.26 280.62 216.56L286.23 207.97L283.37 205.42Z" fill="#FFBC96"/>
<path d="M310.7 189.449C308.12 189.899 305.9 191.539 304.71 193.879L294.02 214.879L286.23 207.969L280.62 216.559C281.3 217.329 281.98 218.089 282.67 218.859C285.7 222.269 289.23 226.839 293.95 227.839C296.36 228.349 298.6 227.349 300.33 225.689C301.6 224.479 302.73 222.969 303.63 221.469L307.89 214.449L321.48 187.569L310.7 189.449Z" fill="#09B880"/>
<path d="M306.104 202.116L305.527 202.172L307.556 223.033L308.133 222.977L306.104 202.116Z" fill="#75C7AA"/>
<path d="M344.39 201.069L341 204.109L344.61 210.099L344.39 201.069Z" fill="#1B1B43"/>
<path d="M367.54 149.45C366.18 149.45 366.07 147.66 366.07 145.14H366.5C366.5 148.11 366.74 149.02 367.54 149.02C367.7 149.02 367.83 148.96 367.96 148.83C368.35 148.42 368.5 147.45 368.54 146.58C368.51 145.95 368.53 145.4 368.53 145.18L368.96 145.17C368.96 145.22 369 145.81 368.97 146.53C369.03 147.71 369.23 148.87 369.62 148.99C369.84 149.06 370.03 149.03 370.2 148.9C370.67 148.56 370.93 147.61 371.07 146.76C371.08 146.39 371.12 145.97 371.2 145.48L371.63 145.52C371.63 145.57 371.61 146.06 371.52 146.69C371.49 147.59 371.59 148.46 371.96 148.62C372.23 148.73 372.45 148.73 372.64 148.62C373.14 148.32 373.32 147.3 373.34 146.93L373.77 146.96C373.77 147.02 373.65 148.51 372.86 148.99C372.55 149.18 372.19 149.19 371.78 149.02C371.68 148.98 371.36 148.79 371.18 148.12C371.01 148.6 370.77 149.03 370.45 149.27C370.17 149.47 369.84 149.52 369.49 149.42C369.11 149.31 368.87 148.82 368.73 148.21C368.62 148.59 368.47 148.92 368.26 149.15C368.07 149.34 367.82 149.45 367.54 149.45Z" fill="#D28572"/>
<path d="M322.04 194.41C318.96 194.66 316.26 192.36 316.02 189.29L315.96 188.51L315.08 177.61L321.87 177.07L326.23 176.72L327.17 188.4C327.41 191.47 325.12 194.16 322.04 194.41Z" fill="#FFBC96"/>
<path d="M324.04 180.739C321.92 184.469 318.89 187.149 315.95 188.509L315.07 177.609L321.86 177.069L324.04 180.739Z" fill="#1B1B43"/>
<path d="M326.25 169.32L324.9 180.69C324.9 180.69 320.56 184.84 314.2 184.64C311.88 184.57 310.52 182.37 309.72 179.58C309.39 178.41 309.16 177.15 309 175.88C308.47 171.69 308.71 167.58 308.71 167.58L318.54 164.31L326.25 169.32Z" fill="#FFBC96"/>
<path d="M324.76 174C323.74 170.35 321.9 168.52 319.41 168.12C311.51 172.41 306.38 169.85 302.64 165.08C311.79 166.86 315.79 153.85 324.56 162.53C331.06 164.51 330.94 170.72 327.26 175.78L324.76 174Z" fill="#1B1B43"/>
<path d="M328.823 175.395C329.158 173.676 328.222 172.047 326.732 171.756C325.241 171.465 323.761 172.622 323.425 174.34C323.089 176.058 324.026 177.687 325.516 177.978C327.007 178.269 328.487 177.113 328.823 175.395Z" fill="#FFBC96"/>
<path d="M327.16 173.69C326.71 173.77 326.41 174.11 326.19 174.5C325.97 174.9 325.83 175.34 325.75 175.81L325.58 175.82C325.51 175.57 325.51 175.3 325.55 175.04C325.59 174.78 325.68 174.52 325.81 174.29C325.94 174.06 326.12 173.84 326.36 173.68C326.59 173.52 326.9 173.44 327.17 173.52L327.16 173.69Z" fill="#1B1B43"/>
<path d="M311.08 174.45C311.08 174.94 310.84 175.34 310.55 175.34C310.26 175.34 310.02 174.94 310.02 174.45C310.02 173.96 310.26 173.56 310.55 173.56C310.84 173.56 311.08 173.96 311.08 174.45Z" fill="#1B1B43"/>
<path d="M315.46 174.09C315.46 174.62 315.2 175.06 314.89 175.06C314.57 175.06 314.32 174.63 314.32 174.09C314.32 173.56 314.58 173.12 314.89 173.12C315.2 173.12 315.46 173.56 315.46 174.09Z" fill="#1B1B43"/>
<path d="M312.28 175.18C312.28 175.35 312.21 175.52 312.13 175.66C312.04 175.8 311.94 175.93 311.84 176.04C311.64 176.26 311.44 176.47 311.4 176.68C311.34 176.9 311.43 177.11 311.6 177.33C311.77 177.54 312 177.73 312.22 177.95L312.13 178.09C311.85 177.97 311.57 177.82 311.33 177.59C311.21 177.47 311.1 177.33 311.03 177.15C310.96 176.97 310.95 176.77 310.99 176.58C311.04 176.39 311.14 176.23 311.25 176.1C311.36 175.97 311.48 175.87 311.59 175.77C311.82 175.57 312.03 175.41 312.12 175.15L312.28 175.18Z" fill="#1B1B43"/>
<path d="M312.7 179.99C313.31 179.85 313.88 179.66 314.38 179.35C314.63 179.19 314.87 179.01 315.1 178.82C315.33 178.62 315.55 178.41 315.78 178.19L315.92 178.29C315.64 178.87 315.18 179.38 314.61 179.72C314.04 180.06 313.36 180.23 312.71 180.16L312.7 179.99Z" fill="#1B1B43"/>
<path d="M314.19 171.7C314.07 172.35 316.12 172.56 316.48 172.63C316.78 172.68 317.22 172.72 317.28 172.26C317.36 171.69 316.74 171.63 316.39 171.55C316.05 171.47 314.31 171.08 314.19 171.7Z" fill="#1B1B43"/>
<path d="M311.34 172.1C311.33 172.73 309.7 172.79 309.4 172.83C309.15 172.86 308.81 172.86 308.84 172.42C308.87 171.87 309.37 171.85 309.65 171.8C309.92 171.76 311.35 171.5 311.34 172.1Z" fill="#1B1B43"/>
<path opacity="0.2" d="M318.99 178.13C320.15 178.13 321.09 177.189 321.09 176.03C321.09 174.87 320.15 173.93 318.99 173.93C317.83 173.93 316.89 174.87 316.89 176.03C316.89 177.189 317.83 178.13 318.99 178.13Z" fill="#FE5B52"/>
<path opacity="0.2" d="M310.58 177.91C310.58 178.6 310.25 179.2 309.74 179.58C309.41 178.41 309.18 177.15 309.02 175.88C309.91 176.12 310.58 176.94 310.58 177.91Z" fill="#FE5B52"/>
<path d="M161.21 245.44H120.99V248.15H161.21V245.44Z" fill="#75C7AA"/>
<path d="M161.2 245.44H127.24L140.1 214.08H174.07L161.2 245.44Z" fill="white"/>
<path d="M161.4 245.73H126.81L139.91 213.79H174.5L161.4 245.73ZM127.67 245.15H161.01L173.64 214.37H140.3L127.67 245.15Z" fill="#75C7AA"/>
<path d="M158.27 242.8H131.58L141.69 218.16H168.38L158.27 242.8Z" fill="#EDFAF6"/>
<path d="M147.68 249.01H147.1V340.35H147.68V249.01Z" fill="#1B1B43"/>
<path d="M179.83 248.149H114.95V253.309H179.83V248.149Z" fill="#75C7AA"/>
<path d="M62.6 287.38H62.02V340.35H62.6V287.38Z" fill="#1B1B43"/>
<path d="M78.1799 289.84H46.4399C47.1099 286.62 49.9499 284.31 53.2399 284.31H71.3599C74.6599 284.31 77.4999 286.61 78.1799 289.84Z" fill="#75C7AA"/>
<path d="M70.5498 340.199H54.0698C54.0698 338.199 55.6898 336.569 57.6998 336.569H66.9198C68.9198 336.569 70.5498 338.189 70.5498 340.199Z" fill="#75C7AA"/>
<path d="M86.7899 208.79C87.5999 209.96 88.7699 211.61 88.8899 213.05C89.0799 215.15 85.7199 213.68 85.6799 213.86L86.7899 208.79Z" fill="#D28572"/>
<path d="M81.6598 211.26H71.0398V226.82H81.6598V211.26Z" fill="#FFBC96"/>
<path d="M81.6597 213.92V225.03C78.3097 222.93 75.4197 219.81 72.9197 216.2L81.6597 213.92Z" fill="#1B1B43"/>
<path d="M87.63 209.73C87.3 215.11 85.23 221.19 79.59 219.69C75.16 218.51 70.28 214.78 70.28 209.39C70.28 204 74.01 199.64 78.61 199.64C81.48 199.64 85.1 201.03 86.81 203.73C87.82 205.34 87.77 207.39 87.63 209.73Z" fill="#FFBC96"/>
<path d="M78.2299 208.17C79.7299 204.18 83.1699 203.79 83.1699 203.79C83.1699 203.79 91.1399 211.67 90.6399 203.53C90.2499 197.06 83.9199 197.67 83.9199 197.67C80.8299 193.65 75.8799 195.22 74.0699 197.55C72.2599 199.88 72.8999 198.54 68.6499 200.06C64.3899 201.58 66.6699 208.05 65.9099 208.51C60.2599 208.51 61.2999 214.11 61.2999 214.11L74.6899 218.48L77.9099 209.68L78.2299 208.17Z" fill="#1B1B43"/>
<path d="M79.1267 212.373C80.2315 211.735 80.4556 210.055 79.6271 208.62C78.7987 207.185 77.2315 206.539 76.1267 207.177C75.0219 207.815 74.7978 209.495 75.6262 210.93C76.4546 212.365 78.0219 213.011 79.1267 212.373Z" fill="#FFBC96"/>
<path d="M77.9201 210.35C77.7301 209.99 77.5701 209.63 77.3201 209.39C77.2001 209.27 77.0501 209.16 76.8901 209.08C76.7301 208.99 76.5401 208.92 76.3601 208.83L76.3901 208.68C76.6001 208.67 76.8201 208.69 77.0301 208.76C77.2401 208.83 77.4501 208.95 77.6101 209.12C77.7701 209.29 77.8901 209.49 77.9601 209.69C78.0301 209.9 78.0701 210.11 78.0801 210.32L77.9201 210.35Z" fill="#1B1B43"/>
<path d="M72.9162 200.721C75.3987 200.603 77.3081 198.33 77.1809 195.643C77.0537 192.956 74.938 190.874 72.4555 190.991C69.973 191.109 68.0636 193.382 68.1908 196.069C68.318 198.755 70.4337 200.838 72.9162 200.721Z" fill="#1B1B43"/>
<path opacity="0.2" d="M83.01 214.8C84.1256 214.8 85.03 213.895 85.03 212.78C85.03 211.664 84.1256 210.76 83.01 210.76C81.8944 210.76 80.99 211.664 80.99 212.78C80.99 213.895 81.8944 214.8 83.01 214.8Z" fill="#FE5B52"/>
<path d="M90.9599 265.1L56.95 260.76L63.36 226.96C63.81 224.6 65.3799 222.59 67.57 221.6C69.4 220.77 71.48 220.72 73.36 221.45L84.9499 226.6C87.1799 227.59 88.7199 229.69 89 232.11L89.65 243.15L90.4 255.67L90.9599 265.1Z" fill="#75C7AA"/>
<path d="M122.08 240.82L131.08 238.17C131.73 237.98 132.43 238.08 132.99 238.46C135.45 240.1 142.01 244.72 140.36 246.62C139.53 247.56 132.01 245.35 132.01 245.35L121.11 248.39L122.08 240.82Z" fill="#FFBC96"/>
<path d="M90.4001 255.66C87.5701 252.05 85.8801 247.29 85.3201 241.39L89.6501 243.14L90.4001 255.66Z" fill="#1B1B43"/>
<path d="M83.93 226.17L85.29 226.75C88.08 227.95 90.58 229.74 92.62 231.99L103.78 244.28L122.09 240.81L124.5 250.64L101.5 257.83C99.68 258.15 97.83 257.53 96.58 256.17L79.99 238.12L83.93 226.17Z" fill="#75C7AA"/>
<path d="M103.56 244.48C103.51 244.42 98.06 238.49 93.34 233.2C88.68 227.97 81.57 225.43 81.5 225.41L81.69 224.86C81.76 224.89 89.01 227.47 93.77 232.81C98.48 238.09 103.93 244.02 103.98 244.08L103.56 244.48Z" fill="#1B1B43"/>
<path d="M81.3367 240.025L80.9202 240.429L96.353 256.358L96.7696 255.955L81.3367 240.025Z" fill="#1B1B43"/>
<path d="M89.7299 316.22L82.3899 330.52L100.93 340.03L95.9999 328.75L100.02 319.81L89.7299 316.22Z" fill="#75C7AA"/>
<path d="M95.9226 328.473L90.656 330.023L90.8198 330.58L96.0864 329.029L95.9226 328.473Z" fill="#1B1B43"/>
<path d="M101.27 325.62L84.48 319.36L95.98 283.58C97.96 278.28 104.05 275.66 109.58 277.73C115.11 279.79 118 285.76 116.02 291.06L101.27 325.62Z" fill="white"/>
<path d="M117.56 323.2L119.19 340.2H140.03L130.49 332.42L128.25 322.62L117.56 323.2Z" fill="#75C7AA"/>
<path d="M130.347 332.152L125.408 334.875L125.688 335.383L130.627 332.66L130.347 332.152Z" fill="#1B1B43"/>
<path d="M132.59 325.22L114.38 328.11L101.91 291.44L99.64 284.75L68.66 285C61 285.17 54.91 278.61 55.66 270.98L56.95 260.76L87.59 264.62L107.73 266.83C116.11 268.28 118.69 273.35 120.43 279.87L132.59 325.22Z" fill="white"/>
<path d="M101.91 291.439L99.6399 284.749L103.83 284.609C104.21 287.129 103.21 289.939 101.91 291.439Z" fill="#1B1B43"/>
</svg>
