<svg width="450" height="450" viewBox="0 0 450 450" fill="none" xmlns="http://www.w3.org/2000/svg">
<g clip-path="url(#clip0_6591_5533)">
<path d="M194.2 325.101L185.2 405.501H289.1L275.6 325.101H194.2Z" fill="#e6f7f1"/>
<path d="M13.2998 121.401V310.801C13.2998 326.401 25.6998 339.101 41.2998 339.501C110.5 341.301 352.4 345.601 418.2 344.601C429.5 344.401 438.7 335.401 439 324.101C440.3 280.101 442.3 174.301 434.7 125.201C433.1 114.901 424.4 107.101 413.9 106.801C355.9 104.901 99.4998 99.1009 33.6998 100.501C22.2998 100.801 13.2998 110.001 13.2998 121.401Z" fill="#12b981"/>
<path d="M25.1997 120.501V300.401C25.1997 309.501 32.4997 316.901 41.5997 317.001L408.8 321.501C417.8 321.601 425.2 314.401 425.2 305.401L425.8 127.101C425.8 120.701 420.7 115.401 414.2 115.201L38.2997 107.601C31.0997 107.501 25.1997 113.301 25.1997 120.501Z" fill="url(#paint0_linear_6591_5533)"/>
<path opacity="0.65" d="M427.9 329L25.1 322.1C24.8 322.1 24.5 321.8 24.5 321.5C24.5 321.2 24.8 320.9 25.1 320.9L427.9 327.8C428.2 327.8 428.5 328.1 428.5 328.4C428.5 328.8 428.3 329 427.9 329Z" fill="white"/>
<path d="M311.5 421.901H159.4C155.3 421.901 152.2 419.001 153 415.801L155 408.101C155.6 405.801 158.1 404.101 161.2 404.001L307.9 399.401C311.1 399.301 313.9 401.001 314.6 403.401L318.1 415.701C318.9 418.901 315.7 421.901 311.5 421.901Z" fill="#12b981"/>
<path d="M25.1997 120.501V300.401C25.1997 309.501 32.4997 316.901 41.5997 317.001L408.8 321.501C417.8 321.601 425.2 314.401 425.2 305.401L425.8 127.101C425.8 120.701 420.7 115.401 414.2 115.201L38.2997 107.601C31.0997 107.501 25.1997 113.301 25.1997 120.501Z" fill="#f8fdfb"/>
<path d="M425.7 148.001L425.8 127.101C425.8 120.701 420.7 115.401 414.2 115.201L38.3998 107.601C31.1998 107.401 25.2998 113.201 25.2998 120.401V148.001H425.7Z" fill="#f8fdfb"/>
<path d="M53.5147 133.103C54.0538 130.79 52.6159 128.479 50.3031 127.939C47.9902 127.4 45.6783 128.838 45.1392 131.151C44.6001 133.464 46.038 135.776 48.3509 136.315C50.6637 136.854 52.9756 135.416 53.5147 133.103Z" fill="#12b981"/>
<path d="M64.1999 136.401C66.5747 136.401 68.4999 134.476 68.4999 132.101C68.4999 129.726 66.5747 127.801 64.1999 127.801C61.8251 127.801 59.8999 129.726 59.8999 132.101C59.8999 134.476 61.8251 136.401 64.1999 136.401Z" fill="#12b981"/>
<path d="M78.6999 136.401C81.0747 136.401 82.9999 134.476 82.9999 132.101C82.9999 129.726 81.0747 127.801 78.6999 127.801C76.3251 127.801 74.3999 129.726 74.3999 132.101C74.3999 134.476 76.3251 136.401 78.6999 136.401Z" fill="#12b981"/>
<path d="M403.4 311.701L50.4998 306.601C45.0998 306.501 40.7998 302.201 40.7998 296.801V261.501C40.7998 256.501 44.8998 252.501 49.8998 252.501L403.7 256.501C407.8 256.501 411 259.901 411 263.901V304.201C411 308.401 407.6 311.801 403.4 311.701Z" fill="#e6f7f1"/>
<path d="M276.3 248.1L50.6998 244.9C45.1998 244.8 40.7998 240.3 40.7998 234.8V165C40.7998 161.1 43.9998 157.9 47.8998 157.9H274.8C279.3 157.9 283 161.6 283 166.1V241.6C283 245.2 280 248.2 276.3 248.1Z" fill="#e6f7f1"/>
<path d="M398.5 248.201H300.7C294.3 248.201 289.2 243.001 289.2 236.701V172.201C289.2 164.301 295.6 157.801 303.6 157.801H402.4C407.2 157.801 411.1 161.701 411.1 166.501V235.701C411 242.601 405.4 248.201 398.5 248.201Z" fill="#e6f7f1"/>
<path d="M153.4 192.7C181.125 192.7 203.6 170.224 203.6 142.5C203.6 114.775 181.125 92.2998 153.4 92.2998C125.675 92.2998 103.2 114.775 103.2 142.5C103.2 170.224 125.675 192.7 153.4 192.7Z" fill="url(#paint1_linear_6591_5533)"/>
<path d="M163.804 189.881C189.966 184.135 206.516 158.269 200.771 132.107C195.025 105.946 169.159 89.3951 142.997 95.1407C116.836 100.886 100.285 126.752 106.031 152.914C111.776 179.076 137.642 195.626 163.804 189.881Z" fill="#12b981"/>
<path d="M108.7 140.601C108.4 140.601 108.2 140.301 108.2 140.101C108.3 138.201 108.5 136.301 108.9 134.401C109 134.101 109.2 133.901 109.5 134.001C109.8 134.101 110 134.301 109.9 134.601C109.6 136.401 109.4 138.301 109.3 140.201C109.2 140.401 109 140.601 108.7 140.601Z" fill="white"/>
<path d="M113.4 122.801C113.3 122.801 113.2 122.801 113.2 122.701C112.9 122.601 112.8 122.301 113 122.001C120.8 106.601 136.3 97.1006 153.5 97.1006C156.2 97.1006 159 97.3006 161.7 97.8006C162 97.9006 162.2 98.1006 162.1 98.4006C162 98.7006 161.8 98.9006 161.5 98.8006C158.9 98.3006 156.2 98.1006 153.5 98.1006C136.7 98.1006 121.5 107.401 114 122.401C113.8 122.701 113.6 122.801 113.4 122.801Z" fill="white"/>
<path d="M190.241 163.769C201.425 144.016 194.478 118.937 174.726 107.754C154.973 96.57 129.894 103.516 118.71 123.269C107.527 143.022 114.473 168.1 134.226 179.284C153.978 190.468 179.057 183.521 190.241 163.769Z" fill="#f8fdfb"/>
<path d="M152.2 121.8C145.9 116.1 136.1 116.7 130.4 123C124.7 129.3 125.1 139.1 131.4 144.8C136.9 149.8 145.4 149.7 150.8 145.8L155 149.6C155 150.7 155.4 152.1 156.3 153L170.4 165.8C172.2 167.4 174.9 166.8 176.5 165.1L176.6 165C178.2 163.2 178.2 160.9 176.4 159.2L162.3 146.4C161.3 145.5 159.9 145.3 159.3 144.8L155.1 141C158.6 135.2 157.8 126.8 152.2 121.8ZM134.4 142.7C129.5 138.3 129.2 130.8 133.6 126C138 121.1 145.5 120.8 150.3 125.2C155.2 129.6 155.5 137.1 151.1 141.9C146.7 146.7 139.2 147.1 134.4 142.7Z" fill="#12b981"/>
<path d="M137.1 138.901L137 139.001C136.5 139.401 135.7 139.401 135.3 138.901C132.5 135.601 132.6 130.601 135.5 127.301C135.9 126.801 136.7 126.801 137.2 127.201C137.7 127.601 137.7 128.401 137.3 128.901C135.2 131.301 135.1 134.901 137.2 137.301C137.6 137.701 137.5 138.401 137.1 138.901Z" fill="#12b981"/>
<path d="M237.4 104.4C265.125 104.4 287.6 81.9247 287.6 54.2C287.6 26.4753 265.125 4 237.4 4C209.675 4 187.2 26.4753 187.2 54.2C187.2 81.9247 209.675 104.4 237.4 104.4Z" fill="url(#paint2_linear_6591_5533)"/>
<path d="M253.923 99.813C279.11 90.6951 292.136 62.8857 283.018 37.699C273.9 12.5123 246.091 -0.51401 220.904 8.60388C195.718 17.7218 182.691 45.5311 191.809 70.7178C200.927 95.9045 228.736 108.931 253.923 99.813Z" fill="#12b981"/>
<path d="M192.7 52.3008C192.4 52.3008 192.2 52.0008 192.2 51.8008C192.3 49.9008 192.5 48.0008 192.9 46.1008C193 45.8008 193.2 45.6008 193.5 45.7008C193.8 45.8008 194 46.0008 193.9 46.3008C193.6 48.1008 193.4 50.0008 193.3 51.9008C193.2 52.1008 193 52.3008 192.7 52.3008Z" fill="white"/>
<path d="M197.4 34.5008C197.3 34.5008 197.2 34.5008 197.2 34.4008C196.9 34.3008 196.8 34.0008 197 33.7008C204.8 18.3008 220.3 8.80078 237.5 8.80078C240.2 8.80078 243 9.00078 245.7 9.50078C246 9.60078 246.2 9.80078 246.1 10.1008C246 10.4008 245.8 10.6008 245.5 10.5008C242.9 10.0008 240.2 9.80078 237.5 9.80078C220.7 9.80078 205.5 19.1008 198 34.1008C197.8 34.4008 197.6 34.5008 197.4 34.5008Z" fill="white"/>
<path opacity="0.78" d="M267.525 84.2474C283.576 68.197 283.576 42.1741 267.525 26.1237C251.475 10.0733 225.452 10.0733 209.402 26.1237C193.351 42.1741 193.351 68.197 209.402 84.2474C225.452 100.298 251.475 100.298 267.525 84.2474Z" fill="white"/>
<path d="M235.988 75.7586V70.3621C231.907 70.3621 227.512 69.3063 225 68.0158L226.727 64.4963C229.238 65.7868 233.006 66.8426 237.087 66.8426C242.11 66.8426 245.564 64.6137 245.564 61.5635C245.564 58.6306 242.738 56.7535 237.558 55.2284C230.337 53.1168 225.785 50.6531 225.785 45.9605C225.785 41.5025 230.023 38.2177 236.616 37.3965V32H241.012V37.1619C245.25 37.2792 248.233 38.1004 250.273 39.0389L248.547 42.5584C246.977 41.9718 244.151 40.7986 239.599 40.7986C234.105 40.7986 232.064 43.2623 232.064 45.3739C232.064 48.1895 234.733 49.5973 240.855 51.4744C248.233 53.7033 252 56.5189 252 61.2115C252 65.4349 248.076 69.4236 240.698 70.2448V75.7586H235.988Z" fill="white"/>
<path d="M237.4 284.701C265.124 284.701 287.6 262.225 287.6 234.501C287.6 206.776 265.124 184.301 237.4 184.301C209.675 184.301 187.2 206.776 187.2 234.501C187.2 262.225 209.675 284.701 237.4 284.701Z" fill="url(#paint3_linear_6591_5533)"/>
<path d="M253.449 280.262C278.724 271.396 292.026 243.719 283.16 218.444C274.294 193.169 246.617 179.867 221.342 188.733C196.067 197.599 182.765 225.276 191.631 250.551C200.497 275.826 228.174 289.128 253.449 280.262Z" fill="#12b981"/>
<path d="M192.7 232.601C192.4 232.601 192.2 232.301 192.2 232.101C192.3 230.201 192.5 228.301 192.9 226.401C193 226.101 193.2 225.901 193.5 226.001C193.8 226.101 194 226.301 193.9 226.601C193.6 228.401 193.4 230.301 193.3 232.201C193.2 232.401 193 232.601 192.7 232.601Z" fill="white"/>
<path d="M197.4 214.801C197.3 214.801 197.2 214.801 197.2 214.701C196.9 214.601 196.8 214.301 197 214.001C204.8 198.601 220.3 189.101 237.5 189.101C240.2 189.101 243 189.301 245.7 189.801C246 189.901 246.2 190.101 246.1 190.401C246 190.701 245.8 190.901 245.5 190.801C242.9 190.301 240.2 190.101 237.5 190.101C220.7 190.101 205.5 199.401 198 214.401C197.8 214.701 197.6 214.801 197.4 214.801Z" fill="white"/>
<path opacity="0.78" d="M267.516 264.549C283.566 248.499 283.566 222.476 267.516 206.425C251.466 190.375 225.443 190.375 209.392 206.425C193.342 222.476 193.342 248.499 209.392 264.549C225.443 280.6 251.466 280.6 267.516 264.549Z" fill="white"/>
<path d="M221.6 235.1C221.6 234.3 221 233.7 220.2 233.7H213.3C212.5 233.7 211.9 234.3 211.9 235.1V248.7C211.9 249.5 212.5 250.1 213.3 250.1H220.2C221 250.1 221.6 249.5 221.6 248.7V235.1Z" fill="#12b981"/>
<path d="M234.9 227.901C234.9 227.101 234.3 226.501 233.5 226.501H226.6C225.8 226.501 225.2 227.101 225.2 227.901V248.701C225.2 249.501 225.8 250.101 226.6 250.101H233.5C234.3 250.101 234.9 249.501 234.9 248.701V227.901Z" fill="#12b981"/>
<path d="M248.3 220.201C248.3 219.401 247.7 218.801 246.9 218.801H240C239.2 218.801 238.6 219.401 238.6 220.201V248.201C238.6 249.001 239.2 249.601 240 249.601H246.9C247.7 249.601 248.3 249.001 248.3 248.201V220.201Z" fill="#12b981"/>
<path d="M261.7 214.001C261.7 213.201 261.1 212.601 260.3 212.601H253.4C252.6 212.601 252 213.201 252 214.001V248.201C252 249.001 252.6 249.601 253.4 249.601H260.3C261.1 249.601 261.7 249.001 261.7 248.201V214.001Z" fill="#12b981"/>
<path d="M324.1 192.701C351.825 192.701 374.3 170.225 374.3 142.501C374.3 114.776 351.825 92.3008 324.1 92.3008C296.376 92.3008 273.9 114.776 273.9 142.501C273.9 170.225 296.376 192.701 324.1 192.701Z" fill="url(#paint4_linear_6591_5533)"/>
<path d="M337.042 189.244C362.855 182.095 377.986 155.374 370.837 129.56C363.688 103.747 336.966 88.6162 311.153 95.7653C285.339 102.914 270.209 129.636 277.358 155.449C284.507 181.263 311.228 196.393 337.042 189.244Z" fill="#12b981"/>
<path d="M279.4 140.601C279.1 140.601 278.9 140.301 278.9 140.101C279 138.201 279.2 136.301 279.6 134.401C279.6 134.101 279.9 133.901 280.2 134.001C280.5 134.101 280.7 134.301 280.6 134.601C280.3 136.401 280.1 138.301 280 140.201C279.9 140.401 279.6 140.601 279.4 140.601Z" fill="white"/>
<path d="M284.1 122.801C284 122.801 283.9 122.801 283.9 122.701C283.6 122.601 283.5 122.301 283.7 122.001C291.5 106.601 307 97.1006 324.2 97.1006C326.9 97.1006 329.7 97.3006 332.4 97.8006C332.7 97.9006 332.9 98.1006 332.8 98.4006C332.7 98.7006 332.5 98.9006 332.2 98.8006C329.6 98.3006 326.9 98.1006 324.2 98.1006C307.4 98.1006 292.2 107.401 284.7 122.401C284.5 122.701 284.3 122.801 284.1 122.801Z" fill="white"/>
<path opacity="0.78" d="M354.15 172.603C370.201 156.552 370.201 130.53 354.15 114.479C338.1 98.4288 312.077 98.4288 296.027 114.479C279.976 130.53 279.976 156.552 296.027 172.603C312.077 188.653 338.1 188.653 354.15 172.603Z" fill="white"/>
<path d="M345 125.3V164.6C345 167.2 343.2 169.9 340.6 169.9H307.6C305 169.9 302.3 167.2 302.3 164.6V122.2C302.3 119.6 305 117.4 307.6 117.4H337.5L345 125.3Z" fill="#12b981"/>
<path d="M312.8 133.7C312.8 135.2 311.6 136.4 310.1 136.4C308.6 136.4 307.4 135.2 307.4 133.7C307.4 132.2 308.6 131 310.1 131C311.6 131 312.8 132.2 312.8 133.7Z" fill="white"/>
<path d="M340.4 134.8C340.4 136 339.4 137 338.2 137H317.4C316.2 137 315.2 136 315.2 134.8V134.1C315.2 132.9 316.2 131.9 317.4 131.9H338.2C339.4 131.9 340.4 132.9 340.4 134.1V134.8Z" fill="white"/>
<path d="M312.8 143.1C312.8 144.6 311.6 145.8 310.1 145.8C308.6 145.8 307.4 144.6 307.4 143.1C307.4 141.6 308.6 140.4 310.1 140.4C311.6 140.5 312.8 141.7 312.8 143.1Z" fill="white"/>
<path d="M340.4 144.501C340.4 145.701 339.4 146.701 338.2 146.701H317.4C316.2 146.701 315.2 145.701 315.2 144.501V143.801C315.2 142.601 316.2 141.601 317.4 141.601H338.2C339.4 141.601 340.4 142.601 340.4 143.801V144.501Z" fill="white"/>
<path d="M312.8 152.6C312.8 154.1 311.6 155.3 310.1 155.3C308.6 155.3 307.4 154.1 307.4 152.6C307.4 151.1 308.6 149.9 310.1 149.9C311.6 149.9 312.8 151.1 312.8 152.6Z" fill="white"/>
<path d="M340.4 153.3C340.4 154.5 339.4 155.5 338.2 155.5H317.4C316.2 155.5 315.2 154.5 315.2 153.3V152.6C315.2 151.4 316.2 150.4 317.4 150.4H338.2C339.4 150.4 340.4 151.4 340.4 152.6V153.3Z" fill="white"/>
<path d="M345.3 125.7H340.6C338.9 125.7 337.8 124 337.8 122.2V117.5L337.6 117.7L345.3 125.7Z" fill="#12b981"/>
<path d="M238.6 125.601C238.5 125.601 238.1 125.601 238 125.701C237.9 125.801 237.5 125.901 237.5 126.001V129.001C237.5 129.201 238 129.401 238.2 129.401C247.5 129.601 255.2 137.301 255.2 146.601C255.2 156.101 247.6 163.801 238.1 163.801C228.6 163.801 220.9 156.101 220.9 146.601C220.9 143.301 221.9 140.101 223.7 137.301L225.3 138.901C225.4 139.001 225.5 139.001 225.7 139.001C225.8 139.001 225.9 138.901 226 138.701L228.1 131.001C228.1 130.901 228.1 130.701 228 130.601C227.9 130.501 227.8 130.501 227.6 130.501L219.9 132.501C219.8 132.501 219.7 132.601 219.6 132.801C219.5 133.001 219.6 133.101 219.7 133.201L221 134.601C218.5 138.101 217.2 142.301 217.2 146.601C217.2 158.201 226.6 167.601 238.2 167.601C249.8 167.601 259.2 158.201 259.2 146.601C259.2 135.101 250 125.801 238.6 125.601Z" fill="#12b981"/>
<path d="M77.6997 243.301C77.6997 243.301 101.2 272.001 109.9 265.101C118.6 258.201 95.1997 220.601 95.1997 220.601L77.6997 243.301Z" fill="black"/>
<path d="M78.6995 429.301C78.6995 429.201 78.6995 429.001 78.6995 428.901C76.5995 420.501 65.9995 415.201 65.9995 415.201L61.7995 415.501C59.3995 422.901 59.6995 427.501 60.0995 429.501C60.0995 429.601 60.0995 429.601 60.0995 429.701C63.5995 430.001 70.6995 430.201 78.6995 429.301Z" fill="#12b981"/>
<path d="M60.0996 409.301L61.8996 417.801C61.9996 418.401 62.4996 418.901 63.0996 418.901C63.7996 419.001 64.7996 419.001 65.7996 418.901C66.6996 418.801 67.2996 417.801 67.1996 416.801L65.9996 409.201H60.0996V409.301Z" fill="url(#paint5_linear_6591_5533)"/>
<path d="M115.7 429.001C115.7 428.901 115.6 428.901 115.6 428.801C113.4 425.701 107.7 419.401 96.3995 416.701L90.9995 416.501C90.9995 416.501 88.5995 420.701 88.4995 428.401C89.6995 428.901 92.0995 429.401 96.6995 429.601C103.9 429.901 112.4 429.201 115.7 429.001Z" fill="#12b981"/>
<path d="M89.9995 408.401C90.0995 408.801 90.7995 414.901 91.0995 417.301C91.1995 417.901 91.5995 418.301 92.0995 418.401C92.9995 418.501 94.4995 418.601 95.7995 418.301C96.4995 418.201 96.9995 417.501 96.9995 416.701V407.001L89.9995 408.401Z" fill="url(#paint6_linear_6591_5533)"/>
<path d="M85.6998 296.601C85.6998 296.601 98.6998 346.101 98.4998 408.501C98.4998 409.601 97.6998 410.601 96.5998 410.901C94.9998 411.201 92.5998 411.701 90.5998 411.601C89.4998 411.601 88.5998 410.801 88.4998 409.701C86.6998 399.001 76.1998 338.601 70.1998 328.801C70.1998 328.801 66.2998 382.601 67.4998 410.501C67.4998 411.201 66.9998 411.801 66.2998 411.901C65.2998 412.001 63.5998 412.101 61.3998 411.901C60.5998 411.801 59.8998 411.201 59.7998 410.401C58.4998 401.301 50.9998 347.301 51.2998 308.401C51.2998 306.201 57.0998 296.701 57.0998 296.701H85.6998V296.601Z" fill="#12b981"/>
<path d="M94.6996 220.701C76.7996 218.101 57.0996 220.501 47.4996 221.701C44.3996 222.101 41.5996 223.601 39.4996 226.001C31.3996 235.401 13.6996 261.001 34.5996 286.801C37.2996 285.301 41.0996 282.901 43.6996 280.201C41.3996 273.701 41.1996 265.401 45.9996 255.101C46.1996 255.901 46.3996 256.701 46.5996 257.501C53.2996 278.701 53.5996 296.301 53.5996 300.301C53.5996 300.901 53.8996 301.301 54.3996 301.601C63.1996 305.101 80.0996 303.001 85.7996 302.201C86.7996 302.001 87.4996 301.101 87.3996 300.001C85.3996 285.501 92.1996 264.401 97.5996 250.501C99.6996 245.001 95.7996 222.301 94.6996 220.701Z" fill="black"/>
<path d="M66.0997 199.701L63.5997 220.201C63.4997 221.101 64.0997 222.001 64.9997 222.301C67.6997 223.101 73.3997 224.301 78.6997 222.101C79.6997 221.701 80.1997 220.601 79.9997 219.601L76.8997 205.201L66.0997 199.701Z" fill="url(#paint7_linear_6591_5533)"/>
<path d="M82.1 185.101C82.3 185.401 85.6 206.401 85.6 206.401L73.6 208.001L67.5 188.501C67.5 188.601 79.5 180.401 82.1 185.101Z" fill="url(#paint8_linear_6591_5533)"/>
<path d="M71.8998 190.501C71.5998 190.901 71.3998 191.501 71.5998 192.001L73.9998 202.301C73.9998 202.501 74.0998 202.601 74.1998 202.701C74.5998 203.501 76.1998 205.801 78.5998 204.101C80.5998 202.601 82.4998 201.301 84.0998 201.001C85.0998 200.801 85.9998 201.501 86.0998 202.501C86.3998 204.501 86.8998 208.501 86.8998 212.101C86.8998 213.001 86.1998 213.701 85.2998 213.801C82.8998 214.001 78.1998 214.201 74.3998 213.501C73.7998 213.401 73.1998 212.901 72.9998 212.301C72.0998 209.601 69.5998 202.101 68.5998 200.001C67.5998 198.101 64.7998 197.801 63.5998 197.801C63.0998 197.801 62.6998 197.601 62.2998 197.201C61.2998 196.101 59.7998 193.601 62.6998 191.201C63.3998 190.601 63.4998 189.501 62.8998 188.801C61.7998 187.501 60.8998 185.401 63.1998 183.101C65.4998 180.801 68.0998 181.401 69.6998 182.201C70.3998 182.501 71.2998 182.401 71.7998 181.801C71.9998 181.501 72.3998 181.301 72.8998 181.401C73.8998 181.501 74.6998 180.901 74.7998 179.901C74.9998 178.301 75.8998 176.401 78.7998 175.801C84.0998 174.801 86.6998 180.101 86.5998 183.801C86.4998 187.501 80.6998 188.301 77.3998 187.701C74.9998 187.301 72.8998 189.401 71.8998 190.501Z" fill="url(#paint9_linear_6591_5533)"/>
<path d="M69.5 203.901C69.5 203.901 69.4 197.401 66.8 196.801C64.2 196.201 61.3 198.101 63.6 202.001C66.3 206.801 69.5 203.901 69.5 203.901Z" fill="url(#paint10_linear_6591_5533)"/>
<path d="M45.0995 253.601C41.5995 243.901 42.7995 232.201 42.8995 232.101L43.8995 232.201C43.8995 232.301 42.5995 243.801 46.0995 253.301L45.0995 253.601Z" fill="black"/>
<path d="M69.5998 327.501C69.3998 327.501 69.1998 327.401 69.0998 327.101C67.9998 322.901 59.8998 318.301 59.7998 318.301C59.5998 318.201 59.4998 317.901 59.5998 317.601C59.6998 317.401 59.9998 317.301 60.2998 317.401C60.5998 317.601 68.7998 322.201 69.9998 326.801C70.0998 327.101 69.8998 327.301 69.5998 327.401C69.6998 327.501 69.6998 327.501 69.5998 327.501Z" fill="url(#paint11_linear_6591_5533)"/>
<path d="M43.5995 280.201C40.9995 283.001 37.1995 285.301 34.4995 286.801C38.4995 291.701 43.8995 296.701 51.0995 301.501L51.9995 303.401C52.6995 305.101 54.3995 306.201 56.1995 306.301C66.1995 306.801 68.9995 304.701 59.7995 298.201C59.6995 298.301 47.8995 292.401 43.5995 280.201Z" fill="url(#paint12_linear_6591_5533)"/>
<path d="M117.1 236.801C117.1 236.801 104.5 249.901 101.6 254.701C98.6997 259.501 101.9 268.101 108.6 266.101C115.2 264.101 122.9 241.301 122.9 241.301L117.1 236.801Z" fill="url(#paint13_linear_6591_5533)"/>
<path d="M96 218.201C96 218.201 107.1 247.401 110.6 253.501C114.7 260.601 126.5 256.101 126 250.201C125.4 244.301 111.5 219.901 111.5 219.901L96 218.201Z" fill="#12b981"/>
<path d="M111 196.901L179.9 173.001L179.2 237.601L109.1 222.001L111 196.901Z" fill="#12b981"/>
<path d="M180 238.701C183.755 238.701 186.8 223.837 186.8 205.501C186.8 187.165 183.755 172.301 180 172.301C176.244 172.301 173.2 187.165 173.2 205.501C173.2 223.837 176.244 238.701 180 238.701Z" fill="url(#paint14_linear_6591_5533)"/>
<path d="M180.5 236.501C179.9 235.901 178.6 233.501 177.4 227.301C176.3 221.301 175.7 213.501 175.7 205.401C175.7 197.301 176.3 189.501 177.4 183.501C178.5 177.301 179.9 174.901 180.5 174.301C181.1 174.901 182.4 177.301 183.6 183.501C184.7 189.501 185.3 197.301 185.3 205.401C185.3 213.501 184.7 221.301 183.6 227.301C182.4 233.401 181.1 235.801 180.5 236.501Z" fill="#e6f7f1"/>
<mask id="mask0_6591_5533" style="mask-type:luminance" maskUnits="userSpaceOnUse" x="175" y="174" width="19" height="63">
<path d="M180.5 236.501C179.9 235.901 178.6 233.501 177.4 227.301C176.3 221.301 175.7 213.501 175.7 205.401C175.7 197.301 176.3 189.501 177.4 183.501C178.5 177.301 179.9 174.901 180.5 174.301C181.1 174.901 182.4 177.301 183.6 183.501C184.7 189.501 193.4 197.301 193.4 205.401C193.4 213.501 184.7 221.301 183.6 227.301C182.4 233.401 181.1 235.801 180.5 236.501Z" fill="white"/>
</mask>
<g mask="url(#mask0_6591_5533)">
<path d="M189.2 205.101C189.2 210.701 186.2 215.301 180.1 215.301C174.1 215.301 169.2 210.701 169.2 205.101C169.2 199.501 174.1 194.901 180.1 194.901C186.1 194.801 189.2 199.401 189.2 205.101Z" fill="#12b981"/>
</g>
<path d="M99.8998 195.5C103.1 195.1 107.8 195 112.8 196.1C111.1 204.8 111.4 213.8 113.3 223.1H99.0998C96.7998 223.1 94.8998 221.5 94.5998 219.2C93.8998 214.7 92.9998 207.2 93.9998 201.2C94.3998 198.2 96.7998 195.8 99.8998 195.5Z" fill="#12b981"/>
<path d="M108.4 202.301H97.4C97 202.301 96.6 202.101 96.4 201.701C96.2 201.301 96.2 200.901 96.4 200.501C96.5 200.301 96.8 200.201 97 200.401C97.2 200.501 97.3 200.801 97.1 201.001C97 201.101 97.1 201.201 97.1 201.301C97.1 201.301 97.2 201.401 97.3 201.401H108.3C108.5 201.401 108.6 201.301 108.6 201.101V200.301C108.6 200.101 108.5 200.001 108.3 200.001H97.2C97 200.001 96.8 199.801 96.8 199.601C96.8 199.401 97 199.201 97.2 199.201H108.3C108.9 199.201 109.5 199.701 109.5 200.401V201.201C109.5 201.701 109 202.301 108.4 202.301Z" fill="white"/>
<path d="M107.4 207.201H96.4C96 207.201 95.6 207.001 95.4 206.601C95.2 206.201 95.2 205.801 95.4 205.401C95.5 205.201 95.8 205.101 96 205.301C96.2 205.401 96.3 205.701 96.1 205.901C96 206.001 96.1 206.101 96.1 206.201C96.1 206.201 96.2 206.301 96.3 206.301H107.3C107.5 206.301 107.6 206.201 107.6 206.001V205.201C107.6 205.001 107.5 204.901 107.3 204.901H96.3C96.1 204.901 95.9 204.701 95.9 204.501C95.9 204.301 96.1 204.101 96.3 204.101H107.4C108 204.101 108.6 204.601 108.6 205.301V206.101C108.6 206.601 108 207.201 107.4 207.201Z" fill="white"/>
<path d="M121 195.301C120.8 195.301 120.6 195.201 120.6 195.001C120.5 194.801 120.7 194.501 120.9 194.401L173.1 177.801C173.3 177.701 173.6 177.901 173.7 178.101C173.8 178.301 173.6 178.601 173.4 178.701L121.2 195.301C121.1 195.301 121 195.301 121 195.301Z" fill="white"/>
<path d="M113.9 198.2C113.7 198.2 113.6 198.1 113.5 197.9C113.4 197.7 113.5 197.4 113.7 197.3L116.4 196.2C116.6 196.1 116.9 196.2 117 196.4C117.1 196.6 117 196.9 116.8 197L114.1 198.1C114 198.2 114 198.2 113.9 198.2Z" fill="white"/>
<path d="M108.4 212.901H97.4C97 212.901 96.6 212.701 96.4 212.301C96.2 211.901 96.2 211.501 96.4 211.101C96.5 210.901 96.8 210.801 97 211.001C97.2 211.101 97.3 211.401 97.1 211.601C97 211.701 97.1 211.801 97.1 211.901C97.1 211.901 97.2 212.001 97.3 212.001H108.3C108.5 212.001 108.6 211.901 108.6 211.701V210.901C108.6 210.701 108.5 210.601 108.3 210.601H97.2C97 210.601 96.8 210.401 96.8 210.201C96.8 210.001 97 209.801 97.2 209.801H108.3C108.9 209.801 109.5 210.301 109.5 211.001V211.801C109.5 212.401 109 212.901 108.4 212.901Z" fill="white"/>
<path d="M109.4 219.301H98.4C98 219.301 97.6 219.101 97.4 218.701C97.2 218.301 97.2 217.901 97.4 217.501C97.5 217.301 97.8 217.201 98 217.401C98.2 217.501 98.3 217.801 98.1 218.001C98 218.101 98.1 218.201 98.1 218.301C98.1 218.301 98.2 218.401 98.3 218.401H109.3C109.5 218.401 109.6 218.301 109.6 218.101V217.301C109.6 217.101 109.5 217.001 109.3 217.001H98.3C98.1 217.001 97.9 216.801 97.9 216.601C97.9 216.401 98.1 216.201 98.3 216.201H109.4C110 216.201 110.6 216.701 110.6 217.401V218.201C110.6 218.701 110.1 219.301 109.4 219.301Z" fill="white"/>
<path d="M119.3 253.8C118.8 253.8 118.3 253.7 117.7 253.6C115.4 253.1 113.5 251.6 112.6 249.4L103.8 229.8C103.7 229.6 103.8 229.3 104 229.2C104.2 229.1 104.5 229.2 104.6 229.4L113.4 249C114.2 250.9 115.9 252.2 117.9 252.6C119.9 253 121.9 252.5 123.4 251.2C123.5 251.1 123.6 251.1 123.6 251C123.8 250.8 124.1 250.8 124.2 251C124.4 251.2 124.4 251.5 124.2 251.6C124.1 251.7 124 251.8 123.9 251.8C122.7 253.2 121 253.8 119.3 253.8Z" fill="white"/>
<path d="M102.8 227.3C102.6 227.3 102.5 227.2 102.4 227L101.4 224.8C101.3 224.6 101.4 224.3 101.6 224.2C101.8 224.1 102.1 224.2 102.2 224.4L103.2 226.6C103.3 226.8 103.2 227.1 103 227.2C103 227.3 102.9 227.3 102.8 227.3Z" fill="white"/>
<path d="M187.5 204.901C187.3 204.901 187.1 204.701 187.1 204.501C186.9 201.801 186 199.801 184.3 198.501C181.4 196.301 177.3 197.101 177.3 197.101C177.1 197.101 176.8 197.001 176.8 196.701C176.8 196.501 176.9 196.201 177.2 196.201C177.4 196.201 181.8 195.401 184.9 197.801C186.8 199.201 187.8 201.501 188 204.501C188 204.701 187.8 204.901 187.5 204.901Z" fill="white"/>
<path d="M112.3 229.301C112.3 229.301 115.9 226.201 118.7 229.301C121.5 232.401 122.1 237.701 121.5 237.901C121 238.201 103.6 233.801 112.3 229.301Z" fill="url(#paint15_linear_6591_5533)"/>
</g>
<defs>
<linearGradient id="paint0_linear_6591_5533" x1="243.638" y1="-25.5131" x2="211.043" y2="395.153" gradientUnits="userSpaceOnUse">
<stop stop-color="#53D8FF"/>
<stop offset="1" stop-color="#3840F7"/>
</linearGradient>
<linearGradient id="paint1_linear_6591_5533" x1="178.06" y1="95.153" x2="101.095" y2="243.127" gradientUnits="userSpaceOnUse">
<stop stop-color="#53D8FF"/>
<stop offset="1" stop-color="#3840F7"/>
</linearGradient>
<linearGradient id="paint2_linear_6591_5533" x1="262.018" y1="6.8566" x2="185.053" y2="154.831" gradientUnits="userSpaceOnUse">
<stop stop-color="#53D8FF"/>
<stop offset="1" stop-color="#3840F7"/>
</linearGradient>
<linearGradient id="paint3_linear_6591_5533" x1="262.018" y1="187.168" x2="185.053" y2="335.143" gradientUnits="userSpaceOnUse">
<stop stop-color="#53D8FF"/>
<stop offset="1" stop-color="#3840F7"/>
</linearGradient>
<linearGradient id="paint4_linear_6591_5533" x1="348.699" y1="95.154" x2="271.734" y2="243.128" gradientUnits="userSpaceOnUse">
<stop stop-color="#53D8FF"/>
<stop offset="1" stop-color="#3840F7"/>
</linearGradient>
<linearGradient id="paint5_linear_6591_5533" x1="65.0878" y1="401.141" x2="61.4837" y2="432.594" gradientUnits="userSpaceOnUse">
<stop stop-color="#F9B776"/>
<stop offset="1" stop-color="#F47960"/>
</linearGradient>
<linearGradient id="paint6_linear_6591_5533" x1="94.445" y1="404.504" x2="90.841" y2="435.958" gradientUnits="userSpaceOnUse">
<stop stop-color="#F9B776"/>
<stop offset="1" stop-color="#F47960"/>
</linearGradient>
<linearGradient id="paint7_linear_6591_5533" x1="63.0133" y1="190.682" x2="73.9824" y2="224.499" gradientUnits="userSpaceOnUse">
<stop stop-color="#F9B776"/>
<stop offset="1" stop-color="#F47960"/>
</linearGradient>
<linearGradient id="paint8_linear_6591_5533" x1="77.9948" y1="187.548" x2="72.0943" y2="227.6" gradientUnits="userSpaceOnUse">
<stop stop-color="#F9B776"/>
<stop offset="1" stop-color="#F47960"/>
</linearGradient>
<linearGradient id="paint9_linear_6591_5533" x1="65.367" y1="203.305" x2="90.9443" y2="189.299" gradientUnits="userSpaceOnUse">
<stop stop-color="#2B3582"/>
<stop offset="1" stop-color="#150E42"/>
</linearGradient>
<linearGradient id="paint10_linear_6591_5533" x1="576.819" y1="599.761" x2="604.825" y2="621.659" gradientUnits="userSpaceOnUse">
<stop stop-color="#F9B776"/>
<stop offset="1" stop-color="#F47960"/>
</linearGradient>
<linearGradient id="paint11_linear_6591_5533" x1="31.5632" y1="371.014" x2="-16.093" y2="440.439" gradientUnits="userSpaceOnUse">
<stop stop-color="#2B3582"/>
<stop offset="1" stop-color="#150E42"/>
</linearGradient>
<linearGradient id="paint12_linear_6591_5533" x1="37.9393" y1="271.62" x2="60.8848" y2="316.922" gradientUnits="userSpaceOnUse">
<stop stop-color="#F9B776"/>
<stop offset="1" stop-color="#F47960"/>
</linearGradient>
<linearGradient id="paint13_linear_6591_5533" x1="136.628" y1="227.834" x2="101.72" y2="263.135" gradientUnits="userSpaceOnUse">
<stop stop-color="#F9B776"/>
<stop offset="1" stop-color="#F47960"/>
</linearGradient>
<linearGradient id="paint14_linear_6591_5533" x1="319.929" y1="164.599" x2="229.324" y2="191.075" gradientUnits="userSpaceOnUse">
<stop stop-color="#53D8FF"/>
<stop offset="1" stop-color="#3840F7"/>
</linearGradient>
<linearGradient id="paint15_linear_6591_5533" x1="109.882" y1="232.912" x2="121.737" y2="232.912" gradientUnits="userSpaceOnUse">
<stop stop-color="#F9B776"/>
<stop offset="1" stop-color="#F47960"/>
</linearGradient>
<clipPath id="clip0_6591_5533">
<rect width="450" height="450" fill="white"/>
</clipPath>
</defs>
</svg>
